<?xml version="1.0" encoding="utf-8"?>
<!-- Generator: Adobe Illustrator 19.1.0, SVG Export Plug-In . SVG Version: 6.00 Build 0)  -->
<svg version="1.1" id="Layer_1" xmlns="http://www.w3.org/2000/svg" xmlns:xlink="http://www.w3.org/1999/xlink" x="0px" y="0px"
	 viewBox="0 0 612 792" style="enable-background:new 0 0 612 792;" xml:space="preserve">
<style type="text/css">
	.st0{opacity:0.4;}
	.st1{fill-rule:evenodd;clip-rule:evenodd;fill:#FFFFFF;}
	.st2{fill-rule:evenodd;clip-rule:evenodd;fill:#F8F9FB;}
	.st3{fill-rule:evenodd;clip-rule:evenodd;fill:#F4F5F7;}
	.st4{fill-rule:evenodd;clip-rule:evenodd;fill:#EFF2F4;}
	.st5{fill-rule:evenodd;clip-rule:evenodd;fill:#EBEEF1;}
	.st6{fill-rule:evenodd;clip-rule:evenodd;fill:#E7EBEF;}
	.st7{fill-rule:evenodd;clip-rule:evenodd;fill:#E3E8ED;}
	.st8{fill-rule:evenodd;clip-rule:evenodd;fill:#DFE5EA;}
	.st9{fill-rule:evenodd;clip-rule:evenodd;fill:#DBE2E8;}
	.st10{fill-rule:evenodd;clip-rule:evenodd;fill:#D7DFE6;}
	.st11{fill-rule:evenodd;clip-rule:evenodd;fill:#D3DDE4;}
	.st12{fill-rule:evenodd;clip-rule:evenodd;fill:#D0DAE2;}
	.st13{fill-rule:evenodd;clip-rule:evenodd;fill:#CCD7E0;}
	.st14{fill-rule:evenodd;clip-rule:evenodd;fill:#C8D4DE;}
	.st15{fill-rule:evenodd;clip-rule:evenodd;fill:#C4D1DC;}
	.st16{fill-rule:evenodd;clip-rule:evenodd;fill:#C0CFDA;}
	.st17{fill-rule:evenodd;clip-rule:evenodd;fill:#BCCCD8;}
	.st18{fill-rule:evenodd;clip-rule:evenodd;fill:#B9C9D6;}
	.st19{fill-rule:evenodd;clip-rule:evenodd;fill:#B5C7D4;}
	.st20{fill-rule:evenodd;clip-rule:evenodd;fill:#B1C4D2;}
	.st21{fill-rule:evenodd;clip-rule:evenodd;fill:#AEC2D0;}
	.st22{fill-rule:evenodd;clip-rule:evenodd;fill:#AABFCE;}
	.st23{fill-rule:evenodd;clip-rule:evenodd;fill:url(#SVGID_1_);}
	.st24{fill-rule:evenodd;clip-rule:evenodd;fill:url(#SVGID_2_);}
	.st25{fill:url(#SVGID_3_);}
	.st26{fill:#333333;}
	.st27{font-family:'BreeSerif-Regular';}
	.st28{font-size:16.6562px;}
</style>
<g>
	<g>
		<g class="st0">
			<path class="st1" d="M378.4,409.3c0,47.4-38.5,85.9-85.9,85.9c-47.4,0-85.9-38.5-85.9-85.9c0-47.4,38.5-85.9,85.9-85.9
				C339.9,323.5,378.4,361.9,378.4,409.3z"/>
			<circle class="st2" cx="293.7" cy="408.2" r="85.9"/>
			<circle class="st3" cx="294.9" cy="407" r="85.9"/>
			<circle class="st4" cx="296.1" cy="405.8" r="85.9"/>
			<circle class="st5" cx="297.4" cy="404.6" r="85.9"/>
			<circle class="st6" cx="298.6" cy="403.4" r="85.9"/>
			<circle class="st7" cx="299.8" cy="402.2" r="85.9"/>
			<circle class="st8" cx="301" cy="401" r="85.9"/>
			<circle class="st9" cx="302.2" cy="399.8" r="85.9"/>
			<circle class="st10" cx="303.4" cy="398.6" r="85.9"/>
			<circle class="st11" cx="304.7" cy="397.4" r="85.9"/>
			<circle class="st12" cx="305.9" cy="396.2" r="85.9"/>
			<circle class="st13" cx="307.1" cy="395" r="85.9"/>
			<circle class="st14" cx="308.3" cy="393.8" r="85.9"/>
			<circle class="st15" cx="309.5" cy="392.6" r="85.9"/>
			<circle class="st16" cx="310.7" cy="391.4" r="85.9"/>
			<circle class="st17" cx="312" cy="390.2" r="85.9"/>
			<circle class="st18" cx="313.2" cy="389" r="85.9"/>
			<circle class="st19" cx="314.4" cy="387.8" r="85.9"/>
			<circle class="st20" cx="315.6" cy="386.6" r="85.9"/>
			<path class="st21" d="M402.7,385.4c0,47.4-38.5,85.9-85.9,85.9c-47.4,0-85.9-38.5-85.9-85.9c0-47.4,38.5-85.9,85.9-85.9
				C364.3,299.5,402.7,337.9,402.7,385.4z"/>
			<path class="st22" d="M403.9,384.2c0,47.4-38.5,85.9-85.9,85.9s-85.9-38.5-85.9-85.9c0-47.4,38.5-85.9,85.9-85.9
				S403.9,336.7,403.9,384.2z"/>
		</g>
		<linearGradient id="SVGID_1_" gradientUnits="userSpaceOnUse" x1="374.4788" y1="323.7937" x2="222.9832" y2="486.1096">
			<stop  offset="0" style="stop-color:#FFFFFF"/>
			<stop  offset="1" style="stop-color:#D9E2E9"/>
		</linearGradient>
		<path class="st23" d="M405.1,383c0,47.4-38.5,85.9-85.9,85.9c-47.4,0-85.9-38.5-85.9-85.9c0-47.4,38.5-85.9,85.9-85.9
			C366.7,297.1,405.1,335.6,405.1,383z"/>
		
			<linearGradient id="SVGID_2_" gradientUnits="userSpaceOnUse" x1="515.9584" y1="-224.513" x2="368.0419" y2="-66.0317" gradientTransform="matrix(-1 0 0 -1 781.2207 216.2969)">
			<stop  offset="0" style="stop-color:#FFFFFF"/>
			<stop  offset="1" style="stop-color:#D9E2E9"/>
		</linearGradient>
		<circle class="st24" cx="319.2" cy="383" r="83.9"/>
	</g>
	<radialGradient id="SVGID_3_" cx="320.1429" cy="344.966" r="116.5396" gradientUnits="userSpaceOnUse">
		<stop  offset="0" style="stop-color:#EA158E"/>
		<stop  offset="1" style="stop-color:#9F2068"/>
	</radialGradient>
	<path class="st25" d="M294.4,434.6c0,0-22.9-11.2-22.9-31.4s8.5-26.3,12.4-36.2c1.9-4.8,3.6-6.3,4.8-3.2c1.4,3.8,1.7,8.3,1.7,8.3
		s0.6,4.1,3.3,0.5s18.4-21.7,18.3-42.8c-0.1-1.9,0.5-4.3,3.6-2.4s18.3,10.5,25.8,34.2c1,3.1,3.3,4.4,4.2,1.4c1-3,2.3-6.7,1.3-11.3
		c-0.1-2.5,1.7-2.1,2.7-0.9c1.1,1.2,19.8,18,19.2,45.1c-0.6,27-27.1,39.5-27.1,39.5s-3,1.4-1.5-3.3s6.1-20.6-1.3-37.5
		c-7.4-16.9-15.4-21.1-15.4-21.1s-1.8-0.9-1.9,1.9s-0.1,13.9-6.2,23.1c-1.9,2.7-2.7,2.4-2.8-0.1c-0.1-2.4-0.5-5.3-1.3-8
		c-1.4-4.4-3.4,0.9-3.4,0.9s-2.2,7.8-7.9,15.4c-5.6,7.6-6.1,17-2.9,26.5C298.4,436.2,294.4,434.6,294.4,434.6z"/>
	<text transform="matrix(1 0 0 1 300.4999 454.8218)" class="st26 st27 st28">BURN</text>
</g>
</svg>
