<?xml version="1.0" encoding="utf-8"?>
<!-- Generator: Adobe Illustrator 19.1.0, SVG Export Plug-In . SVG Version: 6.00 Build 0)  -->
<svg version="1.1" id="Layer_1" xmlns="http://www.w3.org/2000/svg" xmlns:xlink="http://www.w3.org/1999/xlink" x="0px" y="0px"
	 viewBox="0 0 612 792" style="enable-background:new 0 0 612 792;" xml:space="preserve">
<style type="text/css">
	.st0{opacity:0.4;}
	.st1{fill-rule:evenodd;clip-rule:evenodd;fill:#FFFFFF;}
	.st2{fill-rule:evenodd;clip-rule:evenodd;fill:#F8F9FB;}
	.st3{fill-rule:evenodd;clip-rule:evenodd;fill:#F4F5F7;}
	.st4{fill-rule:evenodd;clip-rule:evenodd;fill:#EFF2F4;}
	.st5{fill-rule:evenodd;clip-rule:evenodd;fill:#EBEEF1;}
	.st6{fill-rule:evenodd;clip-rule:evenodd;fill:#E7EBEF;}
	.st7{fill-rule:evenodd;clip-rule:evenodd;fill:#E3E8ED;}
	.st8{fill-rule:evenodd;clip-rule:evenodd;fill:#DFE5EA;}
	.st9{fill-rule:evenodd;clip-rule:evenodd;fill:#DBE2E8;}
	.st10{fill-rule:evenodd;clip-rule:evenodd;fill:#D7DFE6;}
	.st11{fill-rule:evenodd;clip-rule:evenodd;fill:#D3DDE4;}
	.st12{fill-rule:evenodd;clip-rule:evenodd;fill:#D0DAE2;}
	.st13{fill-rule:evenodd;clip-rule:evenodd;fill:#CCD7E0;}
	.st14{fill-rule:evenodd;clip-rule:evenodd;fill:#C8D4DE;}
	.st15{fill-rule:evenodd;clip-rule:evenodd;fill:#C4D1DC;}
	.st16{fill-rule:evenodd;clip-rule:evenodd;fill:#C0CFDA;}
	.st17{fill-rule:evenodd;clip-rule:evenodd;fill:#BCCCD8;}
	.st18{fill-rule:evenodd;clip-rule:evenodd;fill:#B9C9D6;}
	.st19{fill-rule:evenodd;clip-rule:evenodd;fill:#B5C7D4;}
	.st20{fill-rule:evenodd;clip-rule:evenodd;fill:#B1C4D2;}
	.st21{fill-rule:evenodd;clip-rule:evenodd;fill:#AEC2D0;}
	.st22{fill-rule:evenodd;clip-rule:evenodd;fill:#AABFCE;}
	.st23{fill-rule:evenodd;clip-rule:evenodd;fill:url(#SVGID_1_);}
	.st24{fill-rule:evenodd;clip-rule:evenodd;fill:url(#SVGID_2_);}
	.st25{fill:url(#SVGID_3_);}
	.st26{fill:#FFFFFF;}
	.st27{fill:#333333;}
	.st28{font-family:'BreeSerif-Regular';}
	.st29{font-size:16.5726px;}
</style>
<g>
	<g>
		<g class="st0">
			<path class="st1" d="M371.6,438.8c0,47.4-38.5,85.9-85.9,85.9c-47.4,0-85.9-38.5-85.9-85.9c0-47.4,38.5-85.9,85.9-85.9
				C333.2,352.9,371.6,391.3,371.6,438.8z"/>
			<circle class="st2" cx="287" cy="437.6" r="85.9"/>
			<circle class="st3" cx="288.2" cy="436.4" r="85.9"/>
			<circle class="st4" cx="289.4" cy="435.2" r="85.9"/>
			<circle class="st5" cx="290.6" cy="434" r="85.9"/>
			<circle class="st6" cx="291.8" cy="432.8" r="85.9"/>
			<circle class="st7" cx="293.1" cy="431.6" r="85.9"/>
			<circle class="st8" cx="294.3" cy="430.4" r="85.9"/>
			<circle class="st9" cx="295.5" cy="429.2" r="85.9"/>
			<circle class="st10" cx="296.7" cy="428" r="85.9"/>
			<circle class="st11" cx="297.9" cy="426.8" r="85.9"/>
			<circle class="st12" cx="299.1" cy="425.6" r="85.9"/>
			<circle class="st13" cx="300.3" cy="424.4" r="85.9"/>
			<circle class="st14" cx="301.6" cy="423.2" r="85.9"/>
			<circle class="st15" cx="302.8" cy="422" r="85.9"/>
			<circle class="st16" cx="304" cy="420.8" r="85.9"/>
			<circle class="st17" cx="305.2" cy="419.6" r="85.9"/>
			<circle class="st18" cx="306.4" cy="418.4" r="85.9"/>
			<circle class="st19" cx="307.6" cy="417.2" r="85.9"/>
			<circle class="st20" cx="308.9" cy="416" r="85.9"/>
			<path class="st21" d="M396,414.8c0,47.4-38.5,85.9-85.9,85.9c-47.4,0-85.9-38.5-85.9-85.9c0-47.4,38.5-85.9,85.9-85.9
				C357.5,328.9,396,367.4,396,414.8z"/>
			<path class="st22" d="M397.2,413.6c0,47.4-38.5,85.9-85.9,85.9s-85.9-38.5-85.9-85.9c0-47.4,38.5-85.9,85.9-85.9
				S397.2,366.2,397.2,413.6z"/>
		</g>
		<linearGradient id="SVGID_1_" gradientUnits="userSpaceOnUse" x1="367.743" y1="353.2185" x2="216.2473" y2="515.5345">
			<stop  offset="0" style="stop-color:#FFFFFF"/>
			<stop  offset="1" style="stop-color:#D9E2E9"/>
		</linearGradient>
		<path class="st23" d="M398.4,412.4c0,47.4-38.5,85.9-85.9,85.9c-47.4,0-85.9-38.5-85.9-85.9c0-47.4,38.5-85.9,85.9-85.9
			C359.9,326.5,398.4,365,398.4,412.4z"/>
		
			<linearGradient id="SVGID_2_" gradientUnits="userSpaceOnUse" x1="522.6943" y1="-253.9378" x2="374.7777" y2="-95.4565" gradientTransform="matrix(-1 0 0 -1 781.2207 216.2969)">
			<stop  offset="0" style="stop-color:#FFFFFF"/>
			<stop  offset="1" style="stop-color:#D9E2E9"/>
		</linearGradient>
		<circle class="st24" cx="312.5" cy="412.4" r="83.9"/>
	</g>
</g>
<g>
	<radialGradient id="SVGID_3_" cx="322.0151" cy="427.0965" r="58.2441" gradientUnits="userSpaceOnUse">
		<stop  offset="0" style="stop-color:#EA158E"/>
		<stop  offset="1" style="stop-color:#9F2068"/>
	</radialGradient>
	<path class="st25" d="M276.4,424.1c0,19.9,16.2,36.1,36.1,36.1c19.9,0,36.1-16.2,36.1-36.1c0-16-23.3-46.1-32.5-57.2
		c-2.2-2.7-3.6-2.3-3.6-2.3s-1.4-0.4-3.6,2.3C299.7,378,276.4,408,276.4,424.1L276.4,424.1z M276.4,424.1"/>
	<path class="st26" d="M344.6,422.9c0,0-0.2,18.9-13.4,26.5c-2.2,0.9,4.5-8.2,6.7-13.2C341.1,428.9,343.7,417.1,344.6,422.9z"/>
</g>
<text transform="matrix(1 0 0 1 295.0341 483.0215)" class="st27 st28 st29">FUEL</text>
</svg>
