<?xml version="1.0" encoding="utf-8"?>
<!-- Generator: Adobe Illustrator 12.0.0, SVG Export Plug-In . SVG Version: 6.00 Build 51448)  -->
<!DOCTYPE svg PUBLIC "-//W3C//DTD SVG 1.1//EN" "http://www.w3.org/Graphics/SVG/1.1/DTD/svg11.dtd" [
	<!ENTITY ns_svg "http://www.w3.org/2000/svg">
	<!ENTITY ns_xlink "http://www.w3.org/1999/xlink">
]>
<svg  version="1.1" id="Layer_1" xmlns="&ns_svg;" xmlns:xlink="&ns_xlink;" width="314.218" height="163.461"
	 viewBox="0 0 314.218 163.461" overflow="visible" enable-background="new 0 0 314.218 163.461" xml:space="preserve">
<path fill="#FFFFFF" d="M60.495,54.249c-0.294,0.758-1.171,1.236-2.627,1.434c0.004,3.09,0.051,6.001,0.143,8.727l0.053,4.04
	c-0.001,0.033,0.03,0.1,0.093,0.202c0.064,0.101,0.096,0.185,0.095,0.251c-0.006,0.233-0.068,0.372-0.189,0.419
	c-0.119,0.047-0.244,0.069-0.379,0.066c-0.271-0.006-0.608-0.096-1.007-0.273c-1.004-0.423-1.512-1.098-1.523-2.032l0.067-2.789
	l0.148-8.371c-2.386,0.242-5.482,0.485-9.289,0.726c-0.044,1.827,0.011,4.438,0.162,7.831c0.087,0.568,0.252,1.27,0.499,2.105
	c0.126,0.202,0.19,0.405,0.185,0.603c-0.008,0.332-0.264,0.493-0.77,0.481c-0.774-0.018-1.448-0.36-2.022-1.02
	c-0.574-0.662-0.852-1.375-0.834-2.14c0.093-3.919,0.14-6.477,0.135-7.673c-0.759,0.049-1.205,0.069-1.336,0.066
	c-0.525-0.012-1.212-0.193-2.061-0.547c-0.977-0.388-1.46-0.799-1.449-1.23l0.002-0.099l0.054-0.149
	c0.136-0.13,1.769-0.34,4.899-0.632c-0.029-3.324-0.095-8.311-0.193-14.96c-0.07-1.165-0.162-2.912-0.273-5.241
	c-0.191-0.37-0.284-0.638-0.28-0.804c0.003-0.133,0.022-0.241,0.057-0.324c0.035-0.081,0.169-0.12,0.402-0.114
	c0.499,0.012,1.16,0.161,1.984,0.445c1.02,0.357,1.528,0.719,1.519,1.084c-0.013,0.566-0.044,1.312-0.09,2.241
	c-0.053,1.129-0.096,1.876-0.129,2.239c-0.088,2.659-0.17,5.581-0.246,8.769c-0.052,2.192-0.103,4.335-0.153,6.428l9.337-0.576
	c0.05-3.488,0.025-8.774-0.071-15.854c0.011-0.466-0.033-2.079-0.135-4.839c-0.052-1.963-0.064-3.574-0.034-4.837
	c0.002-0.066,0.018-0.115,0.054-0.148l0.051-0.049l0.099-0.048c0.035,0.001,0.413,0.094,1.14,0.277
	c1.421,0.366,2.124,0.848,2.11,1.446c-0.055,2.326-0.171,5.803-0.348,10.435c-0.176,4.633-0.292,8.095-0.347,10.387
	c-0.023,0.997-0.033,2.093-0.028,3.289c0.563,0.048,1.027,0.093,1.393,0.134c0.696,0.116,1.072,0.274,1.136,0.475L60.495,54.249z"/>
<path fill="#FFFFFF" d="M73.975,53.472c-0.124,5.216-1.146,9.032-3.066,11.444c-1.06,1.338-2.207,1.991-3.436,1.962
	c-2.524-0.06-4.399-1.566-5.625-4.521c-0.912-2.248-1.332-4.818-1.264-7.707c0.033-1.362,0.225-3.069,0.571-5.121
	c0.43-2.649,0.914-4.149,1.453-4.502c0.236-0.126,0.537-0.187,0.903-0.179c0.166,0.004,0.347,0.043,0.546,0.113
	c0.591-1.148,1.074-1.918,1.45-2.308c0.682-0.714,1.504-1.061,2.468-1.038c0.697,0.016,1.324,0.197,1.88,0.543
	C72.736,44.021,74.11,47.792,73.975,53.472 M71.515,54.113c0.136-5.714-0.707-9.39-2.53-11.029
	c-0.292-0.272-0.488-0.411-0.587-0.413c-0.233-0.006-0.486,0.106-0.755,0.332c-1.594,1.325-2.436,3.847-2.524,7.567
	c-0.054,2.259,0.271,3.995,0.973,5.208c0.064,0.101,0.299,0.374,0.704,0.814c0.405,0.443,0.606,0.713,0.603,0.814
	c-0.006,0.265-0.275,0.391-0.806,0.378c-1.463-0.035-2.581-1.224-3.356-3.569l-0.014,0.598c-0.084,2.125,0.104,4.074,0.56,5.847
	c0.608,2.339,1.618,3.942,3.026,4.807c0.361,0.208,0.64,0.313,0.84,0.318c0.199,0.005,0.434-0.089,0.705-0.281
	c1.048-0.806,1.872-2.566,2.467-5.276C71.234,58.277,71.465,56.238,71.515,54.113"/>
<path fill="#FFFFFF" d="M87.066,56.277c-0.05,2.093-0.435,4.327-1.155,6.703c-0.976,3.201-2.192,4.782-3.654,4.747
	c-4.748-0.113-6.98-6.214-6.692-18.305c0.038-1.594,0.073-3.055,0.104-4.383c-0.493,0.054-0.805,0.079-0.936,0.076
	c-0.326-0.007-0.798-0.126-1.414-0.357c-0.618-0.23-0.923-0.479-0.917-0.745c0.002-0.099,0.305-0.193,0.904-0.277l2.552-0.339
	c0.179-1.956,0.449-4.907,0.808-8.853c0.032,0,0.1-0.015,0.2-0.046c0.166,0.004,0.399,0.043,0.695,0.116
	c1.521,0.369,2.305,0.853,2.359,1.452c-0.159,1.093-0.338,2.303-0.536,3.626c-0.158,1.094-0.284,2.205-0.378,3.332
	c3.731-0.344,5.58-0.516,5.548-0.517c0.232,0.006,0.346,0.077,0.343,0.208c-0.008,0.366-0.399,0.671-1.168,0.92
	c0.063,0.069,0.097,0.136,0.096,0.201c-0.006,0.233-0.129,0.43-0.365,0.59c-0.1,0.064-1.634,0.227-4.598,0.489
	c-0.175,1.79-0.277,3.301-0.306,4.528c-0.095,3.988-0.048,6.912,0.139,8.778c0.338,3.931,1.174,6.511,2.508,7.738
	c0.326,0.274,0.604,0.429,0.837,0.469c1.184-0.869,2.153-2.492,2.908-4.867c0.466-1.485,0.836-3.104,1.112-4.859
	c0.083-0.696,0.24-1.042,0.473-1.036C86.898,55.675,87.076,55.878,87.066,56.277"/>
<path fill="#E90E8D" d="M104.451,61.992c-0.026,1.089-0.246,2.411-0.659,3.965c-0.524,2.067-1.163,3.092-1.914,3.074
	c-0.079-0.002-0.189-0.015-0.326-0.038c-1.38-0.27-2.338-1.649-2.873-4.138c-0.358-1.592-0.512-3.447-0.461-5.566
	c0.033-1.405,0.099-2.898,0.196-4.481c-0.77,4.022-1.317,7.049-1.642,9.08c-0.233,1.421-0.352,2.3-0.36,2.636
	c-0.005,0.179,0.008,0.451,0.04,0.818c0.03,0.367,0.044,0.639,0.04,0.818c-0.004,0.178-0.135,0.264-0.393,0.258
	c-0.692-0.017-1.144-0.216-1.351-0.597c-0.116-0.18-0.18-0.391-0.193-0.627c-0.14-1.549-0.364-6.109-0.673-13.68
	c-0.535,2.937-0.971,5.54-1.309,7.808c-0.444,3.159-0.681,5.402-0.712,6.728c-0.004,0.138,0.008,0.495,0.034,1.07
	c0.037,0.08,0.055,0.16,0.053,0.239c-0.001,0.06-0.012,0.099-0.032,0.118c-0.024,0.139-0.174,0.204-0.45,0.198
	c-0.179-0.005-0.45-0.07-0.813-0.198c-0.364-0.128-0.593-0.256-0.689-0.387c-0.096-0.131-0.142-0.296-0.137-0.495
	c-0.078-3.368-0.274-8.432-0.589-15.193c-0.072-1.17-0.238-2.906-0.499-5.211c-0.052-0.337-0.158-0.507-0.315-0.511
	c-0.396-0.009-1.003,0.967-1.823,2.927c-0.757,1.843-1.141,3.062-1.155,3.656c0.135,0.142,0.122,0.24-0.038,0.295
	c-0.277-0.007-0.566-0.107-0.869-0.302c-0.302-0.196-0.45-0.421-0.444-0.679c0.004-0.198,0.166-0.739,0.484-1.623
	c0.382-1.079,0.851-2.068,1.408-2.967c0.805-1.366,1.553-2.041,2.246-2.025c0.791,0.019,1.385,0.459,1.78,1.319
	c0.908,1.844,1.365,7.142,1.376,15.897c0.057-0.653,0.211-1.805,0.463-3.462c0.33-2.368,0.792-5.428,1.388-9.179
	c0.073-0.511,0.2-1.271,0.382-2.277c0.022-0.061,0.102-0.089,0.24-0.085c0.039,0.001,0.266,0.056,0.679,0.165
	c0.709,0.195,1.125,0.373,1.251,0.535c0.125,0.161,0.179,0.608,0.162,1.341c-0.077,3.206-0.045,7.257,0.097,12.153
	c0.371-2.428,1.066-6.106,2.084-11.034l0.307-1.359c0.045-0.215,0.166-0.321,0.365-0.316c0.138,0.003,0.6,0.162,1.386,0.478
	c0.295,0.107,0.436,0.447,0.422,1.019l-0.153,1.453c-0.265,2.806-0.406,4.566-0.422,5.277c-0.12,5.028,0.412,8.031,1.597,9.008
	c0.537-0.124,1.036-1.053,1.493-2.786c0.108-0.413,0.332-1.546,0.675-3.4c0.043-0.215,0.174-0.291,0.391-0.228
	C104.372,61.526,104.458,61.695,104.451,61.992"/>
<path fill="#E90E8D" d="M113.811,63.106c-0.019,0.792-0.201,1.788-0.546,2.987c-0.453,1.534-0.946,2.294-1.481,2.281
	c-0.93-0.022-1.693-0.811-2.289-2.371c-0.411-1.058-0.689-2.233-0.837-3.525c-0.444,3.693-1.151,5.527-2.121,5.504
	c-0.535-0.013-1.053-0.271-1.556-0.779c-1.335-1.339-1.962-3.651-1.884-6.936c0.01-0.416,0.081-0.969,0.216-1.659
	c0.271-1.419,0.738-2.705,1.4-3.859c0.93-1.62,1.75-2.423,2.463-2.407c0.395,0.01,0.991,0.327,1.789,0.951
	c0.797,0.621,1.193,1.072,1.186,1.349c-0.003,0.159-0.084,0.235-0.242,0.231c-0.021-0.001-0.21-0.172-0.568-0.517
	c-0.358-0.345-0.686-0.522-0.983-0.529c-0.158-0.004-0.358,0.061-0.598,0.194c-1.005,0.57-1.785,1.739-2.342,3.509
	c-0.469,1.374-0.72,2.815-0.756,4.318c-0.045,1.881,0.217,3.372,0.784,4.475c0.304,0.602,0.544,0.904,0.723,0.909
	c0.138,0.003,0.309-0.141,0.514-0.433c0.799-1.111,1.404-4.067,1.816-8.869c0.082-0.969,0.203-1.451,0.361-1.448
	c0.375,0.009,0.74,0.078,1.094,0.205c0.47,0.17,0.703,0.414,0.695,0.731c-0.008,0.358-0.045,0.903-0.113,1.636
	c-0.067,0.734-0.105,1.278-0.113,1.636c-0.03,1.25,0.031,2.453,0.181,3.609c0.238,1.655,0.63,2.675,1.176,3.066
	c0.511-0.686,0.955-1.91,1.334-3.676c0.134-0.635,0.27-0.95,0.409-0.947C113.721,62.748,113.817,62.869,113.811,63.106"/>
<path fill="#E90E8D" d="M126.397,63.554c-0.016,0.674-0.176,1.551-0.479,2.632c-0.369,1.319-0.762,2.062-1.182,2.229
	c-0.082,0.039-0.24,0.054-0.477,0.049c-1.207-0.029-2.047-0.93-2.52-2.704c-0.29-1.115-0.416-2.485-0.377-4.109
	c0.02-0.869,0.07-1.681,0.147-2.432c-1.125,4.013-1.705,6.752-1.74,8.218c-0.004,0.158,0.049,0.427,0.159,0.806
	c-0.004,0.158-0.086,0.234-0.245,0.23c-0.279-0.006-0.575-0.112-0.888-0.318c-0.314-0.204-0.512-0.442-0.596-0.712
	c-0.082-0.269-0.179-3.158-0.286-8.669l-1.25,5.05c-0.453,1.892-0.68,2.957-0.686,3.194c-0.004,0.158,0.015,0.393,0.057,0.701
	c0.041,0.308,0.061,0.53,0.058,0.669c-0.004,0.159-0.094,0.236-0.272,0.231c-0.1-0.002-0.256-0.044-0.473-0.13
	c-0.804-0.334-1.209-0.77-1.216-1.305l-0.054-6.507c-0.086,1.126-0.155,1.908-0.203,2.341c-0.15,1.304-0.296,2.013-0.437,2.129
	c-0.021,0.02-0.06,0.028-0.12,0.026c-0.377-0.009-0.52-0.171-0.434-0.484c0.088-0.394,0.176-0.778,0.264-1.153
	c0.386-2.03,0.615-4.59,0.688-7.678c0.018-0.731,0.023-1.335,0.014-1.811c-0.036-0.139-0.08-0.348-0.133-0.627l0.091-0.057
	c0.019,0,0.313,0.076,0.885,0.229c0.452,0.11,0.736,0.265,0.85,0.466c0.114,0.2,0.166,0.548,0.154,1.042l-0.07,9.208l2.069-8.358
	c0.131-0.53,0.325-0.795,0.583-0.789c0.019,0.001,0.128,0.035,0.325,0.099c0.471,0.13,0.756,0.226,0.854,0.286
	c0.313,0.168,0.466,0.409,0.459,0.724c0.001-0.077-0.037,0.307-0.116,1.157c-0.086,1.066-0.143,2.194-0.171,3.382l-0.039,1.662
	c-0.012,0.495-0.016,1.07-0.011,1.723l1.903-7.589c0.066-0.276,0.188-0.412,0.366-0.408c-0.02,0,0.192,0.054,0.635,0.164
	c0.443,0.11,0.683,0.175,0.723,0.196c0.195,0.123,0.289,0.353,0.281,0.69c-0.003,0.119-0.077,0.702-0.22,1.747
	c-0.165,1.125-0.259,2.123-0.279,2.993c-0.081,3.385,0.349,5.267,1.291,5.646c0.421-0.188,0.928-1.503,1.52-3.944
	c0.045-0.237,0.146-0.354,0.306-0.35C126.302,63.344,126.4,63.416,126.397,63.554"/>
<path fill="#E90E8D" d="M135.989,63.634c-0.019,0.792-0.201,1.788-0.547,2.987c-0.452,1.535-0.945,2.294-1.479,2.281
	c-0.932-0.022-1.693-0.811-2.291-2.371c-0.41-1.058-0.689-2.233-0.836-3.525c-0.445,3.693-1.152,5.527-2.122,5.504
	c-0.534-0.013-1.053-0.271-1.556-0.779c-1.334-1.339-1.962-3.651-1.884-6.936c0.01-0.416,0.082-0.969,0.217-1.659
	c0.272-1.419,0.738-2.705,1.399-3.859c0.93-1.62,1.751-2.423,2.464-2.406c0.395,0.009,0.991,0.326,1.789,0.95
	c0.797,0.621,1.192,1.072,1.185,1.349c-0.003,0.159-0.085,0.235-0.242,0.231c-0.02,0-0.209-0.172-0.567-0.517
	c-0.359-0.345-0.686-0.522-0.983-0.529c-0.159-0.004-0.357,0.061-0.599,0.194c-1.004,0.57-1.784,1.739-2.341,3.509
	c-0.468,1.374-0.721,2.815-0.757,4.318c-0.044,1.881,0.218,3.372,0.785,4.475c0.303,0.602,0.544,0.905,0.722,0.909
	c0.138,0.003,0.31-0.141,0.515-0.433c0.799-1.111,1.404-4.067,1.815-8.869c0.083-0.969,0.202-1.451,0.361-1.448
	c0.376,0.009,0.742,0.078,1.095,0.205c0.472,0.17,0.702,0.414,0.695,0.731c-0.009,0.358-0.047,0.903-0.112,1.636
	c-0.068,0.734-0.106,1.278-0.114,1.636c-0.03,1.25,0.03,2.453,0.182,3.609c0.237,1.655,0.629,2.675,1.174,3.066
	c0.511-0.685,0.956-1.91,1.335-3.676c0.134-0.635,0.27-0.95,0.409-0.947C135.899,63.275,135.995,63.396,135.989,63.634"/>
<path fill="#E90E8D" d="M184.557,82.02c0.983,0,1.866-0.688,2.075-1.689c0.113-0.549,2.744-13.557-2.118-23.465
	c-0.67-1.401-2.654-3.932-5.791-4.423c-3.206-0.49-6.635,1.17-10.21,4.963l-0.107,0.123c-0.058,0.072-6.06,7.462-12.754,7.171
	c-3.267-0.141-6.275-2.209-8.942-6.145c-0.001-0.003-1.923-3.048-3.388-10.533c-0.224-1.15-1.334-1.909-2.489-1.674
	c-1.149,0.224-1.899,1.339-1.674,2.489c1.626,8.309,3.787,11.722,4.029,12.084c3.475,5.13,7.61,7.824,12.301,8.019
	c8.461,0.323,15.41-7.766,16.162-8.678c2.452-2.587,4.717-3.886,6.392-3.63c1.714,0.25,2.652,2.082,2.661,2.1
	c4.228,8.618,1.799,20.614,1.773,20.734c-0.239,1.146,0.497,2.271,1.645,2.51C184.267,82.006,184.413,82.02,184.557,82.02"/>
<path fill="#FFFFFF" d="M228.273,130.373v-46.23h-7.943c-1.562,0-2.343,1.054-2.343,3.158v4.784l-10.386-0.712V74.062h53.258v17.312
	l-10.389,0.712v-4.784c0-1.155-0.17-1.971-0.508-2.445c-0.341-0.474-1.155-0.713-2.444-0.713h-6.924v48.676l8.045,0.305v8.656
	h-28.718v-8.249l5.398-0.305C227.288,133.021,228.273,132.072,228.273,130.373"/>
<path fill="#FFFFFF" d="M314.218,141.779h-48.37v-8.248l3.359-0.306c1.969-0.204,2.953-1.153,2.953-2.853V83.022l-5.805-0.305
	v-8.656h46.64v16.904l-10.387,0.713v-4.072c0-1.153-0.171-1.969-0.509-2.445c-0.342-0.473-1.155-0.712-2.445-0.712h-15.07v17.414
	h23.523v10.386h-23.523v19.042h16.395c1.223,0,2.002-0.254,2.343-0.763c0.338-0.51,0.508-1.34,0.508-2.495v-5.092l10.389,0.712
	V141.779z"/>
<path fill="#FFFFFF" d="M6.313,129.865V83.022l-5.804-0.305v-8.656h24.643v8.249l-3.36,0.305c-1.97,0.203-2.953,1.29-2.953,3.258
	v46.945l5.804,0.305v8.656H0v-8.248l3.36-0.306c1.019-0.136,1.765-0.425,2.24-0.866C6.075,131.919,6.313,131.087,6.313,129.865"/>
<path fill="#FFFFFF" d="M85.437,118.052v18.433c-6.315,4.345-14.156,6.518-23.524,6.518c-9.369,0-16.684-2.937-21.944-8.81
	c-5.263-5.871-7.893-14.576-7.893-26.119c0-5.092,0.662-9.674,1.987-13.747c1.323-4.073,3.055-7.434,5.193-10.081
	c2.138-2.648,4.634-4.854,7.484-6.62c5.431-3.189,11.591-4.786,18.483-4.786c6.89,0,13.322,1.392,19.297,4.175v17.312l-10.387,0.713
	v-7.943c0-1.018-0.136-1.766-0.407-2.241c-0.749-1.287-3.837-1.935-9.266-1.935c-13.104,0-19.655,8.113-19.655,24.338
	c0,17.109,5.906,25.662,17.72,25.662c4.683,0,8.281-0.815,10.794-2.444v-15.173h-0.103l-7.841-0.305v-8.656H90.73v8.146
	l-2.341,0.204c-1.087,0.136-1.851,0.425-2.291,0.865C85.657,116,85.437,116.831,85.437,118.052"/>
<path fill="#FFFFFF" d="M96.534,141.779v-8.248l3.667-0.306c1.764-0.136,2.646-1.086,2.646-2.853V83.022l-5.803-0.305v-8.656h18.329
	l28.819,46.741h0.203v-37.78l-6.721-0.305v-8.656h24.847v8.249l-3.665,0.305c-1.63,0.137-2.445,1.188-2.445,3.157v56.007h-11.914
	l-29.429-47.453h-0.204v38.492l6.62,0.305v8.656H96.534z"/>
<rect x="177.373" y="74.241" fill="#E90E8D" width="15.558" height="67.534"/>
<polygon fill="#FFFFFF" points="148.982,45.648 155.196,26.614 148.489,30.036 151.889,12.04 140.509,26.061 129.658,0 
	129.129,28.349 114.353,22.955 125.498,38.198 115.116,41.44 133.801,49.379 128.474,43.101 135.283,41.203 129.097,34.898 
	135.262,37.378 134.301,25.284 139.563,37.602 144.203,28.876 142.646,39.438 149.248,35.597 "/>
<path fill="#FFFFFF" d="M48.665,160.599l0.559-0.051c0.288-0.034,0.491-0.137,0.491-0.475v-7.875l-0.965-0.051v-1.441h8.181v2.813
	l-1.728,0.119v-0.679c0-0.32-0.034-0.524-0.491-0.524h-2.93v2.998h4.166v1.728h-4.166v3.32l1.507,0.051v1.439h-4.624V160.599z"/>
<path fill="#FFFFFF" d="M60.692,158.313c0,1.659,0.864,2.149,2.219,2.149c1.355,0,2.202-0.676,2.202-2.065v-6.198l-0.983-0.051
	v-1.44h4.015v1.372l-0.559,0.05c-0.305,0.035-0.492,0.17-0.492,0.51v6.046c0,2.219-1.676,3.506-4.251,3.506
	c-2.777,0-4.2-1.117-4.2-3.776v-6.216l-0.983-0.051v-1.44h4.099v1.372l-0.559,0.05c-0.321,0.035-0.508,0.137-0.508,0.561V158.313z"
	/>
<path fill="#FFFFFF" d="M69.027,161.971v-1.372l0.559-0.051c0.288-0.034,0.491-0.137,0.491-0.475v-7.875l-0.965-0.051v-1.441h7.757
	v2.813l-1.727,0.119v-0.679c0-0.32-0.034-0.524-0.491-0.524h-2.507v2.896h3.912v1.729h-3.912v3.168h2.727
	c0.44,0,0.474-0.204,0.474-0.542v-0.848l1.727,0.118v3.016H69.027z"/>
<path fill="#FFFFFF" d="M78.293,161.971v-1.372l0.559-0.051c0.288-0.034,0.491-0.137,0.491-0.475v-7.875l-0.966-0.051v-1.441h4.083
	v1.372l-0.56,0.052c-0.287,0.033-0.49,0.136-0.49,0.542v7.555h2.811c0.356,0,0.389-0.221,0.389-0.542v-1.187l1.728,0.118v3.354
	H78.293z"/>
<rect x="91.674" y="149.318" fill="#FFFFFF" width="1.762" height="14.143"/>
<path fill="#FFFFFF" d="M98.84,160.599l0.559-0.051c0.288-0.034,0.491-0.137,0.491-0.475v-7.875l-0.965-0.051v-1.441h8.181v2.813
	l-1.728,0.119v-0.679c0-0.32-0.034-0.524-0.491-0.524h-2.93v2.998h4.166v1.728h-4.166v3.32l1.507,0.051v1.439H98.84V160.599z"/>
<path fill="#FFFFFF" d="M108.005,161.971v-1.372l0.559-0.051c0.288-0.034,0.491-0.137,0.491-0.475v-7.875l-0.966-0.051v-1.441h4.083
	v1.372l-0.56,0.052c-0.287,0.033-0.49,0.136-0.49,0.542v7.555h2.811c0.356,0,0.389-0.221,0.389-0.542v-1.187l1.728,0.118v3.354
	H108.005z"/>
<path fill="#FFFFFF" d="M120.438,152.181l-1.067-0.103v-1.372h3.879l3.455,9.774h0.017l0.965,0.051v1.439h-4.37v-1.372l0.644-0.051
	c0.356-0.034,0.525-0.137,0.407-0.509l-0.356-1.05h-3.963l-0.509,1.491l1.017,0.051v1.439h-3.913v-1.372l0.559-0.051
	c0.288-0.034,0.39-0.152,0.508-0.475L120.438,152.181z M120.455,157.432h3.15l-1.524-4.827h-0.051L120.455,157.432z"/>
<path fill="#FFFFFF" d="M133.888,158.82c0-1.067-0.966-1.372-2.151-1.693c-1.677-0.458-3.235-1.135-3.235-3.303
	c0-2.066,1.592-3.32,3.93-3.32c1.117,0,2.168,0.221,3.184,0.694v2.541l-1.728,0.118v-0.982c0-0.322-0.051-0.457-0.355-0.559
	c-0.323-0.102-0.763-0.137-1.101-0.137c-1,0-1.779,0.408-1.779,1.457c0,1.051,0.982,1.339,2.253,1.729
	c1.541,0.491,3.167,1.185,3.167,3.37c0,2.235-1.761,3.455-4.099,3.455c-1.355,0-2.405-0.221-3.421-0.694v-2.676l1.728-0.118v1.033
	c0,0.32,0.05,0.457,0.355,0.559c0.322,0.102,0.763,0.152,1.22,0.152C132.974,160.446,133.888,160.091,133.888,158.82"/>
<path fill="#FFFFFF" d="M145.068,157.059h-4.794v3.422l0.982,0.051v1.439h-4.098v-1.372l0.558-0.052
	c0.289-0.033,0.492-0.135,0.492-0.474v-7.875l-0.965-0.051v-1.441h4.098v1.373l-0.558,0.05c-0.322,0.034-0.509,0.137-0.509,0.561
	v2.625h4.794v-3.116l-0.966-0.051v-1.441h4.099v1.373l-0.559,0.05c-0.288,0.034-0.491,0.137-0.491,0.542v7.81l0.965,0.051v1.439
	h-4.099v-1.372l0.56-0.052c0.321-0.033,0.491-0.135,0.491-0.558V157.059z"/>
<rect x="153.504" y="149.318" fill="#FFFFFF" width="1.762" height="14.143"/>
<path fill="#FFFFFF" d="M165.531,150.707c1.914,0,3.659,0.575,3.659,2.828c0,1.117-0.643,1.897-1.558,2.371
	c1.27,0.322,2.134,1.202,2.134,2.694c0,2.201-1.525,3.37-4.336,3.37h-4.759v-1.372l0.558-0.051c0.288-0.034,0.492-0.136,0.492-0.476
	v-7.875l-0.966-0.05v-1.44H165.531z M163.787,155.331h1.254c1.456,0,2.05-0.679,2.05-1.575c0-1.219-0.83-1.49-1.932-1.49h-1.372
	V155.331z M163.787,160.379h1.593c1.66,0,2.202-0.764,2.202-1.796c0-1.136-0.779-1.744-2.117-1.744h-1.678V160.379z"/>
<path fill="#FFFFFF" d="M173.696,158.313c0,1.659,0.864,2.149,2.22,2.149c1.354,0,2.202-0.676,2.202-2.065v-6.198l-0.983-0.051
	v-1.44h4.014v1.372l-0.558,0.05c-0.305,0.035-0.492,0.17-0.492,0.51v6.046c0,2.219-1.676,3.506-4.251,3.506
	c-2.778,0-4.2-1.117-4.2-3.776v-6.216l-0.981-0.051v-1.44h4.098v1.372l-0.559,0.05c-0.321,0.035-0.509,0.137-0.509,0.561V158.313z"
	/>
<path fill="#FFFFFF" d="M181.998,160.599l0.56-0.051c0.288-0.034,0.49-0.136,0.49-0.476v-7.875l-0.965-0.05v-1.44h4.624
	c2.489,0,4.065,0.813,4.065,3.116c0,1.694-1.102,2.609-2.033,2.981c0.457,0.17,0.711,0.457,0.965,1.033l1.221,2.659l0.966,0.033
	v1.44h-4.185v-1.372l0.491-0.051c0.39-0.051,0.474-0.203,0.322-0.542l-0.796-1.693c-0.238-0.525-0.475-0.78-1.067-0.78h-1.542v2.948
	l1.103,0.05v1.44h-4.219V160.599z M186.587,155.924c1.439,0,2.083-0.66,2.083-1.863c0-1.523-0.88-1.71-2.319-1.71h-1.237v3.573
	H186.587z"/>
<path fill="#FFFFFF" d="M192.602,160.599l0.609-0.051c0.288-0.017,0.441-0.137,0.441-0.475v-7.875l-0.966-0.051v-1.441h3.05
	l4.793,7.775h0.033v-6.283l-1.117-0.051v-1.441h4.133v1.372l-0.611,0.052c-0.254,0.018-0.406,0.17-0.406,0.525v9.315h-1.98
	l-4.896-7.894h-0.033v6.403l1.1,0.051v1.439h-4.149V160.599z"/>
<rect x="208.83" y="149.318" fill="#FFFFFF" width="1.762" height="14.143"/>
<path fill="#FFFFFF" d="M219.112,152.384h-1.32c-0.356,0-0.391,0.236-0.391,0.524v0.796l-1.727-0.117v-2.881h8.858v2.881
	l-1.729,0.117v-0.796c0-0.32-0.034-0.524-0.491-0.524h-1.15v8.097l1.338,0.05v1.44h-4.777v-1.372l0.898-0.051
	c0.32-0.034,0.49-0.137,0.49-0.476V152.384z"/>
<path fill="#FFFFFF" d="M229.869,162.19c-3.016,0-4.911-1.964-4.911-5.826c0-4.336,2.726-5.861,5.097-5.861
	c2.524,0,4.794,1.56,4.794,5.861C234.848,160.243,232.833,162.19,229.869,162.19 M229.987,160.48c2.15,0,2.762-2.032,2.762-4.065
	c0-1.728-0.457-4.166-2.795-4.166c-2.168,0-2.879,2.016-2.879,4.031C227.075,158.21,227.548,160.48,229.987,160.48"/>
<path fill="#FFFFFF" d="M236.069,160.599l0.56-0.051c0.288-0.034,0.491-0.136,0.491-0.476v-7.875l-0.966-0.05v-1.44h4.624
	c2.489,0,4.065,0.813,4.065,3.116c0,1.694-1.101,2.609-2.033,2.981c0.457,0.17,0.711,0.457,0.965,1.033l1.221,2.659l0.966,0.033
	v1.44h-4.185v-1.372l0.491-0.051c0.39-0.051,0.475-0.203,0.322-0.542l-0.796-1.693c-0.238-0.525-0.475-0.78-1.067-0.78h-1.542v2.948
	l1.103,0.05v1.44h-4.219V160.599z M240.659,155.924c1.439,0,2.084-0.66,2.084-1.863c0-1.523-0.881-1.71-2.32-1.71h-1.237v3.573
	H240.659z"/>
<path fill="#FFFFFF" d="M252.127,152.181c-2.136,0-3.201,1.523-3.201,4.082c0,2.659,0.881,4.302,3.233,4.251
	c0.476,0,0.915-0.051,1.237-0.152c0.305-0.102,0.356-0.237,0.356-0.559v-1.354l1.728,0.118v2.929
	c-0.932,0.492-2.27,0.695-3.354,0.695c-3.438,0-5.318-1.931-5.318-5.792c0-4.421,2.71-5.895,5.318-5.895
	c0.998,0,2.168,0.221,3.184,0.694v2.879l-1.729,0.119v-1.322c0-0.32-0.051-0.457-0.354-0.558
	C252.905,152.215,252.466,152.181,252.127,152.181"/>
<path fill="#FFFFFF" d="M264.781,157.059h-4.794v3.422l0.983,0.051v1.439h-4.099v-1.372l0.558-0.052
	c0.289-0.033,0.492-0.135,0.492-0.474v-7.875l-0.965-0.051v-1.441h4.098v1.373l-0.558,0.05c-0.322,0.034-0.51,0.137-0.51,0.561
	v2.625h4.794v-3.116l-0.966-0.051v-1.441h4.1v1.373l-0.56,0.05c-0.288,0.034-0.491,0.137-0.491,0.542v7.81l0.966,0.051v1.439h-4.1
	v-1.372l0.561-0.052c0.32-0.033,0.49-0.135,0.49-0.558V157.059z"/>
</svg>
