<?xml version="1.0" encoding="utf-8"?>
<!-- Generator: Adobe Illustrator 19.1.0, SVG Export Plug-In . SVG Version: 6.00 Build 0)  -->
<svg version="1.1" id="Layer_1" xmlns="http://www.w3.org/2000/svg" xmlns:xlink="http://www.w3.org/1999/xlink" x="0px" y="0px"
	 viewBox="0 0 681.2 595.4" style="enable-background:new 0 0 681.2 595.4;" xml:space="preserve">
<style type="text/css">
	.st0{fill:#E90B8D;}
</style>
<g>
	<path class="st0" d="M243.5,269.9c-0.3,0.8-1.2,1.2-2.6,1.4c0,3.1,0.1,6,0.1,8.7l0.1,4c0,0,0,0.1,0.1,0.2c0.1,0.1,0.1,0.2,0.1,0.3
		c0,0.2-0.1,0.4-0.2,0.4c-0.1,0-0.2,0.1-0.4,0.1c-0.3,0-0.6-0.1-1-0.3c-1-0.4-1.5-1.1-1.5-2l0.1-2.8l0.1-8.4
		c-2.4,0.2-5.5,0.5-9.3,0.7c0,1.8,0,4.4,0.2,7.8c0.1,0.6,0.3,1.3,0.5,2.1c0.1,0.2,0.2,0.4,0.2,0.6c0,0.3-0.3,0.5-0.8,0.5
		c-0.8,0-1.4-0.4-2-1c-0.6-0.7-0.9-1.4-0.8-2.1c0.1-3.9,0.1-6.5,0.1-7.7c-0.8,0-1.2,0.1-1.3,0.1c-0.5,0-1.2-0.2-2.1-0.5
		c-1-0.4-1.5-0.8-1.4-1.2l0-0.1l0.1-0.1c0.1-0.1,1.8-0.3,4.9-0.6c0-3.3-0.1-8.3-0.2-15c-0.1-1.2-0.2-2.9-0.3-5.2
		c-0.2-0.4-0.3-0.6-0.3-0.8c0-0.1,0-0.2,0.1-0.3c0-0.1,0.2-0.1,0.4-0.1c0.5,0,1.2,0.2,2,0.4c1,0.4,1.5,0.7,1.5,1.1
		c0,0.6,0,1.3-0.1,2.2c-0.1,1.1-0.1,1.9-0.1,2.2c-0.1,2.7-0.2,5.6-0.2,8.8c-0.1,2.2-0.1,4.3-0.2,6.4l9.3-0.6c0.1-3.5,0-8.8-0.1-15.9
		c0-0.5,0-2.1-0.1-4.8c-0.1-2-0.1-3.6,0-4.8c0-0.1,0-0.1,0.1-0.1l0.1,0l0.1,0c0,0,0.4,0.1,1.1,0.3c1.4,0.4,2.1,0.8,2.1,1.4
		c-0.1,2.3-0.2,5.8-0.3,10.4c-0.2,4.6-0.3,8.1-0.3,10.4c0,1,0,2.1,0,3.3c0.6,0,1,0.1,1.4,0.1c0.7,0.1,1.1,0.3,1.1,0.5L243.5,269.9z"
		/>
	<path class="st0" d="M257,269.2c-0.1,5.2-1.1,9-3.1,11.4c-1.1,1.3-2.2,2-3.4,2c-2.5-0.1-4.4-1.6-5.6-4.5c-0.9-2.2-1.3-4.8-1.3-7.7
		c0-1.4,0.2-3.1,0.6-5.1c0.4-2.6,0.9-4.1,1.5-4.5c0.2-0.1,0.5-0.2,0.9-0.2c0.2,0,0.3,0,0.5,0.1c0.6-1.1,1.1-1.9,1.4-2.3
		c0.7-0.7,1.5-1.1,2.5-1c0.7,0,1.3,0.2,1.9,0.5C255.8,259.7,257.2,263.5,257,269.2z M254.6,269.8c0.1-5.7-0.7-9.4-2.5-11
		c-0.3-0.3-0.5-0.4-0.6-0.4c-0.2,0-0.5,0.1-0.8,0.3c-1.6,1.3-2.4,3.8-2.5,7.6c-0.1,2.3,0.3,4,1,5.2c0.1,0.1,0.3,0.4,0.7,0.8
		c0.4,0.4,0.6,0.7,0.6,0.8c0,0.3-0.3,0.4-0.8,0.4c-1.5,0-2.6-1.2-3.4-3.6l0,0.6c-0.1,2.1,0.1,4.1,0.6,5.8c0.6,2.3,1.6,3.9,3,4.8
		c0.4,0.2,0.6,0.3,0.8,0.3c0.2,0,0.4-0.1,0.7-0.3c1-0.8,1.9-2.6,2.5-5.3C254.3,274,254.5,271.9,254.6,269.8z"/>
	<path class="st0" d="M270.1,272c0,2.1-0.4,4.3-1.2,6.7c-1,3.2-2.2,4.8-3.7,4.7c-4.7-0.1-7-6.2-6.7-18.3c0-1.6,0.1-3.1,0.1-4.4
		c-0.5,0.1-0.8,0.1-0.9,0.1c-0.3,0-0.8-0.1-1.4-0.4c-0.6-0.2-0.9-0.5-0.9-0.7c0-0.1,0.3-0.2,0.9-0.3l2.6-0.3c0.2-2,0.4-4.9,0.8-8.9
		c0,0,0.1,0,0.2,0c0.2,0,0.4,0,0.7,0.1c1.5,0.4,2.3,0.9,2.4,1.5c-0.2,1.1-0.3,2.3-0.5,3.6c-0.2,1.1-0.3,2.2-0.4,3.3
		c3.7-0.3,5.6-0.5,5.5-0.5c0.2,0,0.3,0.1,0.3,0.2c0,0.4-0.4,0.7-1.2,0.9c0.1,0.1,0.1,0.1,0.1,0.2c0,0.2-0.1,0.4-0.4,0.6
		c-0.1,0.1-1.6,0.2-4.6,0.5c-0.2,1.8-0.3,3.3-0.3,4.5c-0.1,4,0,6.9,0.1,8.8c0.3,3.9,1.2,6.5,2.5,7.7c0.3,0.3,0.6,0.4,0.8,0.5
		c1.2-0.9,2.2-2.5,2.9-4.9c0.5-1.5,0.8-3.1,1.1-4.9c0.1-0.7,0.2-1,0.5-1C269.9,271.4,270.1,271.6,270.1,272z"/>
	<path d="M287.5,277.7c0,1.1-0.2,2.4-0.7,4c-0.5,2.1-1.2,3.1-1.9,3.1c-0.1,0-0.2,0-0.3,0c-1.4-0.3-2.3-1.6-2.9-4.1
		c-0.4-1.6-0.5-3.4-0.5-5.6c0-1.4,0.1-2.9,0.2-4.5c-0.8,4-1.3,7-1.6,9.1c-0.2,1.4-0.4,2.3-0.4,2.6c0,0.2,0,0.5,0,0.8
		c0,0.4,0,0.6,0,0.8c0,0.2-0.1,0.3-0.4,0.3c-0.7,0-1.1-0.2-1.4-0.6c-0.1-0.2-0.2-0.4-0.2-0.6c-0.1-1.5-0.4-6.1-0.7-13.7
		c-0.5,2.9-1,5.5-1.3,7.8c-0.4,3.2-0.7,5.4-0.7,6.7c0,0.1,0,0.5,0,1.1c0,0.1,0.1,0.2,0.1,0.2c0,0.1,0,0.1,0,0.1
		c0,0.1-0.2,0.2-0.4,0.2c-0.2,0-0.4-0.1-0.8-0.2c-0.4-0.1-0.6-0.3-0.7-0.4c-0.1-0.1-0.1-0.3-0.1-0.5c-0.1-3.4-0.3-8.4-0.6-15.2
		c-0.1-1.2-0.2-2.9-0.5-5.2c-0.1-0.3-0.2-0.5-0.3-0.5c-0.4,0-1,1-1.8,2.9c-0.8,1.8-1.1,3.1-1.2,3.7c0.1,0.1,0.1,0.2,0,0.3
		c-0.3,0-0.6-0.1-0.9-0.3c-0.3-0.2-0.5-0.4-0.4-0.7c0-0.2,0.2-0.7,0.5-1.6c0.4-1.1,0.9-2.1,1.4-3c0.8-1.4,1.6-2,2.2-2
		c0.8,0,1.4,0.5,1.8,1.3c0.9,1.8,1.4,7.1,1.4,15.9c0.1-0.7,0.2-1.8,0.5-3.5c0.3-2.4,0.8-5.4,1.4-9.2c0.1-0.5,0.2-1.3,0.4-2.3
		c0-0.1,0.1-0.1,0.2-0.1c0,0,0.3,0.1,0.7,0.2c0.7,0.2,1.1,0.4,1.3,0.5c0.1,0.2,0.2,0.6,0.2,1.3c-0.1,3.2,0,7.3,0.1,12.2
		c0.4-2.4,1.1-6.1,2.1-11l0.3-1.4c0-0.2,0.2-0.3,0.4-0.3c0.1,0,0.6,0.2,1.4,0.5c0.3,0.1,0.4,0.4,0.4,1l-0.2,1.5
		c-0.3,2.8-0.4,4.6-0.4,5.3c-0.1,5,0.4,8,1.6,9c0.5-0.1,1-1.1,1.5-2.8c0.1-0.4,0.3-1.5,0.7-3.4c0-0.2,0.2-0.3,0.4-0.2
		C287.4,277.2,287.5,277.4,287.5,277.7z"/>
	<path d="M296.9,278.8c0,0.8-0.2,1.8-0.5,3c-0.5,1.5-0.9,2.3-1.5,2.3c-0.9,0-1.7-0.8-2.3-2.4c-0.4-1.1-0.7-2.2-0.8-3.5
		c-0.4,3.7-1.2,5.5-2.1,5.5c-0.5,0-1.1-0.3-1.6-0.8c-1.3-1.3-2-3.7-1.9-6.9c0-0.4,0.1-1,0.2-1.7c0.3-1.4,0.7-2.7,1.4-3.9
		c0.9-1.6,1.7-2.4,2.5-2.4c0.4,0,1,0.3,1.8,1c0.8,0.6,1.2,1.1,1.2,1.3c0,0.2-0.1,0.2-0.2,0.2c0,0-0.2-0.2-0.6-0.5
		c-0.4-0.3-0.7-0.5-1-0.5c-0.2,0-0.4,0.1-0.6,0.2c-1,0.6-1.8,1.7-2.3,3.5c-0.5,1.4-0.7,2.8-0.8,4.3c0,1.9,0.2,3.4,0.8,4.5
		c0.3,0.6,0.5,0.9,0.7,0.9c0.1,0,0.3-0.1,0.5-0.4c0.8-1.1,1.4-4.1,1.8-8.9c0.1-1,0.2-1.5,0.4-1.4c0.4,0,0.7,0.1,1.1,0.2
		c0.5,0.2,0.7,0.4,0.7,0.7c0,0.4,0,0.9-0.1,1.6c-0.1,0.7-0.1,1.3-0.1,1.6c0,1.3,0,2.5,0.2,3.6c0.2,1.7,0.6,2.7,1.2,3.1
		c0.5-0.7,1-1.9,1.3-3.7c0.1-0.6,0.3-1,0.4-0.9C296.8,278.4,296.9,278.5,296.9,278.8z"/>
	<path d="M309.4,279.2c0,0.7-0.2,1.6-0.5,2.6c-0.4,1.3-0.8,2.1-1.2,2.2c-0.1,0-0.2,0.1-0.5,0c-1.2,0-2-0.9-2.5-2.7
		c-0.3-1.1-0.4-2.5-0.4-4.1c0-0.9,0.1-1.7,0.1-2.4c-1.1,4-1.7,6.8-1.7,8.2c0,0.2,0,0.4,0.2,0.8c0,0.2-0.1,0.2-0.2,0.2
		c-0.3,0-0.6-0.1-0.9-0.3c-0.3-0.2-0.5-0.4-0.6-0.7c-0.1-0.3-0.2-3.2-0.3-8.7l-1.3,5c-0.5,1.9-0.7,3-0.7,3.2c0,0.2,0,0.4,0.1,0.7
		c0,0.3,0.1,0.5,0.1,0.7c0,0.2-0.1,0.2-0.3,0.2c-0.1,0-0.3,0-0.5-0.1c-0.8-0.3-1.2-0.8-1.2-1.3l-0.1-6.5c-0.1,1.1-0.2,1.9-0.2,2.3
		c-0.1,1.3-0.3,2-0.4,2.1c0,0-0.1,0-0.1,0c-0.4,0-0.5-0.2-0.4-0.5c0.1-0.4,0.2-0.8,0.3-1.2c0.4-2,0.6-4.6,0.7-7.7c0-0.7,0-1.3,0-1.8
		c0-0.1-0.1-0.3-0.1-0.6l0.1-0.1c0,0,0.3,0.1,0.9,0.2c0.5,0.1,0.7,0.3,0.9,0.5c0.1,0.2,0.2,0.5,0.2,1l-0.1,9.2l2.1-8.4
		c0.1-0.5,0.3-0.8,0.6-0.8c0,0,0.1,0,0.3,0.1c0.5,0.1,0.8,0.2,0.9,0.3c0.3,0.2,0.5,0.4,0.5,0.7c0-0.1,0,0.3-0.1,1.2
		c-0.1,1.1-0.1,2.2-0.2,3.4l0,1.7c0,0.5,0,1.1,0,1.7l1.9-7.6c0.1-0.3,0.2-0.4,0.4-0.4c0,0,0.2,0.1,0.6,0.2c0.4,0.1,0.7,0.2,0.7,0.2
		c0.2,0.1,0.3,0.4,0.3,0.7c0,0.1-0.1,0.7-0.2,1.7c-0.2,1.1-0.3,2.1-0.3,3c-0.1,3.4,0.3,5.3,1.3,5.6c0.4-0.2,0.9-1.5,1.5-3.9
		c0-0.2,0.1-0.4,0.3-0.3C309.3,279,309.4,279.1,309.4,279.2z"/>
	<path d="M319,279.3c0,0.8-0.2,1.8-0.5,3c-0.5,1.5-0.9,2.3-1.5,2.3c-0.9,0-1.7-0.8-2.3-2.4c-0.4-1.1-0.7-2.2-0.8-3.5
		c-0.4,3.7-1.2,5.5-2.1,5.5c-0.5,0-1.1-0.3-1.6-0.8c-1.3-1.3-2-3.7-1.9-6.9c0-0.4,0.1-1,0.2-1.7c0.3-1.4,0.7-2.7,1.4-3.9
		c0.9-1.6,1.8-2.4,2.5-2.4c0.4,0,1,0.3,1.8,1c0.8,0.6,1.2,1.1,1.2,1.3c0,0.2-0.1,0.2-0.2,0.2c0,0-0.2-0.2-0.6-0.5
		c-0.4-0.3-0.7-0.5-1-0.5c-0.2,0-0.4,0.1-0.6,0.2c-1,0.6-1.8,1.7-2.3,3.5c-0.5,1.4-0.7,2.8-0.8,4.3c0,1.9,0.2,3.4,0.8,4.5
		c0.3,0.6,0.5,0.9,0.7,0.9c0.1,0,0.3-0.1,0.5-0.4c0.8-1.1,1.4-4.1,1.8-8.9c0.1-1,0.2-1.5,0.4-1.4c0.4,0,0.7,0.1,1.1,0.2
		c0.5,0.2,0.7,0.4,0.7,0.7c0,0.4,0,0.9-0.1,1.6c-0.1,0.7-0.1,1.3-0.1,1.6c0,1.3,0,2.5,0.2,3.6c0.2,1.7,0.6,2.7,1.2,3.1
		c0.5-0.7,1-1.9,1.3-3.7c0.1-0.6,0.3-1,0.4-0.9C318.9,279,319,279.1,319,279.3z"/>
</g>
<g>
	<g>
		<path d="M367.6,297.7c1,0,1.9-0.7,2.1-1.7c0.1-0.5,2.7-13.6-2.1-23.5c-0.7-1.4-2.7-3.9-5.8-4.4c-3.2-0.5-6.6,1.2-10.2,5l-0.1,0.1
			c-0.1,0.1-6.1,7.5-12.8,7.2c-3.3-0.1-6.3-2.2-8.9-6.1c0,0-1.9-3-3.4-10.5c-0.2-1.2-1.3-1.9-2.5-1.7c-1.1,0.2-1.9,1.3-1.7,2.5
			c1.6,8.3,3.8,11.7,4,12.1c3.5,5.1,7.6,7.8,12.3,8c8.5,0.3,15.4-7.8,16.2-8.7c2.5-2.6,4.7-3.9,6.4-3.6c1.7,0.2,2.7,2.1,2.7,2.1
			c4.2,8.6,1.8,20.6,1.8,20.7c-0.2,1.1,0.5,2.3,1.6,2.5C367.3,297.7,367.5,297.7,367.6,297.7z"/>
	</g>
</g>
<g>
	<g>
		<path class="st0" d="M411.3,346.1v-46.2h-7.9c-1.6,0-2.3,1.1-2.3,3.2v4.8l-10.4-0.7v-17.3h53.3v17.3l-10.4,0.7V303
			c0-1.2-0.2-2-0.5-2.4c-0.3-0.5-1.2-0.7-2.4-0.7h-6.9v48.7l8,0.3v8.7H403v-8.2l5.4-0.3C410.3,348.7,411.3,347.8,411.3,346.1z"/>
		<path class="st0" d="M497.3,357.5h-48.4v-8.2l3.4-0.3c2-0.2,3-1.2,3-2.9v-47.4l-5.8-0.3v-8.7H496v16.9l-10.4,0.7v-4.1
			c0-1.2-0.2-2-0.5-2.4c-0.3-0.5-1.2-0.7-2.4-0.7h-15.1v17.4h23.5v10.4h-23.5v19H484c1.2,0,2-0.3,2.3-0.8c0.3-0.5,0.5-1.3,0.5-2.5
			v-5.1l10.4,0.7V357.5z"/>
	</g>
	<g>
		<path class="st0" d="M189.4,345.5v-46.8l-5.8-0.3v-8.7h24.6v8.2l-3.4,0.3c-2,0.2-3,1.3-3,3.3v46.9l5.8,0.3v8.7H183v-8.2l3.4-0.3
			c1-0.1,1.8-0.4,2.2-0.9C189.1,347.6,189.4,346.8,189.4,345.5z"/>
		<path class="st0" d="M268.5,333.7v18.4c-6.3,4.3-14.2,6.5-23.5,6.5c-9.4,0-16.7-2.9-21.9-8.8c-5.3-5.9-7.9-14.6-7.9-26.1
			c0-5.1,0.7-9.7,2-13.7c1.3-4.1,3.1-7.4,5.2-10.1c2.1-2.6,4.6-4.9,7.5-6.6c5.4-3.2,11.6-4.8,18.5-4.8c6.9,0,13.3,1.4,19.3,4.2V310
			l-10.4,0.7v-7.9c0-1-0.1-1.8-0.4-2.2c-0.7-1.3-3.8-1.9-9.3-1.9c-13.1,0-19.7,8.1-19.7,24.3c0,17.1,5.9,25.7,17.7,25.7
			c4.7,0,8.3-0.8,10.8-2.4V331h-0.1l-7.8-0.3V322h25.4v8.1l-2.3,0.2c-1.1,0.1-1.9,0.4-2.3,0.9C268.7,331.7,268.5,332.5,268.5,333.7z
			"/>
		<path class="st0" d="M279.6,357.5v-8.2l3.7-0.3c1.8-0.1,2.6-1.1,2.6-2.9v-47.4l-5.8-0.3v-8.7h18.3l28.8,46.7h0.2v-37.8l-6.7-0.3
			v-8.7h24.8v8.2l-3.7,0.3c-1.6,0.1-2.4,1.2-2.4,3.2v56h-11.9L298.1,310h-0.2v38.5l6.6,0.3v8.7H279.6z"/>
	</g>
	<rect x="360.4" y="289.9" width="15.6" height="67.5"/>
</g>
<polygon class="st0" points="332,261.3 338.2,242.3 331.5,245.7 334.9,227.7 323.6,241.7 312.7,215.7 312.2,244 297.4,238.6 
	308.5,253.9 298.2,257.1 316.8,265.1 311.5,258.8 318.3,256.9 312.1,250.6 318.3,253.1 317.3,241 322.6,253.3 327.2,244.6 
	325.7,255.1 332.3,251.3 "/>
</svg>
