<?xml version="1.0" encoding="utf-8"?>
<!-- Generator: Adobe Illustrator 12.0.0, SVG Export Plug-In . SVG Version: 6.00 Build 51448)  -->
<!DOCTYPE svg PUBLIC "-//W3C//DTD SVG 1.1//EN" "http://www.w3.org/Graphics/SVG/1.1/DTD/svg11.dtd" [
	<!ENTITY ns_svg "http://www.w3.org/2000/svg">
	<!ENTITY ns_xlink "http://www.w3.org/1999/xlink">
]>
<svg  version="1.1" id="Layer_1" xmlns="&ns_svg;" xmlns:xlink="&ns_xlink;" width="185.821" height="156.204"
	 viewBox="0 0 185.821 156.204" overflow="visible" enable-background="new 0 0 185.821 156.204" xml:space="preserve">
<path fill="#FFFFFF" d="M185.735,97.212c0,0-1.153-1.004-1.391,0.885c0,0-0.369,2.014-1.543,1.989c0,0-1.913-9.336-4.5-9.231
	c0,0-2.483,0.207-3.682,4.423c0,0-2.285-2.83-3.789-6.532c1.54,0.933,3.59,1.74,4.884,1.899c0,0,1.771,0.48,2.439-4.755
	c0,0,0.392-1.898,0.704-2.493c0,0,0.334-0.696-0.363-1.018c0,0-0.864-0.69-1.545-0.345l-0.711,0.323l-0.27,0.648l0.561,1.251
	l0.508,0.446c0,0-1.27,3.009-2.418,2.603c0,0-2.939-0.741-5.025-3.479c-0.082-1.03-0.049-2.063,0.18-3.071
	c0,0,9.625,1.51,9.812-4.16l2.62-0.468c0,0-6.795-5.625-6.399-8.879c0,0-2.144-3.569-5.388-4.292c0,0,1.986,1.61,1.9,2.587
	c0,0-4.174-3.092-7.979-2.193c0,0,2.988,0.65,2.583,1.293c0,0-6.491-1.509-7.569,3.036c0,0,1.731-1.594,3.156-1.107
	c0,0-2.242,1.126-1.953,2.894c0,0,1.524-1.142,2.484-0.272c0,0-2.701,1.18-1.971,6.742c0,0,0.7-2.268,2.306-1.06
	c0,0,0.281,2.094,3.629,4.254c0,0-0.784,3.113-2.343,2.755c0,0-4.59-5.057-8.705-4.754c0,0-2.436-0.17-1.766,6.226
	c0,0-0.013,2.351-0.245,3.126c0,0-0.234,0.908,0.675,1.123c0,0,1.188,0.614,1.917,0.043l0.765-0.553l0.166-0.834l-0.964-1.354
	l-0.706-0.406c0,0,0.606-3.967,2.219-3.149c0,0,2.152,3.112,4.358,3.617c0,0-4.042,5.98-1.36,11.778c0,0-1.631-0.034-2.19,1.78
	c0,0-1.13-2.111-4.395-2.051c0,0-0.697-0.93-1.497-0.162c0,0,0.187,3.591-0.105,5.02c0,0,1.703-0.353,1.701-3.354l4.592,4.927
	c0,0,0.887,1.257,2.807,0.059c0,0,8.373-7.163,14.98-1.816l0.067-3.211c0,0,3.62,1.514,6.276,5.484
	C183.253,103.422,186.373,100.945,185.735,97.212"/>
<path fill="#E90E8D" d="M41.074,110.726c-0.519,1.438-2.142,2.372-4.866,2.808c0.145,5.8,0.363,11.261,0.658,16.373l0.279,7.58
	c0,0.062,0.061,0.187,0.184,0.375c0.125,0.186,0.189,0.343,0.189,0.467c0,0.437-0.111,0.701-0.335,0.796
	c-0.221,0.092-0.456,0.14-0.71,0.14c-0.507,0-1.144-0.154-1.902-0.468c-1.901-0.749-2.886-1.994-2.947-3.745v-5.237l-0.095-15.718
	c-4.469,0.561-10.266,1.155-17.402,1.778c0,3.431,0.219,8.328,0.655,14.688c0.189,1.063,0.529,2.372,1.029,3.929
	c0.246,0.374,0.375,0.751,0.375,1.123c0,0.624-0.474,0.938-1.423,0.938c-1.455,0-2.734-0.61-3.841-1.824
	c-1.108-1.217-1.66-2.542-1.66-3.979c0-7.36-0.028-12.162-0.09-14.406c-1.422,0.125-2.258,0.184-2.504,0.184
	c-0.987,0-2.284-0.309-3.893-0.936C0.924,114.907,0,114.158,0,113.347v-0.186l0.095-0.281c0.25-0.25,3.305-0.717,9.167-1.405
	c-0.204-6.236-0.55-15.593-1.031-28.067c-0.184-2.184-0.434-5.458-0.747-9.825c-0.375-0.685-0.56-1.184-0.56-1.497
	c0-0.248,0.029-0.453,0.091-0.609c0.063-0.154,0.313-0.232,0.75-0.232c0.938,0,2.184,0.25,3.743,0.747
	c1.93,0.625,2.9,1.28,2.9,1.965c0,1.063-0.024,2.465-0.069,4.21c-0.05,2.123-0.096,3.525-0.142,4.209
	c-0.046,4.993-0.07,10.48-0.07,16.467v12.072l17.497-1.499c-0.062-6.549-0.346-16.467-0.842-29.751c0-0.874-0.154-3.899-0.469-9.077
	c-0.185-3.68-0.279-6.704-0.279-9.076c0-0.123,0.029-0.217,0.094-0.28l0.093-0.093l0.184-0.096c0.066,0,0.779,0.159,2.152,0.469
	c2.684,0.624,4.025,1.497,4.025,2.62c0,4.368-0.063,10.899-0.188,19.601c-0.124,8.701-0.186,15.205-0.186,19.508
	c0,1.872,0.031,3.931,0.094,6.175c1.058,0.064,1.93,0.128,2.62,0.188c1.31,0.187,2.024,0.468,2.152,0.842V110.726z"/>
<path fill="#E90E8D" d="M66.337,108.667c0,9.795-1.748,17.002-5.242,21.614c-1.931,2.558-4.055,3.835-6.362,3.835
	c-4.739,0-8.326-2.74-10.758-8.233c-1.812-4.178-2.715-8.982-2.715-14.408c0-2.558,0.284-5.769,0.842-9.636
	c0.688-4.99,1.53-7.827,2.527-8.515c0.437-0.247,0.998-0.375,1.685-0.375c0.313,0,0.655,0.064,1.03,0.187
	c1.058-2.181,1.931-3.646,2.618-4.396c1.249-1.371,2.776-2.059,4.587-2.059c1.309,0,2.492,0.311,3.553,0.935
	C63.59,90.985,66.337,98.002,66.337,108.667 M61.749,109.98c0-10.73-1.746-17.591-5.24-20.586c-0.561-0.497-0.934-0.749-1.12-0.749
	c-0.438,0-0.907,0.221-1.403,0.656c-2.932,2.56-4.398,7.33-4.398,14.315c0,4.241,0.687,7.484,2.058,9.73
	c0.125,0.187,0.578,0.688,1.358,1.496c0.779,0.813,1.169,1.312,1.169,1.5c0,0.499-0.499,0.746-1.497,0.746
	c-2.747,0-4.899-2.183-6.457-6.549v1.123c-0.063,3.992,0.377,7.642,1.313,10.948c1.245,4.363,3.212,7.327,5.893,8.887
	c0.688,0.374,1.217,0.56,1.592,0.56c0.374,0,0.81-0.186,1.311-0.56c1.932-1.56,3.398-4.898,4.394-10.011
	C61.408,117.807,61.749,113.971,61.749,109.98"/>
<path fill="#E90E8D" d="M91.032,113.347c0,3.931-0.623,8.141-1.869,12.632c-1.688,6.05-3.9,9.072-6.645,9.072
	c-8.917,0-13.377-11.351-13.377-34.057v-8.23c-0.925,0.125-1.508,0.185-1.754,0.185c-0.611,0-1.504-0.2-2.671-0.606
	c-1.168-0.404-1.753-0.858-1.753-1.357c0-0.187,0.563-0.375,1.685-0.561l4.774-0.749c0.249-3.679,0.623-9.23,1.12-16.652
	c0.062,0,0.188-0.033,0.374-0.095c0.312,0,0.75,0.062,1.309,0.187c2.871,0.625,4.365,1.499,4.491,2.621
	c-0.249,2.057-0.53,4.336-0.843,6.829c-0.248,2.059-0.435,4.149-0.56,6.269c6.985-0.811,10.448-1.217,10.388-1.217
	c0.436,0,0.654,0.128,0.654,0.375c0,0.688-0.719,1.277-2.152,1.779c0.123,0.125,0.189,0.25,0.189,0.372
	c0,0.438-0.223,0.813-0.657,1.123c-0.187,0.125-3.059,0.499-8.608,1.123c-0.248,3.368-0.373,6.207-0.373,8.513
	c0,7.487,0.219,12.975,0.654,16.467c0.808,7.362,2.494,12.167,5.051,14.411c0.625,0.499,1.154,0.778,1.592,0.842
	c2.184-1.684,3.93-4.772,5.24-9.264c0.809-2.808,1.432-5.862,1.871-9.169c0.124-1.309,0.404-1.965,0.842-1.965
	C90.69,112.224,91.032,112.598,91.032,113.347"/>
<path fill="#FFFFFF" d="M123.914,123.296c0,2.045-0.354,4.536-1.059,7.472c-0.892,3.901-2.045,5.854-3.456,5.854
	c-0.149,0-0.355-0.019-0.614-0.056c-2.601-0.446-4.46-2.991-5.575-7.639c-0.743-2.972-1.115-6.446-1.115-10.425
	c0-2.64,0.057-5.444,0.168-8.419c-1.265,7.583-2.156,13.287-2.676,17.114c-0.373,2.678-0.559,4.332-0.559,4.964
	c0,0.335,0.036,0.845,0.113,1.533c0.072,0.688,0.11,1.197,0.11,1.532s-0.241,0.502-0.726,0.502c-1.3,0-2.156-0.354-2.563-1.06
	c-0.225-0.332-0.354-0.726-0.391-1.169c-0.332-2.9-0.955-11.447-1.873-25.644c-0.873,5.536-1.575,10.441-2.107,14.712
	c-0.692,5.949-1.037,10.17-1.037,12.658c0,0.26,0.037,0.93,0.111,2.008c0.074,0.148,0.111,0.298,0.111,0.446
	c0,0.111-0.019,0.186-0.056,0.223c-0.038,0.261-0.316,0.391-0.835,0.391c-0.336,0-0.848-0.111-1.533-0.335
	c-0.69-0.223-1.125-0.454-1.313-0.695c-0.187-0.242-0.279-0.55-0.279-0.922c-0.297-6.319-0.891-15.813-1.782-28.487
	c-0.188-2.193-0.577-5.444-1.171-9.758c-0.112-0.63-0.318-0.945-0.613-0.945c-0.744,0-1.84,1.859-3.29,5.574
	c-1.339,3.493-2.005,5.798-2.005,6.914c0.26,0.259,0.24,0.443-0.058,0.555c-0.521,0-1.067-0.175-1.646-0.528
	c-0.574-0.354-0.863-0.771-0.863-1.254c0-0.372,0.279-1.395,0.837-3.067c0.669-2.042,1.505-3.92,2.509-5.631
	c1.45-2.6,2.823-3.901,4.125-3.901c1.485,0,2.619,0.8,3.4,2.396c1.785,3.421,2.881,13.344,3.291,29.773
	c0.078-1.228,0.316-3.397,0.715-6.518c0.514-4.46,1.244-10.223,2.195-17.288c0.114-0.964,0.318-2.396,0.615-4.292
	c0.04-0.114,0.188-0.17,0.447-0.17c0.073,0,0.501,0.094,1.281,0.279c1.339,0.335,2.128,0.65,2.371,0.949
	c0.242,0.296,0.363,1.133,0.363,2.509c0,6.021,0.24,13.622,0.725,22.804c0.589-4.573,1.729-11.506,3.42-20.801l0.517-2.563
	c0.073-0.405,0.296-0.61,0.669-0.61c0.26,0,1.133,0.278,2.623,0.836c0.559,0.187,0.838,0.818,0.838,1.894l-0.223,2.733
	c-0.373,5.277-0.558,8.587-0.558,9.923c0,9.44,1.133,15.054,3.401,16.835c1.002-0.257,1.896-2.023,2.676-5.296
	c0.186-0.78,0.556-2.916,1.115-6.411c0.072-0.406,0.314-0.555,0.724-0.446C123.745,122.425,123.914,122.739,123.914,123.296"/>
<path fill="#FFFFFF" d="M141.53,124.97c0,1.487-0.297,3.364-0.891,5.63c-0.782,2.9-1.674,4.348-2.678,4.348
	c-1.746,0-3.215-1.447-4.402-4.348c-0.818-1.968-1.394-4.161-1.729-6.578c-0.669,6.95-1.914,10.424-3.735,10.424
	c-1.004,0-1.987-0.462-2.954-1.392c-2.564-2.454-3.846-6.765-3.846-12.935c0-0.78,0.108-1.821,0.332-3.123
	c0.445-2.675,1.264-5.109,2.455-7.304c1.672-3.083,3.176-4.627,4.514-4.627c0.743,0,1.876,0.568,3.4,1.703
	c1.524,1.131,2.287,1.96,2.287,2.48c0,0.298-0.149,0.443-0.445,0.443c-0.039,0-0.4-0.313-1.089-0.945
	c-0.688-0.632-1.31-0.948-1.868-0.948c-0.297,0-0.668,0.13-1.113,0.391c-1.86,1.115-3.271,3.345-4.238,6.69
	c-0.818,2.6-1.227,5.314-1.227,8.138c0,3.532,0.559,6.318,1.672,8.363c0.596,1.115,1.061,1.673,1.396,1.673
	c0.259,0,0.574-0.278,0.945-0.836c1.451-2.12,2.454-7.694,3.012-16.725c0.111-1.822,0.316-2.733,0.613-2.733
	c0.704,0,1.394,0.112,2.063,0.335c0.891,0.298,1.338,0.746,1.338,1.341c0,0.672-0.045,1.697-0.14,3.076
	c-0.093,1.381-0.14,2.403-0.14,3.075c0,2.348,0.168,4.603,0.502,6.765c0.521,3.095,1.301,4.993,2.343,5.702
	c0.929-1.31,1.708-3.628,2.34-6.958c0.224-1.198,0.464-1.796,0.726-1.796C141.346,124.3,141.53,124.524,141.53,124.97"/>
<path fill="#FFFFFF" d="M165.171,125.249c0,1.265-0.262,2.919-0.781,4.961c-0.635,2.492-1.338,3.904-2.119,4.236
	c-0.151,0.077-0.447,0.112-0.893,0.112c-2.267,0-3.884-1.652-4.85-4.962c-0.595-2.079-0.893-4.645-0.893-7.694
	c0-1.633,0.057-3.157,0.168-4.57c-1.932,7.582-2.898,12.748-2.898,15.5c0,0.297,0.111,0.799,0.334,1.506
	c0,0.297-0.15,0.443-0.449,0.443c-0.523,0-1.084-0.186-1.682-0.558c-0.598-0.369-0.98-0.808-1.149-1.31
	c-0.167-0.502-0.477-5.92-0.924-16.257l-2.121,9.532c-0.766,3.572-1.145,5.581-1.145,6.026c0,0.297,0.047,0.735,0.138,1.312
	c0.092,0.577,0.14,0.993,0.14,1.254c0,0.298-0.167,0.447-0.501,0.447c-0.187,0-0.483-0.073-0.893-0.225
	c-1.523-0.592-2.305-1.392-2.341-2.396l-0.392-12.209c-0.111,2.117-0.205,3.588-0.277,4.403c-0.223,2.454-0.465,3.79-0.725,4.014
	c-0.039,0.039-0.111,0.056-0.224,0.056c-0.708,0-0.983-0.298-0.836-0.89c0.147-0.744,0.296-1.469,0.444-2.176
	c0.633-3.827,0.948-8.642,0.948-14.44c0-1.373-0.018-2.507-0.056-3.399c-0.073-0.26-0.165-0.65-0.277-1.171l0.168-0.11
	c0.036,0,0.592,0.129,1.671,0.39c0.854,0.186,1.394,0.464,1.617,0.836c0.222,0.372,0.335,1.021,0.335,1.949l0.279,17.285
	l3.511-15.779c0.222-1.001,0.575-1.506,1.06-1.506c0.035,0,0.24,0.059,0.613,0.17c0.89,0.224,1.43,0.391,1.616,0.5
	c0.594,0.3,0.893,0.746,0.893,1.338c0-0.146-0.056,0.577-0.166,2.176c-0.112,2.005-0.169,4.125-0.169,6.355v3.121
	c0,0.93,0.019,2.008,0.057,3.234l3.232-14.328c0.111-0.521,0.335-0.781,0.67-0.781c-0.039,0,0.361,0.093,1.199,0.279
	c0.836,0.186,1.289,0.297,1.365,0.334c0.371,0.224,0.558,0.651,0.558,1.283c0,0.223-0.114,1.32-0.335,3.288
	c-0.26,2.119-0.391,3.997-0.391,5.631c0,6.355,0.892,9.869,2.676,10.538c0.781-0.372,1.674-2.863,2.676-7.471
	c0.074-0.446,0.259-0.67,0.559-0.67C164.984,124.858,165.171,124.989,165.171,125.249"/>
<path fill="#E90E8D" d="M166.872,44.409c-2.37-1.943-3.694,1.29-3.747,1.421l-0.821,0.564l-1.369,0.314l0.004,0.015
	c-19.775,1.847-25.645-0.489-25.645-0.489c-4.926-2.177-3.977-6.564-3.977-6.564c15.216,7.513,17.047-2.223,17.047-2.223
	c2.266,0.358,4.741-1.07,4.741-1.07c-5.259-2.796-3.388-8.694-3.388-8.694c1.026,1.014,1.632,0.926,1.632,0.926
	c-0.476-2.038-1.286-2.946-1.286-2.946c-8.719-12.329-22.539-5.262-22.539-5.262c-4.1,2.664-4.087-2.133-4.087-2.133
	c0.562-1.527-0.519-3.864-0.519-3.864C116.153-5.377,97.689,0.97,97.689,0.97c9.749-0.448,12.499,2.093,12.499,2.093
	c-3.809-0.679-9.936-0.52-9.936-0.52C83.702,4.432,89.205,16.23,89.205,16.23c0.11-6.709,6.308-8.06,6.308-8.06
	c13.345-2.658,9.18,10.312,9.18,10.312c2.368,12.118,16.823,8.919,16.823,8.919c-1.177,4.137,2.958,7.712,2.958,7.712
	c1.109,1.736-2.729,1.655-2.729,1.655c2.517,2.41,4.99,0.984,4.99,0.984c1.729-0.871,2.042,2.871,2.042,2.871
	c-0.112,2.321-1.572,1.947-1.572,1.947s-15.326-5.448-23.461-3.629c-8.029,1.794-19.529,1.492-19.529,1.492l0.392,1.7l7.977,1.24
	c6.745-2.645,25.465,2.075,25.465,2.075c-2.478,1.429-2.265,6.598-2.265,6.598c0.441,5.3-3.975,7.104-3.975,7.104
	c-14.816,3.181-17.819,19.213-17.819,19.213c0.263-2.746-2.598-5.414-2.598-5.414c-1.708-1.767-3.593-7.023-3.593-7.023
	c-3.117-0.043-7.064,6.464-7.064,6.464c2.301-0.359,4.338-2.53,4.338-2.53c1.606-0.875,2.425-0.472,2.425-0.472
	c1.142,1.139,1.53,11.591,1.53,11.591c0.086,9.359,7.643,5.798,7.643,5.798c27.71-17.85,46.748-16.851,46.748-16.851
	c3.12,0.043-0.682,8.475-0.682,8.475c-2.014,3.973-0.668,8.121-0.668,8.121c6.143-0.234,7.995-5.937,7.995-5.937
	c-2.596,2.346-3.68,2.133-3.68,2.133c-3.479-0.063-1.829-2.422-1.829-2.422c13.729-17.062,8.369-19.947,8.369-19.947
	c-7.076-4.69-28.451-0.054-28.451-0.054c0.279-2.984,3.934-3.992,3.934-3.992c8.83,1.064,8.419-4.835,8.419-4.835
	c14.524,2.322,23.548-2.601,23.548-2.601c0.337-0.107,0.703-0.148,1.074-0.166l1.255,0.063l0.423,0.287
	c0.668,0.57,1.254,0.957,1.768,1.197l0.137,0.092l0.041-0.019c3.464,1.435,3.467-4.064,3.467-4.064
	C168.536,43.79,166.872,44.409,166.872,44.409"/>
<path fill="#FFFFFF" d="M97.594,46.293c0,0-1.443-3.291-6.003-4.272l-5.998-0.434c4.691-3.233,0.754-7.517,0.754-7.517
	c0.738-0.321,1.747,1.051,1.747,1.051C88.269,31.773,81.88,30,81.88,30c-0.668-0.993,3.889-0.877,3.889-0.877
	c-2.787-1.823-8.16-0.066-8.16-0.066c-0.58-0.39,0.801-1.519,0.801-1.519c-0.954-0.169-2.348,1.197-2.348,1.197
	c-3.465-2.581-5.946-1.031-5.946-1.031c2.159-0.01,2.909,1.712,2.909,1.712c-6.775-1.317-6.381,4.942-6.381,4.942
	c-2.178-2.036-0.344-4.82-0.344-4.82l0.519-0.709c0.253-0.239,0.513-0.397,0.672-0.481l1.34-0.532l1.14-1.242l-0.784-1.485
	l-2.647-1.236l-1.518,0.533l-0.217,2.459l-0.144,2.241c-0.807,1.644-2.008,3.504-2.008,3.504c-2.311,5.154,3.896,8.119,3.896,8.119
	c-0.438,3.37-4.309,2.052-4.309,2.052c-1.853-2.081-7.329-4.462-7.329-4.462c-2.58-1.216-10.641,1.358-10.641,1.358
	c-1.418-3.227-2.737-2.661-2.737-2.661c-2.138,1.333,1.385,5.589,1.385,5.589c0.699,0.398,1.455-0.283,1.455-0.283
	c1.285,0.667,8.489,0.685,8.489,0.685c7.889,2.933,6.244,6.803,6.244,6.803c-6.803,3.84-5.961,12.997-5.961,12.997
	c-2.048-1.373-5.016-0.499-5.016-0.499s2.524,2.17,6.779,3.471c0,0,0.251-2.504,0.854-2.592c0,0,4.021-5.666,3.228-6.547
	c0,0,8.056-0.502,9.048-3.123c0,0,0.849,0.611,1.074,2.455c0,0,8.305-4.961,8.99-8.883c0,0,5.295-7.157,16.012-0.837l-1.425,1.963
	l1.938,1.982l3.048-0.808l0.279-1.607L97.594,46.293z"/>
<path fill="#FFFFFF" d="M183.177,124.97c0,1.487-0.297,3.364-0.892,5.63c-0.782,2.9-1.673,4.348-2.675,4.348
	c-1.75,0-3.215-1.447-4.406-4.348c-0.816-1.968-1.394-4.161-1.726-6.578c-0.671,6.95-1.916,10.424-3.736,10.424
	c-1.005,0-1.989-0.462-2.956-1.392c-2.564-2.454-3.846-6.765-3.846-12.935c0-0.78,0.111-1.821,0.334-3.123
	c0.446-2.675,1.264-5.109,2.453-7.304c1.673-3.083,3.179-4.627,4.516-4.627c0.743,0,1.875,0.568,3.4,1.703
	c1.524,1.131,2.285,1.96,2.285,2.48c0,0.298-0.15,0.443-0.445,0.443c-0.036,0-0.399-0.313-1.087-0.945
	c-0.688-0.632-1.31-0.948-1.867-0.948c-0.299,0-0.668,0.13-1.116,0.391c-1.858,1.115-3.27,3.345-4.236,6.69
	c-0.818,2.6-1.227,5.314-1.227,8.138c0,3.532,0.559,6.318,1.672,8.363c0.596,1.115,1.061,1.673,1.395,1.673
	c0.26,0,0.576-0.278,0.947-0.836c1.449-2.12,2.453-7.694,3.01-16.725c0.113-1.822,0.314-2.733,0.613-2.733
	c0.707,0,1.396,0.112,2.065,0.335c0.892,0.298,1.336,0.746,1.336,1.341c0,0.672-0.048,1.697-0.138,3.076
	c-0.094,1.381-0.141,2.403-0.141,3.075c0,2.348,0.167,4.603,0.503,6.765c0.519,3.095,1.3,4.993,2.341,5.702
	c0.929-1.31,1.708-3.628,2.342-6.958c0.223-1.198,0.463-1.796,0.725-1.796C182.992,124.3,183.177,124.524,183.177,124.97"/>
<polygon fill="#E90E8D" points="34.374,143.53 38.882,143.53 38.882,144.767 37.397,144.767 37.397,148.921 42.859,148.921 
	42.859,144.767 41.392,144.767 41.392,143.53 45.917,143.53 45.917,144.767 44.415,144.767 44.415,154.753 45.937,154.753 
	45.937,155.991 41.392,155.991 41.392,154.753 42.859,154.753 42.859,150.159 37.397,150.159 37.397,154.753 38.899,154.753 
	38.899,155.991 34.356,155.991 34.356,154.753 35.841,154.753 35.841,144.767 34.374,144.767 "/>
<path fill="#E90E8D" d="M55.234,153.375c-0.195,0.653-0.406,1.044-0.761,1.45c-0.76,0.885-1.803,1.36-2.986,1.36
	c-2.582,0-4.385-2.014-4.385-4.915c0-2.793,1.803-4.931,4.155-4.931c2.368,0,4.189,1.838,4.189,5.163h-6.877
	c0.123,1.396,0.443,2.173,1.096,2.81c0.495,0.479,1.078,0.707,1.786,0.707c1.096,0,1.768-0.494,2.245-1.645H55.234z M53.874,150.458
	c-0.107-1.185-0.373-1.838-0.92-2.369c-0.425-0.391-0.955-0.584-1.573-0.584c-1.15,0-2.105,0.778-2.529,2.034
	c-0.07,0.229-0.16,0.582-0.194,0.919H53.874z"/>
<path fill="#E90E8D" d="M65.628,155.991h-2.686v-1.679c-0.762,1.185-1.787,1.856-3.184,1.856c-1.768,0-3.059-1.219-3.059-2.862
	c0-1.804,1.592-2.707,5.34-3.06c0.123-0.019,0.513-0.053,0.883-0.088v-0.973c0-1.079-0.83-1.75-2.139-1.75
	c-1.379,0-1.998,0.46-2.28,1.679h-1.432c0.212-0.953,0.495-1.45,1.062-1.944c0.636-0.531,1.519-0.813,2.545-0.813
	c1.944,0,3.605,0.901,3.605,3.289v5.232h1.344V155.991z M62.923,151.13l-0.865,0.106c-2.898,0.354-3.871,0.885-3.871,2.085
	c0,0.99,0.865,1.804,1.961,1.804c1.68,0,2.775-1.591,2.775-2.457V151.13z"/>
<polygon fill="#E90E8D" points="66.247,142.98 68.951,142.98 68.951,154.878 70.225,154.878 70.225,155.991 66.229,155.991 
	66.229,154.878 67.59,154.878 67.59,144.095 66.247,144.095 "/>
<path fill="#E90E8D" d="M72.116,144.077h1.361v2.388h2.298v1.13h-2.298v6.225c0,1.2,0.284,1.307,1.75,1.288l0.494-0.017v1.06
	c-0.547,0.035-1.201,0.054-1.644,0.054c-1.502,0-1.962-0.442-1.962-1.926v-6.684H70.49v-1.13h1.626V144.077z"/>
<path fill="#E90E8D" d="M76.518,142.98h2.757v5.375c0.778-1.131,1.998-2.05,3.271-2.05c0.654,0,1.344,0.3,1.785,0.777
	c0.566,0.601,0.813,1.538,0.813,3.11v4.686h1.379v1.112h-2.739v-6.079c0-1.594-0.583-2.354-1.751-2.354
	c-0.76,0-1.66,0.531-2.244,1.344c-0.371,0.531-0.514,0.852-0.514,2.563v3.413h1.309v1.112h-4.102v-1.112h1.433v-10.783h-1.396
	V142.98z"/>
<polygon fill="#FFFFFF" points="92.922,149.715 97.042,149.715 97.042,145.58 98.173,145.58 98.173,149.715 102.327,149.715 
	102.327,150.846 98.173,150.846 98.173,154.95 97.042,154.95 97.042,150.846 92.922,150.846 "/>
<polygon fill="#E90E8D" points="108.832,143.53 117.884,143.53 117.884,147.17 116.487,147.17 116.487,144.767 111.837,144.767 
	111.837,148.921 116.416,148.921 116.416,150.159 111.837,150.159 111.837,154.753 113.817,154.753 113.817,155.991 
	108.815,155.991 108.815,154.753 110.282,154.753 110.282,144.767 108.832,144.767 "/>
<path fill="#E90E8D" d="M118.909,146.464h2.775v8.414h1.361v1.111h-4.154v-1.111h1.432v-7.283h-1.414V146.464z M119.987,143.494
	h1.607v1.608h-1.607V143.494z"/>
<path fill="#E90E8D" d="M124.866,144.077h1.361v2.388h2.297v1.13h-2.297v6.225c0,1.2,0.284,1.307,1.75,1.288l0.494-0.017v1.06
	c-0.547,0.035-1.202,0.054-1.645,0.054c-1.502,0-1.961-0.442-1.961-1.926v-6.684h-1.627v-1.13h1.627V144.077z"/>
<path fill="#E90E8D" d="M133.314,154.878v1.112h-4.048v-1.112h1.326v-7.283h-1.344v-1.131h2.705v1.784
	c0.389-0.565,1.307-1.943,3.128-1.943c1.716,0,2.759,1.253,2.759,3.375v5.198h1.36v1.112h-2.722v-6.292
	c0-1.362-0.707-2.193-1.804-2.193c-1.378,0-2.722,1.469-2.722,2.953v4.42H133.314z"/>
<path fill="#E90E8D" d="M148.5,153.375c-0.195,0.653-0.407,1.044-0.761,1.45c-0.76,0.885-1.804,1.36-2.986,1.36
	c-2.582,0-4.386-2.014-4.386-4.915c0-2.793,1.804-4.931,4.155-4.931c2.367,0,4.189,1.838,4.189,5.163h-6.877
	c0.123,1.396,0.441,2.173,1.096,2.81c0.495,0.479,1.078,0.707,1.785,0.707c1.096,0,1.768-0.494,2.246-1.645H148.5z M147.139,150.458
	c-0.106-1.185-0.372-1.838-0.919-2.369c-0.425-0.391-0.955-0.584-1.574-0.584c-1.148,0-2.104,0.778-2.528,2.034
	c-0.069,0.229-0.159,0.582-0.193,0.919H147.139z"/>
<path fill="#E90E8D" d="M156.101,146.464h1.078v2.809h-1.062c-0.299-0.617-0.458-0.864-0.759-1.148
	c-0.549-0.513-1.184-0.76-1.998-0.76c-1.025,0-1.857,0.69-1.857,1.557c0,0.847,0.531,1.165,2.212,1.359
	c2.669,0.318,3.87,1.063,3.87,2.9c0,1.662-1.396,3.022-3.128,3.022c-1.751,0-2.564-1.06-3.147-1.804v1.591h-1.113v-3.094h1.078
	c0.301,0.672,0.459,0.938,0.813,1.274c0.565,0.548,1.22,0.832,1.979,0.832c1.238,0,2.14-0.744,2.14-1.769
	c0-0.938-0.565-1.291-2.368-1.504l-0.531-0.072c-2.033-0.228-3.129-1.131-3.129-2.544c0-1.644,1.237-2.794,3.021-2.794
	c1.646,0,2.423,1.025,2.9,1.661V146.464z"/>
<path fill="#E90E8D" d="M165.116,146.464h1.078v2.809h-1.061c-0.301-0.617-0.459-0.864-0.76-1.148
	c-0.549-0.513-1.185-0.76-1.998-0.76c-1.025,0-1.857,0.69-1.857,1.557c0,0.847,0.531,1.165,2.211,1.359
	c2.67,0.318,3.871,1.063,3.871,2.9c0,1.662-1.396,3.022-3.128,3.022c-1.751,0-2.564-1.06-3.147-1.804v1.591h-1.114v-3.094h1.079
	c0.301,0.672,0.46,0.938,0.813,1.274c0.565,0.548,1.219,0.832,1.979,0.832c1.238,0,2.14-0.744,2.14-1.769
	c0-0.938-0.565-1.291-2.369-1.504l-0.531-0.072c-2.032-0.228-3.128-1.131-3.128-2.544c0-1.644,1.237-2.794,3.021-2.794
	c1.645,0,2.423,1.025,2.9,1.661V146.464z"/>
<path fill="#E90E8D" d="M86.687,40.868c0,0-3.57,1.211-2.95,4.552c0,0-0.056,2.767,6.124,0.387l2.201-4.012"/>
<path fill="#FFFFFF" d="M174.51,145.788v1.626h0.423v-1.182h0.892v3.588h-0.578v0.444h1.734v-0.444h-0.599v-3.588h0.892v1.182h0.424
	v-1.626H174.51z M181.801,145.788l-1.178,3.632l-1.142-3.632h-1.383v0.444h0.531v3.588h-0.538v0.444h1.059v-4.04l1.271,4.04h0.382
	l1.312-4.044v4.044h1.062v-0.444h-0.54v-3.588h0.54v-0.444H181.801z"/>
</svg>
