<?xml version="1.0" encoding="utf-8"?>
<!-- Generator: Adobe Illustrator 19.1.0, SVG Export Plug-In . SVG Version: 6.00 Build 0)  -->
<svg version="1.1" id="Layer_1" xmlns="http://www.w3.org/2000/svg" xmlns:xlink="http://www.w3.org/1999/xlink" x="0px" y="0px"
	 viewBox="0 0 612 792" style="enable-background:new 0 0 612 792;" xml:space="preserve">
<style type="text/css">
	.st0{opacity:0.4;}
	.st1{fill-rule:evenodd;clip-rule:evenodd;fill:#FFFFFF;}
	.st2{fill-rule:evenodd;clip-rule:evenodd;fill:#F8F9FB;}
	.st3{fill-rule:evenodd;clip-rule:evenodd;fill:#F4F5F7;}
	.st4{fill-rule:evenodd;clip-rule:evenodd;fill:#EFF2F4;}
	.st5{fill-rule:evenodd;clip-rule:evenodd;fill:#EBEEF1;}
	.st6{fill-rule:evenodd;clip-rule:evenodd;fill:#E7EBEF;}
	.st7{fill-rule:evenodd;clip-rule:evenodd;fill:#E3E8ED;}
	.st8{fill-rule:evenodd;clip-rule:evenodd;fill:#DFE5EA;}
	.st9{fill-rule:evenodd;clip-rule:evenodd;fill:#DBE2E8;}
	.st10{fill-rule:evenodd;clip-rule:evenodd;fill:#D7DFE6;}
	.st11{fill-rule:evenodd;clip-rule:evenodd;fill:#D3DDE4;}
	.st12{fill-rule:evenodd;clip-rule:evenodd;fill:#D0DAE2;}
	.st13{fill-rule:evenodd;clip-rule:evenodd;fill:#CCD7E0;}
	.st14{fill-rule:evenodd;clip-rule:evenodd;fill:#C8D4DE;}
	.st15{fill-rule:evenodd;clip-rule:evenodd;fill:#C4D1DC;}
	.st16{fill-rule:evenodd;clip-rule:evenodd;fill:#C0CFDA;}
	.st17{fill-rule:evenodd;clip-rule:evenodd;fill:#BCCCD8;}
	.st18{fill-rule:evenodd;clip-rule:evenodd;fill:#B9C9D6;}
	.st19{fill-rule:evenodd;clip-rule:evenodd;fill:#B5C7D4;}
	.st20{fill-rule:evenodd;clip-rule:evenodd;fill:#B1C4D2;}
	.st21{fill-rule:evenodd;clip-rule:evenodd;fill:#AEC2D0;}
	.st22{fill-rule:evenodd;clip-rule:evenodd;fill:#AABFCE;}
	.st23{fill-rule:evenodd;clip-rule:evenodd;fill:url(#SVGID_1_);}
	.st24{fill-rule:evenodd;clip-rule:evenodd;fill:url(#SVGID_2_);}
	.st25{fill:#333333;}
	.st26{font-family:'BreeSerif-Regular';}
	.st27{font-size:16.5726px;}
	.st28{fill:url(#SVGID_3_);}
	.st29{fill:url(#SVGID_4_);}
</style>
<g>
	<g>
		<g class="st0">
			<path class="st1" d="M371.6,438.8c0,47.4-38.5,85.9-85.9,85.9c-47.4,0-85.9-38.5-85.9-85.9c0-47.4,38.5-85.9,85.9-85.9
				C333.2,352.9,371.6,391.3,371.6,438.8z"/>
			<circle class="st2" cx="287" cy="437.6" r="85.9"/>
			<circle class="st3" cx="288.2" cy="436.4" r="85.9"/>
			<circle class="st4" cx="289.4" cy="435.2" r="85.9"/>
			<circle class="st5" cx="290.6" cy="434" r="85.9"/>
			<circle class="st6" cx="291.8" cy="432.8" r="85.9"/>
			<circle class="st7" cx="293.1" cy="431.6" r="85.9"/>
			<circle class="st8" cx="294.3" cy="430.4" r="85.9"/>
			<circle class="st9" cx="295.5" cy="429.2" r="85.9"/>
			<circle class="st10" cx="296.7" cy="428" r="85.9"/>
			<circle class="st11" cx="297.9" cy="426.8" r="85.9"/>
			<circle class="st12" cx="299.1" cy="425.6" r="85.9"/>
			<circle class="st13" cx="300.3" cy="424.4" r="85.9"/>
			<circle class="st14" cx="301.6" cy="423.2" r="85.9"/>
			<circle class="st15" cx="302.8" cy="422" r="85.9"/>
			<circle class="st16" cx="304" cy="420.8" r="85.9"/>
			<circle class="st17" cx="305.2" cy="419.6" r="85.9"/>
			<circle class="st18" cx="306.4" cy="418.4" r="85.9"/>
			<circle class="st19" cx="307.6" cy="417.2" r="85.9"/>
			<circle class="st20" cx="308.9" cy="416" r="85.9"/>
			<path class="st21" d="M396,414.8c0,47.4-38.5,85.9-85.9,85.9c-47.4,0-85.9-38.5-85.9-85.9c0-47.4,38.5-85.9,85.9-85.9
				C357.5,328.9,396,367.4,396,414.8z"/>
			<path class="st22" d="M397.2,413.6c0,47.4-38.5,85.9-85.9,85.9s-85.9-38.5-85.9-85.9c0-47.4,38.5-85.9,85.9-85.9
				S397.2,366.2,397.2,413.6z"/>
		</g>
		<linearGradient id="SVGID_1_" gradientUnits="userSpaceOnUse" x1="367.743" y1="353.2185" x2="216.2473" y2="515.5345">
			<stop  offset="0" style="stop-color:#FFFFFF"/>
			<stop  offset="1" style="stop-color:#D9E2E9"/>
		</linearGradient>
		<path class="st23" d="M398.4,412.4c0,47.4-38.5,85.9-85.9,85.9c-47.4,0-85.9-38.5-85.9-85.9c0-47.4,38.5-85.9,85.9-85.9
			C359.9,326.5,398.4,365,398.4,412.4z"/>
		
			<linearGradient id="SVGID_2_" gradientUnits="userSpaceOnUse" x1="522.6943" y1="-253.9378" x2="374.7777" y2="-95.4565" gradientTransform="matrix(-1 0 0 -1 781.2207 216.2969)">
			<stop  offset="0" style="stop-color:#FFFFFF"/>
			<stop  offset="1" style="stop-color:#D9E2E9"/>
		</linearGradient>
		<circle class="st24" cx="312.5" cy="412.4" r="83.9"/>
	</g>
</g>
<text transform="matrix(1 0 0 1 289.0293 483.0215)" class="st25 st26 st27">TORCH</text>
<g>
	<radialGradient id="SVGID_3_" cx="326.8647" cy="370.8958" r="126.5378" gradientUnits="userSpaceOnUse">
		<stop  offset="0" style="stop-color:#EA158E"/>
		<stop  offset="1" style="stop-color:#9F2068"/>
	</radialGradient>
	<path class="st28" d="M311,404.6c0,0-16.5-9.5-15.5-21.8c0.9-12.4,8.3-16.6,11-21.8c2.7-5.2,1.7-13.7,1.7-13.7s15.5,5.6,15.6,19.9
		c2.5-2.6,1.9-7.8,1.9-7.8s5.7,6.3,4.9,21c-0.8,14.7-12.4,23.5-12.4,23.5s5.8-12.2,4.2-18.4c-1.7,3.3-4.4,4.9-4.4,4.9
		s5.2-10.5-4.2-18c-2.5,8-5,5.6-8,13.4C302.8,393.5,311,404.6,311,404.6z"/>
	<radialGradient id="SVGID_4_" cx="326.8647" cy="383.2446" r="85.2106" gradientUnits="userSpaceOnUse">
		<stop  offset="0" style="stop-color:#EA158E"/>
		<stop  offset="1" style="stop-color:#9F2068"/>
	</radialGradient>
	<path class="st29" d="M334.8,418.7c0-1.2-0.4-2.2-1.1-3.1h-2c1.6-0.6,2.3-2.4,2.3-4.5c0-1-0.1-1.9-0.4-2.6h-38
		c-0.2,0.7-0.3,1.6-0.3,2.6c0,2.1,0.6,3.9,2.3,4.5h-2c-0.7,0.8-1.1,1.9-1.1,3.1c0,2.7,2.2,4.9,4.9,4.9h0.6c-0.5,0.6-0.8,1.4-0.8,2.2
		c0,1.8,1.4,3.3,3.2,3.5l1.5,7.7h-2.8c-0.5,0.7-0.9,1.5-0.9,2.4c0,2.2,1.8,3.9,3.9,3.9h0l4.9,16.6c0,0,0,0,0,0c0,3,2.4,5.5,5.5,5.5
		c2.8,0,5.1-2.1,5.4-4.8h0l5-17.3h0c2.2,0,3.9-1.8,3.9-3.9c0-0.9-0.3-1.8-0.9-2.4h-2.8l1.5-7.7c1.8-0.2,3.2-1.7,3.2-3.5
		c0-0.8-0.3-1.6-0.8-2.2h0.6C332.6,423.6,334.8,421.4,334.8,418.7z"/>
</g>
</svg>
