<?xml version="1.0" encoding="utf-8"?>
<!-- Generator: Adobe Illustrator 12.0.0, SVG Export Plug-In . SVG Version: 6.00 Build 51448)  -->
<!DOCTYPE svg PUBLIC "-//W3C//DTD SVG 1.1//EN" "http://www.w3.org/Graphics/SVG/1.1/DTD/svg11.dtd" [
	<!ENTITY ns_svg "http://www.w3.org/2000/svg">
	<!ENTITY ns_xlink "http://www.w3.org/1999/xlink">
]>
<svg  version="1.1" id="Layer_1" xmlns="&ns_svg;" xmlns:xlink="&ns_xlink;" width="129.354" height="176.95"
	 viewBox="0 0 129.354 176.95" overflow="visible" enable-background="new 0 0 129.354 176.95" xml:space="preserve">
<g id="XMLID_10371_">
	<g id="XMLID_10385_">
		<g id="XMLID_10413_">
			<g id="XMLID_10414_">
				<g id="XMLID_10416_">
					<g id="XMLID_10417_">
						<g id="XMLID_10496_">
							<g id="XMLID_10497_">
								<g id="XMLID_10504_">
									<g id="XMLID_10505_">
										<path id="XMLID_12901_" fill="#1A2F2E" d="M129.354,85.502c0,1.557-1.215,2.871-2.771,2.874H2.856
											C1.303,88.376,0,87.177,0,85.619V2.873C0,1.319,1.215,0.002,2.77,0h123.728c1.554,0,2.857,1.203,2.857,2.758V85.502z"/>
									</g>
								</g>
								<g id="XMLID_10502_">
									<g id="XMLID_10503_">
										<path id="XMLID_12900_" fill="#E5E3EA" d="M129.354,174.075c0,1.557-1.215,2.869-2.771,2.875H2.856
											c-1.554,0-2.856-1.202-2.856-2.759V91.446c0-1.553,1.215-2.871,2.77-2.873h123.728c1.554,0,2.857,1.201,2.857,2.758
											V174.075z"/>
									</g>
								</g>
								<g id="XMLID_10501_">
									<polygon id="XMLID_12899_" fill="#FFFFFF" points="6.521,82.861 123.545,82.769 123.475,6.572 6.453,6.572 									"/>
								</g>
								<g id="XMLID_10500_">
									<circle id="XMLID_12898_" fill="#453E37" cx="64.678" cy="3.592" r="1.088"/>
								</g>
								<g id="XMLID_10499_">
									<rect id="XMLID_12897_" x="12.57" y="85.307" fill="#60727E" width="8.886" height="5.619"/>
								</g>
								<g id="XMLID_10498_">
									<rect id="XMLID_12896_" x="108.352" y="85.307" fill="#60727E" width="8.884" height="5.619"/>
								</g>
							</g>
						</g>
						<g id="XMLID_10495_" opacity="0.1">
							<path id="XMLID_12651_" fill="#586773" d="M125.079,139.996c0,2.843-2.309,5.148-5.148,5.148H9.446
								c-2.846,0-5.148-2.306-5.148-5.148V98.377c0-2.843,2.303-5.148,5.148-5.148h110.484c2.84,0,5.148,2.306,5.148,5.148V139.996z
								"/>
						</g>
						<g id="XMLID_10418_">
							<g id="XMLID_10419_" opacity="0.8">
								<g id="XMLID_10494_">
									<path id="XMLID_12895_" fill="#FFFFFF" d="M7.579,101.22h5.259c0.24,0,0.435-0.201,0.435-0.453v-2.617
										c0-0.25-0.194-0.453-0.435-0.453H7.579c-0.24,0-0.437,0.203-0.437,0.453v2.617C7.143,101.019,7.339,101.22,7.579,101.22z"
										/>
								</g>
								<g id="XMLID_10493_">
									<path id="XMLID_12894_" fill="#FFFFFF" d="M24.254,101.22h5.26c0.239,0,0.434-0.201,0.434-0.453v-2.617
										c0-0.25-0.194-0.453-0.434-0.453h-5.26c-0.24,0-0.436,0.203-0.436,0.453v2.617C23.818,101.019,24.014,101.22,24.254,101.22
										z"/>
								</g>
								<g id="XMLID_10492_">
									<path id="XMLID_12893_" fill="#FFFFFF" d="M32.598,101.22h5.261c0.239,0,0.435-0.201,0.435-0.453v-2.617
										c0-0.25-0.195-0.453-0.435-0.453h-5.261c-0.241,0-0.436,0.203-0.436,0.453v2.617
										C32.162,101.019,32.356,101.22,32.598,101.22z"/>
								</g>
								<g id="XMLID_10491_">
									<path id="XMLID_12892_" fill="#FFFFFF" d="M40.939,101.22H46.2c0.241,0,0.436-0.201,0.436-0.453v-2.617
										c0-0.25-0.194-0.453-0.436-0.453h-5.261c-0.238,0-0.434,0.203-0.434,0.453v2.617
										C40.506,101.019,40.701,101.22,40.939,101.22z"/>
								</g>
								<g id="XMLID_10490_">
									<path id="XMLID_12891_" fill="#FFFFFF" d="M49.285,101.22h5.259c0.239,0,0.436-0.201,0.436-0.453v-2.617
										c0-0.25-0.196-0.453-0.436-0.453h-5.259c-0.239,0-0.434,0.203-0.434,0.453v2.617
										C48.852,101.019,49.046,101.22,49.285,101.22z"/>
								</g>
								<g id="XMLID_10489_">
									<path id="XMLID_12890_" fill="#FFFFFF" d="M57.633,101.22h5.262c0.239,0,0.437-0.201,0.437-0.453v-2.617
										c0-0.25-0.197-0.453-0.437-0.453h-5.262c-0.239,0-0.434,0.203-0.434,0.453v2.617
										C57.199,101.019,57.394,101.22,57.633,101.22z"/>
								</g>
								<g id="XMLID_10488_">
									<path id="XMLID_12889_" fill="#FFFFFF" d="M65.977,101.22h5.263c0.239,0,0.434-0.201,0.434-0.453v-2.617
										c0-0.25-0.194-0.453-0.434-0.453h-5.263c-0.239,0-0.434,0.203-0.434,0.453v2.617
										C65.543,101.019,65.737,101.22,65.977,101.22z"/>
								</g>
								<g id="XMLID_10487_">
									<path id="XMLID_12888_" fill="#FFFFFF" d="M74.322,101.22h5.259c0.239,0,0.436-0.201,0.436-0.453v-2.617
										c0-0.25-0.196-0.453-0.436-0.453h-5.259c-0.239,0-0.433,0.203-0.433,0.453v2.617
										C73.89,101.019,74.083,101.22,74.322,101.22z"/>
								</g>
								<g id="XMLID_10486_">
									<path id="XMLID_12887_" fill="#FFFFFF" d="M82.665,101.22h5.26c0.239,0,0.436-0.201,0.436-0.453v-2.617
										c0-0.25-0.196-0.453-0.436-0.453h-5.26c-0.24,0-0.435,0.203-0.435,0.453v2.617C82.23,101.019,82.425,101.22,82.665,101.22z
										"/>
								</g>
								<g id="XMLID_10485_">
									<path id="XMLID_12886_" fill="#FFFFFF" d="M91.016,101.22h5.261c0.238,0,0.433-0.201,0.433-0.453v-2.615
										c0-0.252-0.194-0.455-0.433-0.455h-5.261c-0.24,0-0.434,0.203-0.434,0.453v2.617
										C90.582,101.019,90.775,101.22,91.016,101.22z"/>
								</g>
								<g id="XMLID_10484_">
									<path id="XMLID_12885_" fill="#FFFFFF" d="M99.357,101.22h5.26c0.242,0,0.437-0.201,0.437-0.453v-2.615
										c0-0.252-0.194-0.455-0.437-0.455h-5.26c-0.239,0-0.434,0.203-0.434,0.455v2.615
										C98.924,101.019,99.118,101.22,99.357,101.22z"/>
								</g>
								<g id="XMLID_10483_">
									<path id="XMLID_12884_" fill="#FFFFFF" d="M107.703,101.22h5.26c0.242,0,0.435-0.201,0.435-0.453v-2.615
										c0-0.252-0.192-0.455-0.435-0.455h-5.26c-0.239,0-0.435,0.203-0.435,0.455v2.615
										C107.269,101.019,107.464,101.22,107.703,101.22z"/>
								</g>
								<g id="XMLID_10482_">
									<path id="XMLID_12883_" fill="#FFFFFF" d="M121.306,97.696h-5.26c-0.24,0-0.435,0.203-0.435,0.455v2.615
										c0,0.252,0.194,0.453,0.435,0.453h5.26c0.239,0,0.436-0.201,0.436-0.453v-2.615
										C121.741,97.899,121.545,97.696,121.306,97.696z"/>
								</g>
								<g id="XMLID_10481_">
									<path id="XMLID_12882_" fill="#FFFFFF" d="M7.558,109.205H12.7c0.227,0,0.414-0.196,0.414-0.433v-4.863
										c0-0.237-0.188-0.432-0.414-0.432H7.558c-0.227,0-0.415,0.194-0.415,0.432v4.863
										C7.143,109.009,7.331,109.205,7.558,109.205z"/>
								</g>
								<g id="XMLID_10480_">
									<path id="XMLID_12881_" fill="#FFFFFF" d="M15.599,109.205h5.139c0.23,0,0.414-0.196,0.414-0.433v-4.863
										c0-0.237-0.184-0.432-0.414-0.432h-5.139c-0.23,0-0.416,0.194-0.416,0.432v4.863
										C15.183,109.009,15.368,109.205,15.599,109.205z"/>
								</g>
								<g id="XMLID_10479_">
									<path id="XMLID_12880_" fill="#FFFFFF" d="M23.637,109.205h5.144c0.227,0,0.411-0.196,0.411-0.433v-4.861
										c0-0.239-0.185-0.434-0.411-0.434h-5.144c-0.227,0-0.414,0.194-0.414,0.432v4.863
										C23.223,109.009,23.41,109.205,23.637,109.205z"/>
								</g>
								<g id="XMLID_10478_">
									<path id="XMLID_12879_" fill="#FFFFFF" d="M36.819,103.478h-5.143c-0.228,0-0.417,0.194-0.417,0.434v4.861
										c0,0.236,0.189,0.433,0.417,0.433h5.143c0.228,0,0.414-0.196,0.414-0.433v-4.861
										C37.233,103.672,37.047,103.478,36.819,103.478z"/>
								</g>
								<g id="XMLID_10477_">
									<path id="XMLID_12878_" fill="#FFFFFF" d="M44.857,103.478h-5.143c-0.228,0-0.413,0.194-0.413,0.434v4.861
										c0,0.236,0.186,0.433,0.413,0.433h5.143c0.229,0,0.413-0.196,0.413-0.433v-4.861
										C45.271,103.673,45.086,103.478,44.857,103.478z"/>
								</g>
								<g id="XMLID_10476_">
									<path id="XMLID_12877_" fill="#FFFFFF" d="M47.755,109.205h5.142c0.229,0,0.413-0.196,0.413-0.433v-4.861
										c0-0.238-0.184-0.434-0.413-0.434h-5.142c-0.229,0-0.413,0.195-0.413,0.434v4.861
										C47.342,109.009,47.526,109.205,47.755,109.205z"/>
								</g>
								<g id="XMLID_10475_">
									<path id="XMLID_12876_" fill="#FFFFFF" d="M60.937,103.478h-5.143c-0.228,0-0.416,0.195-0.416,0.434v4.861
										c0,0.236,0.188,0.433,0.416,0.433h5.143c0.229,0,0.412-0.196,0.412-0.433v-4.861
										C61.349,103.673,61.165,103.478,60.937,103.478z"/>
								</g>
								<g id="XMLID_10474_">
									<path id="XMLID_12875_" fill="#FFFFFF" d="M68.976,103.478h-5.144c-0.228,0-0.414,0.195-0.414,0.434v4.861
										c0,0.236,0.187,0.433,0.414,0.433h5.144c0.229,0,0.414-0.196,0.414-0.433v-4.861
										C69.39,103.673,69.204,103.478,68.976,103.478z"/>
								</g>
								<g id="XMLID_10473_">
									<path id="XMLID_12874_" fill="#FFFFFF" d="M77.016,103.478h-5.144c-0.227,0-0.412,0.195-0.412,0.434v4.861
										c0,0.236,0.186,0.433,0.412,0.433h5.144c0.227,0,0.413-0.196,0.413-0.433v-4.861
										C77.429,103.673,77.242,103.478,77.016,103.478z"/>
								</g>
								<g id="XMLID_10472_">
									<path id="XMLID_12873_" fill="#FFFFFF" d="M85.052,103.478h-5.14c-0.229,0-0.415,0.195-0.415,0.434v4.861
										c0,0.236,0.187,0.433,0.415,0.433h5.14c0.23,0,0.417-0.196,0.417-0.433v-4.861
										C85.469,103.673,85.282,103.478,85.052,103.478z"/>
								</g>
								<g id="XMLID_10471_">
									<path id="XMLID_12872_" fill="#FFFFFF" d="M93.094,103.478h-5.141c-0.229,0-0.416,0.195-0.416,0.434v4.861
										c0,0.236,0.187,0.433,0.416,0.433h5.141c0.228,0,0.414-0.196,0.414-0.433v-4.861
										C93.508,103.673,93.321,103.478,93.094,103.478z"/>
								</g>
								<g id="XMLID_10470_">
									<path id="XMLID_12871_" fill="#FFFFFF" d="M109.173,103.478h-5.144c-0.227,0-0.412,0.195-0.412,0.434v4.861
										c0,0.236,0.186,0.433,0.412,0.433h5.144c0.227,0,0.414-0.196,0.414-0.433v-4.861
										C109.587,103.673,109.399,103.478,109.173,103.478z"/>
								</g>
								<g id="XMLID_10469_">
									<path id="XMLID_12870_" fill="#FFFFFF" d="M121.173,103.478h-9.007c-0.229,0-0.413,0.195-0.413,0.434v4.861
										c0,0.236,0.185,0.433,0.413,0.433h9.007c0.228,0,0.414-0.196,0.414-0.433v-4.861
										C121.587,103.673,121.4,103.478,121.173,103.478z"/>
								</g>
								<g id="XMLID_10468_">
									<path id="XMLID_12869_" fill="#FFFFFF" d="M101.133,103.478h-5.14c-0.229,0-0.418,0.195-0.418,0.434v4.861
										c0,0.236,0.189,0.433,0.418,0.433h5.14c0.229,0,0.415-0.196,0.415-0.433v-4.861
										C101.548,103.673,101.361,103.478,101.133,103.478z"/>
								</g>
								<g id="XMLID_10467_">
									<path id="XMLID_12868_" fill="#FFFFFF" d="M25.114,116.755v-4.862c0-0.238-0.188-0.431-0.416-0.431h-5.14
										c-0.23,0-0.416,0.192-0.416,0.431v4.862c0,0.238,0.186,0.432,0.416,0.432h5.14
										C24.927,117.187,25.114,116.993,25.114,116.755z"/>
								</g>
								<g id="XMLID_10466_">
									<path id="XMLID_12867_" fill="#FFFFFF" d="M7.558,117.187h9.019c0.229,0,0.418-0.193,0.418-0.432v-4.862
										c0-0.238-0.188-0.431-0.418-0.431H7.558c-0.227,0-0.415,0.192-0.415,0.431v4.862
										C7.143,116.993,7.331,117.187,7.558,117.187z"/>
								</g>
								<g id="XMLID_10465_">
									<path id="XMLID_12866_" fill="#FFFFFF" d="M33.152,116.755v-4.862c0-0.238-0.186-0.431-0.416-0.431h-5.14
										c-0.229,0-0.414,0.192-0.414,0.431v4.862c0,0.238,0.185,0.432,0.414,0.432h5.14
										C32.967,117.187,33.152,116.993,33.152,116.755z"/>
								</g>
								<g id="XMLID_10464_">
									<path id="XMLID_12865_" fill="#FFFFFF" d="M35.224,111.893v4.862c0,0.238,0.184,0.432,0.413,0.432h5.143
										c0.229,0,0.412-0.193,0.412-0.432v-4.862c0-0.238-0.184-0.431-0.412-0.431h-5.143
										C35.407,111.462,35.224,111.654,35.224,111.893z"/>
								</g>
								<g id="XMLID_10463_">
									<path id="XMLID_12864_" fill="#FFFFFF" d="M43.26,111.893v4.862c0,0.238,0.188,0.432,0.417,0.432h5.139
										c0.23,0,0.416-0.193,0.416-0.432v-4.862c0-0.238-0.186-0.431-0.416-0.431h-5.139
										C43.447,111.462,43.26,111.654,43.26,111.893z"/>
								</g>
								<g id="XMLID_10462_">
									<path id="XMLID_12863_" fill="#FFFFFF" d="M51.302,111.893v4.862c0,0.238,0.186,0.432,0.414,0.432h5.141
										c0.229,0,0.415-0.193,0.415-0.432v-4.862c0-0.238-0.186-0.431-0.415-0.431h-5.141
										C51.487,111.462,51.302,111.654,51.302,111.893z"/>
								</g>
								<g id="XMLID_10461_">
									<path id="XMLID_12862_" fill="#FFFFFF" d="M59.34,111.893v4.862c0,0.238,0.187,0.432,0.416,0.432h5.141
										c0.227,0,0.416-0.193,0.416-0.432v-4.862c0-0.238-0.189-0.431-0.416-0.431h-5.141
										C59.526,111.462,59.34,111.654,59.34,111.893z"/>
								</g>
								<g id="XMLID_10460_">
									<path id="XMLID_12861_" fill="#FFFFFF" d="M67.379,111.893v4.862c0,0.238,0.188,0.432,0.416,0.432h5.14
										c0.23,0,0.415-0.193,0.415-0.432v-4.862c0-0.238-0.185-0.431-0.415-0.431h-5.14
										C67.566,111.462,67.379,111.654,67.379,111.893z"/>
								</g>
								<g id="XMLID_10459_">
									<path id="XMLID_12860_" fill="#FFFFFF" d="M75.421,111.893v4.862c0,0.238,0.184,0.432,0.412,0.432h5.143
										c0.229,0,0.413-0.193,0.413-0.432v-4.862c0-0.238-0.184-0.431-0.413-0.431h-5.143
										C75.604,111.462,75.421,111.654,75.421,111.893z"/>
								</g>
								<g id="XMLID_10458_">
									<path id="XMLID_12859_" fill="#FFFFFF" d="M83.457,111.893v4.862c0,0.238,0.187,0.432,0.417,0.432h5.142
										c0.227,0,0.413-0.193,0.413-0.432v-4.862c0-0.238-0.187-0.431-0.413-0.431h-5.142
										C83.644,111.462,83.457,111.654,83.457,111.893z"/>
								</g>
								<g id="XMLID_10457_">
									<path id="XMLID_12858_" fill="#FFFFFF" d="M91.498,111.893v4.862c0,0.238,0.187,0.432,0.414,0.432h5.142
										c0.229,0,0.415-0.193,0.415-0.432v-4.862c0-0.238-0.187-0.431-0.415-0.431h-5.142
										C91.685,111.462,91.498,111.654,91.498,111.893z"/>
								</g>
								<g id="XMLID_10456_">
									<path id="XMLID_12857_" fill="#FFFFFF" d="M99.537,111.893v4.862c0,0.238,0.185,0.432,0.415,0.432h5.143
										c0.227,0,0.413-0.193,0.413-0.432v-4.862c0-0.238-0.187-0.431-0.413-0.431h-5.143
										C99.722,111.462,99.537,111.654,99.537,111.893z"/>
								</g>
								<g id="XMLID_10455_">
									<path id="XMLID_12856_" fill="#FFFFFF" d="M113.547,116.755v-4.862c0-0.238-0.185-0.431-0.414-0.431h-5.144
										c-0.227,0-0.412,0.192-0.412,0.431v4.862c0,0.238,0.186,0.432,0.412,0.432h5.144
										C113.362,117.187,113.547,116.993,113.547,116.755z"/>
								</g>
								<g id="XMLID_10454_">
									<path id="XMLID_12855_" fill="#FFFFFF" d="M21.483,125.168h5.139c0.229,0,0.417-0.191,0.417-0.43v-4.862
										c0-0.236-0.188-0.432-0.417-0.432h-5.139c-0.23,0-0.416,0.195-0.416,0.432v4.862
										C21.067,124.977,21.253,125.168,21.483,125.168z"/>
								</g>
								<g id="XMLID_10453_">
									<path id="XMLID_12854_" fill="#FFFFFF" d="M7.558,125.168h11.204c0.229,0,0.416-0.191,0.416-0.43v-4.862
										c0-0.236-0.188-0.432-0.416-0.432H7.558c-0.227,0-0.415,0.195-0.415,0.432v4.862
										C7.143,124.977,7.331,125.168,7.558,125.168z"/>
								</g>
								<g id="XMLID_10452_">
									<path id="XMLID_12853_" fill="#FFFFFF" d="M29.521,125.168h5.142c0.231,0,0.415-0.191,0.415-0.43v-4.862
										c0-0.236-0.184-0.432-0.415-0.432h-5.142c-0.229,0-0.415,0.195-0.415,0.432v4.862
										C29.105,124.977,29.292,125.168,29.521,125.168z"/>
								</g>
								<g id="XMLID_10451_">
									<path id="XMLID_12852_" fill="#FFFFFF" d="M43.118,124.738v-4.862c0-0.236-0.188-0.432-0.414-0.432h-5.144
										c-0.227,0-0.414,0.195-0.414,0.432v4.862c0,0.238,0.188,0.43,0.414,0.43h5.144
										C42.931,125.168,43.118,124.977,43.118,124.738z"/>
								</g>
								<g id="XMLID_10450_">
									<path id="XMLID_12851_" fill="#FFFFFF" d="M51.156,124.738v-4.862c0-0.236-0.188-0.432-0.415-0.432H45.6
										c-0.227,0-0.415,0.195-0.415,0.432v4.862c0,0.238,0.188,0.43,0.415,0.43h5.142
										C50.968,125.168,51.156,124.977,51.156,124.738z"/>
								</g>
								<g id="XMLID_10449_">
									<path id="XMLID_12850_" fill="#FFFFFF" d="M59.195,124.738v-4.862c0-0.236-0.186-0.432-0.415-0.432H53.64
										c-0.229,0-0.415,0.195-0.415,0.432v4.862c0,0.238,0.187,0.43,0.415,0.43h5.141
										C59.01,125.168,59.195,124.977,59.195,124.738z"/>
								</g>
								<g id="XMLID_10448_">
									<path id="XMLID_12849_" fill="#FFFFFF" d="M67.235,124.738v-4.862c0-0.236-0.186-0.432-0.415-0.432H61.68
										c-0.23,0-0.412,0.195-0.412,0.432v4.862c0,0.238,0.182,0.43,0.412,0.43h5.141C67.05,125.168,67.235,124.977,67.235,124.738
										z"/>
								</g>
								<g id="XMLID_10447_">
									<path id="XMLID_12848_" fill="#FFFFFF" d="M75.275,124.738v-4.862c0-0.236-0.187-0.432-0.416-0.432h-5.14
										c-0.229,0-0.416,0.195-0.416,0.432v4.862c0,0.238,0.188,0.43,0.416,0.43h5.14
										C75.089,125.168,75.275,124.977,75.275,124.738z"/>
								</g>
								<g id="XMLID_10446_">
									<path id="XMLID_12847_" fill="#FFFFFF" d="M83.315,124.738v-4.862c0-0.236-0.187-0.432-0.416-0.432h-5.141
										c-0.228,0-0.414,0.195-0.414,0.432v4.862c0,0.238,0.187,0.43,0.414,0.43h5.141
										C83.129,125.168,83.315,124.977,83.315,124.738z"/>
								</g>
								<g id="XMLID_10445_">
									<path id="XMLID_12846_" fill="#FFFFFF" d="M91.354,124.738v-4.862c0-0.236-0.188-0.432-0.417-0.432h-5.141
										c-0.229,0-0.414,0.195-0.414,0.432v4.862c0,0.238,0.186,0.43,0.414,0.43h5.141
										C91.167,125.168,91.354,124.977,91.354,124.738z"/>
								</g>
								<g id="XMLID_10444_">
									<path id="XMLID_12845_" fill="#FFFFFF" d="M99.393,124.738v-4.862c0-0.236-0.188-0.432-0.415-0.432h-5.141
										c-0.229,0-0.414,0.195-0.414,0.432v4.862c0,0.238,0.185,0.43,0.414,0.43h5.141
										C99.204,125.168,99.393,124.977,99.393,124.738z"/>
								</g>
								<g id="XMLID_10443_">
									<path id="XMLID_12844_" fill="#FFFFFF" d="M107.43,124.738v-4.862c0-0.236-0.183-0.432-0.414-0.432h-5.138
										c-0.23,0-0.414,0.195-0.414,0.432v4.862c0,0.238,0.184,0.43,0.414,0.43h5.138
										C107.247,125.168,107.43,124.977,107.43,124.738z"/>
								</g>
								<g id="XMLID_10442_">
									<path id="XMLID_12843_" fill="#FFFFFF" d="M121.173,111.462h-5.142c-0.227,0-0.415,0.192-0.415,0.431l-0.016,6.192
										c0,0.748-0.602,1.359-1.337,1.359h-4.189c-0.23,0-0.414,0.195-0.414,0.432v4.862c0,0.238,0.184,0.43,0.414,0.43h11.099
										c0.228,0,0.414-0.191,0.414-0.43v-12.846C121.587,111.654,121.4,111.462,121.173,111.462z"/>
								</g>
								<g id="XMLID_10441_">
									<path id="XMLID_12842_" fill="#FFFFFF" d="M30.713,127.428h-5.142c-0.229,0-0.414,0.195-0.414,0.434v4.858
										c0,0.238,0.186,0.434,0.414,0.434h5.142c0.229,0,0.414-0.195,0.414-0.434v-4.858
										C31.127,127.623,30.941,127.428,30.713,127.428z"/>
								</g>
								<g id="XMLID_10440_">
									<path id="XMLID_12841_" fill="#FFFFFF" d="M7.558,133.153H22.49c0.229,0,0.415-0.195,0.415-0.434v-4.858
										c0-0.238-0.187-0.434-0.415-0.434H7.558c-0.227,0-0.415,0.195-0.415,0.434v4.858
										C7.143,132.958,7.331,133.153,7.558,133.153z"/>
								</g>
								<g id="XMLID_10439_">
									<path id="XMLID_12840_" fill="#FFFFFF" d="M33.611,133.153h5.142c0.229,0,0.414-0.195,0.414-0.434v-4.858
										c0-0.238-0.185-0.434-0.414-0.434h-5.142c-0.229,0-0.418,0.195-0.418,0.434v4.858
										C33.193,132.958,33.383,133.153,33.611,133.153z"/>
								</g>
								<g id="XMLID_10438_">
									<path id="XMLID_12839_" fill="#FFFFFF" d="M41.649,133.153h5.145c0.227,0,0.414-0.195,0.414-0.434v-4.858
										c0-0.238-0.188-0.434-0.414-0.434h-5.145c-0.227,0-0.415,0.195-0.415,0.434v4.858
										C41.234,132.958,41.423,133.153,41.649,133.153z"/>
								</g>
								<g id="XMLID_10437_">
									<path id="XMLID_12838_" fill="#FFFFFF" d="M49.69,133.153h5.14c0.229,0,0.417-0.195,0.417-0.434v-4.858
										c0-0.238-0.188-0.434-0.417-0.434h-5.14c-0.229,0-0.416,0.195-0.416,0.434v4.858
										C49.274,132.958,49.462,133.153,49.69,133.153z"/>
								</g>
								<g id="XMLID_10436_">
									<path id="XMLID_12837_" fill="#FFFFFF" d="M57.729,133.153h5.143c0.227,0,0.413-0.195,0.413-0.434v-4.858
										c0-0.238-0.187-0.434-0.413-0.434h-5.143c-0.228,0-0.414,0.195-0.414,0.434v4.858
										C57.315,132.958,57.502,133.153,57.729,133.153z"/>
								</g>
								<g id="XMLID_10435_">
									<path id="XMLID_12836_" fill="#FFFFFF" d="M65.769,133.153h5.143c0.229,0,0.412-0.195,0.412-0.434v-4.858
										c0-0.238-0.184-0.434-0.412-0.434h-5.143c-0.227,0-0.413,0.195-0.413,0.434v4.858
										C65.355,132.958,65.542,133.153,65.769,133.153z"/>
								</g>
								<g id="XMLID_10434_">
									<path id="XMLID_12835_" fill="#FFFFFF" d="M73.81,133.153h5.14c0.23,0,0.416-0.195,0.416-0.434v-4.858
										c0-0.238-0.186-0.434-0.416-0.434h-5.14c-0.228,0-0.416,0.195-0.416,0.434v4.858
										C73.394,132.958,73.582,133.153,73.81,133.153z"/>
								</g>
								<g id="XMLID_10433_">
									<path id="XMLID_12834_" fill="#FFFFFF" d="M81.849,133.153h5.143c0.228,0,0.413-0.195,0.413-0.434v-4.858
										c0-0.238-0.186-0.434-0.413-0.434h-5.143c-0.228,0-0.414,0.195-0.414,0.434v4.858
										C81.435,132.958,81.621,133.153,81.849,133.153z"/>
								</g>
								<g id="XMLID_10432_">
									<path id="XMLID_12833_" fill="#FFFFFF" d="M89.887,133.153h5.142c0.229,0,0.416-0.195,0.416-0.434v-4.858
										c0-0.238-0.188-0.434-0.416-0.434h-5.142c-0.227,0-0.414,0.195-0.414,0.434v4.858
										C89.473,132.958,89.66,133.153,89.887,133.153z"/>
								</g>
								<g id="XMLID_10431_">
									<path id="XMLID_12832_" fill="#FFFFFF" d="M97.927,133.153h5.144c0.227,0,0.412-0.195,0.412-0.434v-4.858
										c0-0.238-0.186-0.434-0.412-0.434h-5.144c-0.229,0-0.414,0.195-0.414,0.434v4.858
										C97.513,132.958,97.697,133.153,97.927,133.153z"/>
								</g>
								<g id="XMLID_10430_">
									<path id="XMLID_12831_" fill="#FFFFFF" d="M121.173,127.428h-15.068c-0.23,0-0.415,0.195-0.415,0.434v4.858
										c0,0.238,0.185,0.434,0.415,0.434h15.068c0.228,0,0.414-0.195,0.414-0.434v-4.858
										C121.587,127.623,121.4,127.428,121.173,127.428z"/>
								</g>
								<g id="XMLID_10429_">
									<path id="XMLID_12830_" fill="#FFFFFF" d="M12.7,135.675H7.558c-0.227,0-0.415,0.195-0.415,0.435v4.862
										c0,0.236,0.188,0.432,0.415,0.432H12.7c0.227,0,0.414-0.195,0.414-0.432v-4.862C13.114,135.87,12.927,135.675,12.7,135.675
										z"/>
								</g>
								<g id="XMLID_10428_">
									<path id="XMLID_12829_" fill="#FFFFFF" d="M28.78,135.675h-5.144c-0.227,0-0.414,0.195-0.414,0.435v4.862
										c0,0.236,0.188,0.432,0.414,0.432h5.144c0.227,0,0.411-0.195,0.411-0.432v-4.862
										C29.191,135.87,29.007,135.675,28.78,135.675z"/>
								</g>
								<g id="XMLID_10427_">
									<path id="XMLID_12828_" fill="#FFFFFF" d="M20.82,135.675h-5.142c-0.227,0-0.414,0.195-0.414,0.435v4.862
										c0,0.236,0.188,0.432,0.414,0.432h5.142c0.231,0,0.415-0.195,0.415-0.432v-4.862
										C21.235,135.87,21.052,135.675,20.82,135.675z"/>
								</g>
								<g id="XMLID_10426_">
									<path id="XMLID_12827_" fill="#FFFFFF" d="M88.63,135.675h-5.141c-0.231,0-0.414,0.195-0.414,0.435v4.862
										c0,0.236,0.183,0.432,0.414,0.432h5.141c0.228,0,0.414-0.195,0.414-0.432v-4.862
										C89.044,135.87,88.857,135.675,88.63,135.675z"/>
								</g>
								<g id="XMLID_10425_">
									<path id="XMLID_12826_" fill="#FFFFFF" d="M96.668,135.675h-5.139c-0.229,0-0.417,0.195-0.417,0.435v4.862
										c0,0.236,0.188,0.432,0.417,0.432h5.139c0.231,0,0.414-0.195,0.414-0.432v-4.862
										C97.082,135.87,96.899,135.675,96.668,135.675z"/>
								</g>
								<g id="XMLID_10424_">
									<path id="XMLID_12825_" fill="#FFFFFF" d="M80.588,135.675H32.099c-0.228,0-0.414,0.195-0.414,0.435v4.862
										c0,0.236,0.187,0.432,0.414,0.432h48.489c0.231,0,0.417-0.195,0.417-0.432v-4.862
										C81.005,135.87,80.819,135.675,80.588,135.675z"/>
								</g>
								<g id="XMLID_10423_">
									<path id="XMLID_12824_" fill="#FFFFFF" d="M112.636,135.099h-4.621c-0.193,0-0.351,0.163-0.351,0.367v1.744
										c0,0.203,0.157,0.367,0.351,0.367h4.621c0.192,0,0.35-0.164,0.35-0.367v-1.744
										C112.985,135.262,112.828,135.099,112.636,135.099z"/>
								</g>
								<g id="XMLID_10422_">
									<path id="XMLID_12823_" fill="#FFFFFF" d="M108.015,138.898c-0.193,0-0.351,0.163-0.351,0.366v1.746
										c0,0.203,0.157,0.365,0.351,0.365h4.621c0.192,0,0.35-0.162,0.35-0.365v-1.746c0-0.203-0.157-0.366-0.35-0.366H108.015z"/>
								</g>
								<g id="XMLID_10421_">
									<path id="XMLID_12822_" fill="#FFFFFF" d="M105.816,138.898h-4.621c-0.192,0-0.349,0.163-0.349,0.366v1.746
										c0,0.203,0.156,0.365,0.349,0.365h4.621c0.195,0,0.352-0.162,0.352-0.365v-1.746
										C106.168,139.062,106.012,138.898,105.816,138.898z"/>
								</g>
								<g id="XMLID_10420_">
									<path id="XMLID_12821_" fill="#FFFFFF" d="M119.57,138.898h-4.621c-0.194,0-0.352,0.163-0.352,0.366v1.746
										c0,0.203,0.157,0.365,0.352,0.365h4.621c0.191,0,0.352-0.162,0.352-0.365v-1.746
										C119.922,139.062,119.762,138.898,119.57,138.898z"/>
								</g>
							</g>
						</g>
					</g>
				</g>
				<g id="XMLID_10415_" opacity="0.4">
					<path id="XMLID_12650_" fill="#586773" d="M85.679,172.617c0,0.595-0.483,1.076-1.077,1.076H43.715
						c-0.593,0-1.074-0.481-1.074-1.076v-24.029c0-0.595,0.481-1.076,1.074-1.076h40.887c0.594,0,1.077,0.481,1.077,1.076V172.617z"
						/>
				</g>
			</g>
		</g>
		<g id="XMLID_10386_">
			<g id="XMLID_10396_" opacity="0.2">
				<g id="XMLID_10411_">
					<g id="XMLID_10412_">
						<rect id="XMLID_12820_" x="44.86" y="38.84" fill="#586773" width="59.381" height="1.791"/>
					</g>
				</g>
				<g id="XMLID_10409_">
					<g id="XMLID_10410_">
						<rect id="XMLID_12819_" x="25.11" y="43.35" fill="#586773" width="79.131" height="1.792"/>
					</g>
				</g>
				<g id="XMLID_10407_">
					<g id="XMLID_10408_">
						<rect id="XMLID_12818_" x="25.11" y="47.859" fill="#586773" width="79.131" height="1.792"/>
					</g>
				</g>
				<g id="XMLID_10405_">
					<g id="XMLID_10406_">
						<rect id="XMLID_12817_" x="25.11" y="52.371" fill="#586773" width="79.131" height="1.792"/>
					</g>
				</g>
				<g id="XMLID_10403_">
					<g id="XMLID_10404_">
						<rect id="XMLID_12816_" x="25.11" y="56.881" fill="#586773" width="79.131" height="1.791"/>
					</g>
				</g>
				<g id="XMLID_10401_">
					<g id="XMLID_10402_">
						<rect id="XMLID_12815_" x="25.11" y="61.389" fill="#586773" width="79.131" height="1.793"/>
					</g>
				</g>
				<g id="XMLID_10399_">
					<g id="XMLID_10400_">
						<rect id="XMLID_12814_" x="25.11" y="65.899" fill="#586773" width="79.131" height="1.792"/>
					</g>
				</g>
				<g id="XMLID_10397_">
					<g id="XMLID_10398_">
						<rect id="XMLID_12813_" x="25.11" y="70.41" fill="#586773" width="79.131" height="1.792"/>
					</g>
				</g>
			</g>
			<g id="XMLID_10387_" opacity="0.2">
				<g id="XMLID_10394_">
					<g id="XMLID_10395_">
						<rect id="XMLID_12812_" x="44.86" y="20.8" fill="#586773" width="59.381" height="1.792"/>
					</g>
				</g>
				<g id="XMLID_10392_">
					<g id="XMLID_10393_">
						<rect id="XMLID_12811_" x="44.86" y="25.309" fill="#586773" width="59.381" height="1.792"/>
					</g>
				</g>
				<g id="XMLID_10390_">
					<g id="XMLID_10391_">
						<rect id="XMLID_12810_" x="44.86" y="29.819" fill="#586773" width="59.381" height="1.792"/>
					</g>
				</g>
				<g id="XMLID_10388_">
					<g id="XMLID_10389_">
						<rect id="XMLID_12809_" x="44.86" y="34.329" fill="#586773" width="59.381" height="1.792"/>
					</g>
				</g>
			</g>
		</g>
	</g>
	<g id="XMLID_10380_">
		<g id="XMLID_10381_">
			<g id="XMLID_10382_">
				<g id="XMLID_10383_">
					<g id="XMLID_10384_">
						<polygon id="XMLID_12808_" fill="#1A2F2E" points="112.744,59.134 88.25,50.016 97.503,74.554 102.241,66.686 108.889,73.317 
							111.591,70.582 104.944,63.951 						"/>
					</g>
				</g>
			</g>
		</g>
	</g>
	<g id="XMLID_10372_">
		<g id="XMLID_10379_" opacity="0.8">
			<polygon id="XMLID_12649_" fill="#F26235" points="13.771,40.875 41.666,40.844 41.649,12.868 13.755,12.868 			"/>
		</g>
		<g id="XMLID_10373_">
			<g id="XMLID_10374_">
				<g id="XMLID_10375_">
					<g id="XMLID_10376_">
						<path id="XMLID_13675_" fill="#FFFFFF" d="M30.967,30.688h-6.518l-1.341,4.278h-3.376c0,0,4.876-15.057,5.085-15.702
							c0.117-0.418,0.188-0.488,0.787-0.488h4.209c0.602,0,0.67,0.07,0.786,0.488c0.208,0.646,5.089,15.702,5.089,15.702h-3.376
							L30.967,30.688z M25.165,27.774h5.063l-2.081-6.522h-0.879L25.165,27.774z"/>
					</g>
				</g>
			</g>
		</g>
	</g>
</g>
</svg>
