<?xml version="1.0" encoding="utf-8"?>
<!-- Generator: Adobe Illustrator 12.0.0, SVG Export Plug-In . SVG Version: 6.00 Build 51448)  -->
<!DOCTYPE svg PUBLIC "-//W3C//DTD SVG 1.1//EN" "http://www.w3.org/Graphics/SVG/1.1/DTD/svg11.dtd" [
	<!ENTITY ns_svg "http://www.w3.org/2000/svg">
	<!ENTITY ns_xlink "http://www.w3.org/1999/xlink">
]>
<svg  version="1.1" id="Layer_1" xmlns="&ns_svg;" xmlns:xlink="&ns_xlink;" width="153.527" height="162.192"
	 viewBox="0 0 153.527 162.192" overflow="visible" enable-background="new 0 0 153.527 162.192" xml:space="preserve">
<g id="XMLID_11975_">
	<g id="XMLID_11998_">
		<g id="XMLID_12104_">
			<g id="XMLID_12123_">
				<g id="XMLID_12124_">
					<g id="XMLID_12169_">
						<g id="XMLID_12170_">
							<g id="XMLID_12171_">
								<g id="XMLID_12172_">
									<g id="XMLID_12173_">
										<g id="XMLID_12174_">
											<path id="XMLID_13278_" fill="#46535B" d="M19.941,139.108c0,1.868,1.526,3.381,3.394,3.381l0,0
												c1.866,0.001,3.382-1.513,3.381-3.381l0.001-6.604h-6.776V139.108z"/>
										</g>
									</g>
								</g>
							</g>
						</g>
					</g>
					<g id="XMLID_12125_">
						<g id="XMLID_12163_">
							<g id="XMLID_12164_">
								<g id="XMLID_12165_">
									<g id="XMLID_12166_">
										<g id="XMLID_12167_">
											<g id="XMLID_12168_">
												<polygon id="XMLID_13277_" fill="#FEF5DD" points="26.625,21.485 23.331,12.979 20.074,21.44 23.385,131.24 
																									"/>
											</g>
										</g>
									</g>
								</g>
							</g>
						</g>
						<g id="XMLID_12157_">
							<g id="XMLID_12158_">
								<g id="XMLID_12159_">
									<g id="XMLID_12160_">
										<g id="XMLID_12161_">
											<g id="XMLID_12162_">
												<polygon id="XMLID_13276_" fill="#E5DAC1" points="26.625,21.485 23.331,12.979 24.793,21.374 25.691,23.631 
																									"/>
											</g>
										</g>
									</g>
								</g>
							</g>
						</g>
						<g id="XMLID_12132_">
							<g id="XMLID_12151_">
								<g id="XMLID_12152_">
									<g id="XMLID_12153_">
										<g id="XMLID_12154_">
											<g id="XMLID_12155_">
												<g id="XMLID_12156_">
													<polygon id="XMLID_13275_" fill="#FFD55C" points="26.718,21.17 23.201,24.094 19.941,21.169 19.941,133.542 
														26.718,133.542 													"/>
												</g>
											</g>
										</g>
									</g>
								</g>
							</g>
							<g id="XMLID_12145_">
								<g id="XMLID_12146_">
									<g id="XMLID_12147_">
										<g id="XMLID_12148_">
											<g id="XMLID_12149_">
												<g id="XMLID_12150_">
													<path id="XMLID_13274_" fill="#FFD55C" d="M21.943,133.944l-0.001-3.618V24.772l0-2.962
														c0-0.544,0.443-0.986,0.986-0.987h0.794c0.544,0.002,0.985,0.443,0.985,0.987v104.114v4.4l0.002,3.619
														c0,0.545-0.443,2.321-0.987,2.321h-0.791C22.387,136.266,21.943,134.488,21.943,133.944z"/>
												</g>
											</g>
										</g>
									</g>
								</g>
							</g>
							<g id="XMLID_12139_">
								<g id="XMLID_12140_">
									<g id="XMLID_12141_">
										<g id="XMLID_12142_">
											<g id="XMLID_12143_">
												<g id="XMLID_12144_">
													<path id="XMLID_13273_" fill="#FBBA52" d="M24.71,133.944l-0.002-3.619v-4.4V21.811c0-0.544,0.443-0.986,0.985-0.986
														h0.031c0.543,0,0.992,0.442,0.993,0.986v104.114l-0.001,4.4l0.001,3.619c0,0.545-0.448,2.321-0.995,2.321h-0.029
														C25.151,136.266,24.71,134.489,24.71,133.944z"/>
												</g>
											</g>
										</g>
									</g>
								</g>
							</g>
							<g id="XMLID_12133_">
								<g id="XMLID_12134_">
									<g id="XMLID_12135_">
										<g id="XMLID_12136_">
											<g id="XMLID_12137_">
												<g id="XMLID_12138_">
													<path id="XMLID_13272_" fill="#FFD55C" d="M19.941,133.324V21.19c0,0.076,0.439-0.365,0.986-0.367h0.029
														c0.546,0,0.986,0.443,0.987,0.367l0,112.134c0,1.164-0.44,2.941-0.985,2.941h-0.029
														C20.38,136.266,19.941,134.489,19.941,133.324z"/>
												</g>
											</g>
										</g>
									</g>
								</g>
							</g>
						</g>
						<g id="XMLID_12126_">
							<g id="XMLID_12127_">
								<g id="XMLID_12128_">
									<g id="XMLID_12129_">
										<g id="XMLID_12130_">
											<g id="XMLID_12131_">
												<polygon id="XMLID_13271_" fill="#3D454A" points="23.338,12.342 24.875,16.956 21.795,16.954 												"/>
											</g>
										</g>
									</g>
								</g>
							</g>
						</g>
					</g>
				</g>
			</g>
			<g id="XMLID_12117_" opacity="0.5">
				<g id="XMLID_12118_">
					<g id="XMLID_12119_">
						<g id="XMLID_12120_">
							<g id="XMLID_12121_">
								<g id="XMLID_12122_">
									<path id="XMLID_13270_" fill="#FBBA52" d="M21.943,133.944l-0.001-3.618V24.772l0-2.962c0-0.544,0.443-0.986,0.986-0.987
										h0.794c0.544,0.002,0.985,0.443,0.985,0.987v104.114v4.4l0.002,3.619c0,0.545-0.443,2.321-0.987,2.321h-0.791
										C22.387,136.266,21.943,134.488,21.943,133.944z"/>
								</g>
							</g>
						</g>
					</g>
				</g>
			</g>
			<g id="XMLID_12111_">
				<g id="XMLID_12112_">
					<g id="XMLID_12113_">
						<g id="XMLID_12114_">
							<g id="XMLID_12115_">
								<g id="XMLID_12116_">
									<polygon id="XMLID_13269_" fill="#E7ECF1" points="22.809,132.615 26.717,132.615 26.717,136.494 19.942,136.493 
										19.941,132.614 22.809,132.615 									"/>
								</g>
							</g>
						</g>
					</g>
				</g>
			</g>
			<g id="XMLID_12105_">
				<g id="XMLID_12106_">
					<g id="XMLID_12107_">
						<g id="XMLID_12108_">
							<g id="XMLID_12109_">
								<g id="XMLID_12110_">
									<polygon id="XMLID_13268_" fill="#CFDBE5" points="26.717,136.494 24.716,136.492 24.716,132.614 26.718,132.621 									
										"/>
								</g>
							</g>
						</g>
					</g>
				</g>
			</g>
		</g>
		<g id="XMLID_12085_">
			<g id="XMLID_12102_">
				<g id="XMLID_12103_">
					<polygon id="XMLID_13267_" fill="#FFFFFF" points="9.243,12.671 9.243,33.846 0.11,33.846 0.11,21.804 					"/>
				</g>
			</g>
			<g id="XMLID_12100_">
				<g id="XMLID_12101_">
					<path id="XMLID_13266_" fill="#E7ECF1" d="M9.243,16.126v13.463v6.664v5.136H6.097v-4.208c0-0.314-0.255-0.569-0.569-0.569
						c-0.313,0-0.567,0.255-0.567,0.569v4.208h-3.06v-3.496l-1.792-1.64V25.259L9.243,16.126z"/>
				</g>
			</g>
			<g id="XMLID_12091_">
				<g id="XMLID_12093_">
					<g id="XMLID_12098_">
						<g id="XMLID_12099_">
							<rect id="XMLID_13265_" x="1.839" y="52.292" fill="#B7C8D7" width="7.274" height="89.613"/>
						</g>
					</g>
					<g id="XMLID_12095_">
						<g id="XMLID_12096_">
							<g id="XMLID_12097_">
								<rect id="XMLID_13264_" x="1.834" y="40.998" fill="#B7C8D7" width="7.409" height="12.35"/>
							</g>
						</g>
					</g>
					<g id="XMLID_12094_">
						<rect id="XMLID_13263_" x="1.839" y="44.151" fill="#94AEC4" width="2.564" height="97.754"/>
					</g>
				</g>
				<g id="XMLID_12092_">
					<rect id="XMLID_13262_" x="0.065" y="49.47" fill="#586773" width="10.838" height="28.346"/>
				</g>
			</g>
			<g id="XMLID_12090_">
				<path id="XMLID_13261_" fill="#B7C8D7" d="M0,48.609c0,0.477,0.387,0.863,0.865,0.863h9.328c0.477,0,0.864-0.387,0.864-0.863
					v-6.961c0-0.478-0.387-0.865-0.864-0.865H0.865C0.387,40.783,0,41.171,0,41.648V48.609z"/>
			</g>
			<g id="XMLID_12089_">
				<path id="XMLID_13260_" fill="#94AEC4" d="M0.865,40.783H3.06v8.689H0.865C0.387,49.473,0,49.086,0,48.609v-6.961
					C0,41.171,0.387,40.783,0.865,40.783z"/>
			</g>
			<g id="XMLID_12086_">
				<g id="XMLID_12088_">
					<rect id="XMLID_13259_" y="42.066" fill="#94AEC4" width="11.057" height="0.49"/>
				</g>
				<g id="XMLID_12087_">
					<rect id="XMLID_13258_" y="47.704" fill="#94AEC4" width="11.057" height="0.49"/>
				</g>
			</g>
		</g>
		<g id="XMLID_11999_">
			<g id="XMLID_12080_">
				<g id="XMLID_12084_">
					<polygon id="XMLID_13257_" fill="#FFFFFF" points="134.037,142.848 34.139,142.848 34.139,9.645 82.224,1.732 134.037,9.645 
											"/>
				</g>
				<g id="XMLID_12081_">
					<g id="XMLID_12083_">
						<path id="XMLID_13256_" fill="#E5E3EA" d="M143.601,0L143.601,0L143.601,0H43.703c-5.327,0-9.645,4.318-9.645,9.645h9.474
							h9.817h80.608h9.474h9.816C153.247,4.318,148.929,0,143.601,0z"/>
					</g>
					<g id="XMLID_12082_">
						<path id="XMLID_13255_" fill="#FFFFFF" d="M34.058,9.645C34.058,4.318,38.376,0,43.704,0c5.327,0,9.645,4.318,9.645,9.645
							H34.058z"/>
					</g>
				</g>
			</g>
			<g id="XMLID_12000_">
				<g id="XMLID_12075_">
					<g id="XMLID_12076_">
						<g id="XMLID_12077_">
							<path id="XMLID_15711_" fill="#FFD55C" d="M153.453,79.246v82.935H70.518L153.453,79.246z M141.017,109.271l-40.478,40.472
								h40.478V109.271z"/>
						</g>
					</g>
				</g>
				<g id="XMLID_12037_">
					<g id="XMLID_12073_" opacity="0.4">
						<g id="XMLID_12074_">
							<path id="XMLID_13254_" fill="#FBBA52" d="M80.261,156.248h67.322V88.804c0-2.348,1.903-4.249,4.246-4.249h1.682v77.621
								H76.009v-1.683C76.009,158.152,77.914,156.248,80.261,156.248z"/>
						</g>
					</g>
					<g id="XMLID_12038_" opacity="0.6">
						<g id="XMLID_12071_">
							<g id="XMLID_12072_">
								<rect id="XMLID_13253_" x="80.417" y="159.231" fill="#46535B" width="0.803" height="2.957"/>
							</g>
						</g>
						<g id="XMLID_12069_">
							<g id="XMLID_12070_">
								<polygon id="XMLID_13252_" fill="#46535B" points="96.87,159.229 96.87,162.192 97.673,162.192 97.667,159.229 								"/>
							</g>
						</g>
						<g id="XMLID_12067_">
							<g id="XMLID_12068_">
								<rect id="XMLID_13251_" x="88.643" y="159.229" fill="#46535B" width="0.806" height="2.959"/>
							</g>
						</g>
						<g id="XMLID_12065_">
							<g id="XMLID_12066_">
								<rect id="XMLID_13250_" x="84.53" y="159.231" fill="#46535B" width="0.806" height="2.957"/>
							</g>
						</g>
						<g id="XMLID_12063_">
							<g id="XMLID_12064_">
								<rect id="XMLID_13249_" x="92.755" y="159.229" fill="#46535B" width="0.807" height="2.959"/>
							</g>
						</g>
						<g id="XMLID_12061_">
							<g id="XMLID_12062_">
								<rect id="XMLID_13248_" x="113.32" y="159.229" fill="#46535B" width="0.806" height="2.963"/>
							</g>
						</g>
						<g id="XMLID_12059_">
							<g id="XMLID_12060_">
								<rect id="XMLID_13247_" x="105.095" y="159.229" fill="#46535B" width="0.805" height="2.963"/>
							</g>
						</g>
						<g id="XMLID_12057_">
							<g id="XMLID_12058_">
								<rect id="XMLID_13246_" x="100.982" y="159.229" fill="#46535B" width="0.805" height="2.963"/>
							</g>
						</g>
						<g id="XMLID_12055_">
							<g id="XMLID_12056_">
								<rect id="XMLID_13245_" x="109.208" y="159.229" fill="#46535B" width="0.805" height="2.963"/>
							</g>
						</g>
						<g id="XMLID_12053_">
							<g id="XMLID_12054_">
								<polygon id="XMLID_13244_" fill="#46535B" points="130.582,159.229 129.772,159.229 129.772,162.192 130.574,162.192 
																	"/>
							</g>
						</g>
						<g id="XMLID_12051_">
							<g id="XMLID_12052_">
								<rect id="XMLID_13243_" x="121.546" y="159.229" fill="#46535B" width="0.806" height="2.963"/>
							</g>
						</g>
						<g id="XMLID_12049_">
							<g id="XMLID_12050_">
								<rect id="XMLID_13242_" x="117.433" y="159.229" fill="#46535B" width="0.806" height="2.963"/>
							</g>
						</g>
						<g id="XMLID_12047_">
							<g id="XMLID_12048_">
								<rect id="XMLID_13241_" x="125.658" y="159.229" fill="#46535B" width="0.807" height="2.963"/>
							</g>
						</g>
						<g id="XMLID_12045_">
							<g id="XMLID_12046_">
								<rect id="XMLID_13240_" x="146.225" y="159.229" fill="#46535B" width="0.807" height="2.963"/>
							</g>
						</g>
						<g id="XMLID_12043_">
							<g id="XMLID_12044_">
								<rect id="XMLID_13239_" x="138" y="159.229" fill="#46535B" width="0.804" height="2.963"/>
							</g>
						</g>
						<g id="XMLID_12041_">
							<g id="XMLID_12042_">
								<rect id="XMLID_13238_" x="133.884" y="159.229" fill="#46535B" width="0.809" height="2.963"/>
							</g>
						</g>
						<g id="XMLID_12039_">
							<g id="XMLID_12040_">
								<rect id="XMLID_13237_" x="142.117" y="159.229" fill="#46535B" width="0.803" height="2.963"/>
							</g>
						</g>
					</g>
				</g>
				<g id="XMLID_12001_">
					<g id="XMLID_12002_" opacity="0.6">
						<g id="XMLID_12035_">
							<g id="XMLID_12036_">
								<rect id="XMLID_13236_" x="150.566" y="154.775" fill="#46535B" width="2.957" height="0.803"/>
							</g>
						</g>
						<g id="XMLID_12033_">
							<g id="XMLID_12034_">
								<polygon id="XMLID_13235_" fill="#46535B" points="150.564,139.128 153.525,139.128 153.525,138.318 150.564,138.328 
																	"/>
							</g>
						</g>
						<g id="XMLID_12031_">
							<g id="XMLID_12032_">
								<rect id="XMLID_13234_" x="150.564" y="146.544" fill="#46535B" width="2.961" height="0.807"/>
							</g>
						</g>
						<g id="XMLID_12029_">
							<g id="XMLID_12030_">
								<rect id="XMLID_13233_" x="150.566" y="150.66" fill="#46535B" width="2.959" height="0.805"/>
							</g>
						</g>
						<g id="XMLID_12027_">
							<g id="XMLID_12028_">
								<rect id="XMLID_13232_" x="150.564" y="142.436" fill="#46535B" width="2.961" height="0.804"/>
							</g>
						</g>
						<g id="XMLID_12025_">
							<g id="XMLID_12026_">
								<rect id="XMLID_13231_" x="150.564" y="121.865" fill="#46535B" width="2.963" height="0.808"/>
							</g>
						</g>
						<g id="XMLID_12023_">
							<g id="XMLID_12024_">
								<rect id="XMLID_13230_" x="150.564" y="130.096" fill="#46535B" width="2.961" height="0.802"/>
							</g>
						</g>
						<g id="XMLID_12021_">
							<g id="XMLID_12022_">
								<rect id="XMLID_13229_" x="150.564" y="134.207" fill="#46535B" width="2.961" height="0.806"/>
							</g>
						</g>
						<g id="XMLID_12019_">
							<g id="XMLID_12020_">
								<rect id="XMLID_13228_" x="150.564" y="125.98" fill="#46535B" width="2.963" height="0.808"/>
							</g>
						</g>
						<g id="XMLID_12017_">
							<g id="XMLID_12018_">
								<rect id="XMLID_13227_" x="150.564" y="105.415" fill="#46535B" width="2.963" height="0.805"/>
							</g>
						</g>
						<g id="XMLID_12015_">
							<g id="XMLID_12016_">
								<rect id="XMLID_13226_" x="150.564" y="113.642" fill="#46535B" width="2.963" height="0.803"/>
							</g>
						</g>
						<g id="XMLID_12013_">
							<g id="XMLID_12014_">
								<rect id="XMLID_13225_" x="150.564" y="117.755" fill="#46535B" width="2.961" height="0.807"/>
							</g>
						</g>
						<g id="XMLID_12011_">
							<g id="XMLID_12012_">
								<rect id="XMLID_13224_" x="150.564" y="109.528" fill="#46535B" width="2.963" height="0.805"/>
							</g>
						</g>
						<g id="XMLID_12009_">
							<g id="XMLID_12010_">
								<rect id="XMLID_13223_" x="150.564" y="88.961" fill="#46535B" width="2.963" height="0.808"/>
							</g>
						</g>
						<g id="XMLID_12007_">
							<g id="XMLID_12008_">
								<rect id="XMLID_13222_" x="150.564" y="97.19" fill="#46535B" width="2.963" height="0.802"/>
							</g>
						</g>
						<g id="XMLID_12005_">
							<g id="XMLID_12006_">
								<rect id="XMLID_13221_" x="150.564" y="101.302" fill="#46535B" width="2.963" height="0.807"/>
							</g>
						</g>
						<g id="XMLID_12003_">
							<g id="XMLID_12004_">
								<rect id="XMLID_13220_" x="150.564" y="93.073" fill="#46535B" width="2.963" height="0.806"/>
							</g>
						</g>
					</g>
				</g>
			</g>
		</g>
	</g>
	<g id="XMLID_11976_">
		<g id="XMLID_11979_">
			<g id="XMLID_11997_">
				<path id="XMLID_12750_" fill="#586773" d="M122.236,75.118h-1.707c0-7.582-2.446-14.751-7.074-20.732
					c-6.479-8.373-16.26-13.175-26.833-13.175c-18.697,0-33.907,15.211-33.907,33.907h-1.707c0-19.637,15.977-35.613,35.614-35.613
					c11.106,0,21.378,5.043,28.183,13.836C119.666,59.624,122.236,67.154,122.236,75.118z"/>
			</g>
			<g id="XMLID_11996_">
				<rect id="XMLID_12749_" x="49.737" y="39.505" fill="#586773" width="74.881" height="1.706"/>
			</g>
			<g id="XMLID_11995_">
				<rect id="XMLID_12744_" x="83.658" y="37.552" fill="#FFFFFF" width="5.883" height="5.883"/>
				<path id="XMLID_12745_" fill="#586773" d="M90.394,44.289h-7.59v-7.591h7.59V44.289z M84.511,42.582h4.176v-4.177h-4.176V42.582
					z"/>
			</g>
			<g id="XMLID_11994_">
				<circle id="XMLID_13219_" fill="#586773" cx="49.452" cy="40.493" r="2.941"/>
			</g>
			<g id="XMLID_11993_">
				<circle id="XMLID_13218_" fill="#586773" cx="124.619" cy="40.493" r="2.941"/>
			</g>
			<g id="XMLID_11980_">
				<g id="XMLID_11983_">
					<g id="XMLID_11984_">
						<g id="XMLID_11985_">
							<g id="XMLID_11988_">
								<g id="XMLID_11991_">
									<g id="XMLID_11992_">
										<path id="XMLID_13217_" fill="#BCB9BF" d="M85.148,51.17h3.188l11.049,26.481l0,0c-5.257,0.063-9.488,4.338-9.496,9.596
											l-0.001,1.083c0,0-1.762,0-3.4,0c-0.11,0-0.225,0-0.334,0c-1.568,0-2.846,0-2.846,0l-0.002-0.936
											c-0.004-5.233-4.26-9.467-9.493-9.443l0,0L85.148,51.17z"/>
									</g>
								</g>
								<g id="XMLID_11989_">
									<g id="XMLID_11990_">
										<path id="XMLID_13216_" fill="#586773" d="M88.097,73.821c-0.001,0.813-0.66,1.472-1.477,1.472
											c-0.813,0-1.473-0.659-1.473-1.472c0-0.615,0.376-1.139,0.909-1.362L86.06,51.17h1.133l-0.002,21.289
											C87.722,72.683,88.097,73.206,88.097,73.821z"/>
									</g>
								</g>
							</g>
							<g id="XMLID_11986_">
								<g id="XMLID_11987_">
									<rect id="XMLID_13215_" x="81.455" y="88.292" fill="#E5E3EA" width="10.049" height="8.863"/>
								</g>
							</g>
						</g>
					</g>
				</g>
				<g id="XMLID_11981_">
					<g id="XMLID_11982_">
						<rect id="XMLID_13214_" x="80.369" y="91.895" fill="#667A87" width="12.332" height="7.47"/>
					</g>
				</g>
			</g>
		</g>
		<g id="XMLID_11978_">
			<rect id="XMLID_12740_" x="48.802" y="73.315" fill="#FFFFFF" width="5.883" height="5.884"/>
			<path id="XMLID_12741_" fill="#586773" d="M55.538,80.052h-7.589v-7.589h7.589V80.052z M49.656,78.346h4.176V74.17h-4.176V78.346
				z"/>
		</g>
		<g id="XMLID_11977_">
			<rect id="XMLID_12732_" x="118.441" y="73.315" fill="#FFFFFF" width="5.883" height="5.884"/>
			<path id="XMLID_12737_" fill="#586773" d="M125.177,80.052h-7.589v-7.589h7.589V80.052z M119.294,78.346h4.176V74.17h-4.176
				V78.346z"/>
		</g>
	</g>
</g>
</svg>
