<?xml version="1.0" encoding="utf-8"?>
<!-- Generator: Adobe Illustrator 12.0.0, SVG Export Plug-In . SVG Version: 6.00 Build 51448)  -->
<!DOCTYPE svg PUBLIC "-//W3C//DTD SVG 1.1//EN" "http://www.w3.org/Graphics/SVG/1.1/DTD/svg11.dtd" [
	<!ENTITY ns_svg "http://www.w3.org/2000/svg">
	<!ENTITY ns_xlink "http://www.w3.org/1999/xlink">
]>
<svg  version="1.1" id="Layer_1" xmlns="&ns_svg;" xmlns:xlink="&ns_xlink;" width="182.587" height="172.83"
	 viewBox="0 0 182.587 172.83" overflow="visible" enable-background="new 0 0 182.587 172.83" xml:space="preserve">
<g id="XMLID_10694_">
	<g id="XMLID_10701_">
		<g id="XMLID_10703_">
			<g id="XMLID_10714_">
				<g id="XMLID_10786_">
					<g id="XMLID_10787_">
						<g id="XMLID_10989_">
							<g id="XMLID_11117_">
								<g id="XMLID_11118_">
									<g id="XMLID_11188_">
										<g id="XMLID_11191_">
											<g id="XMLID_11194_">
												<rect id="XMLID_13025_" x="2.025" y="10.044" fill="#46535B" width="111.175" height="137.267"/>
											</g>
										</g>
									</g>
									<g id="XMLID_11164_">
										<g id="XMLID_11167_">
											<g id="XMLID_11170_">
												<g id="XMLID_11173_">
													<g id="XMLID_11176_">
														<g id="XMLID_11179_">
															<g id="XMLID_11182_">
																<g id="XMLID_11185_">
																	<rect id="XMLID_13024_" x="2.026" fill="#E0E2E2" width="111.174" height="10.155"/>
																</g>
															</g>
														</g>
													</g>
												</g>
											</g>
										</g>
									</g>
									<g id="XMLID_11119_">
										<g id="XMLID_11149_">
											<g id="XMLID_11152_">
												<g id="XMLID_11155_">
													<g id="XMLID_11158_">
														<g id="XMLID_11161_">
															<path id="XMLID_13023_" fill="#F15E59" d="M10.601,5.077c0,1.094-0.89,1.981-1.984,1.981
																c-1.094,0-1.978-0.887-1.978-1.981c0-1.098,0.884-1.98,1.978-1.98C9.711,3.097,10.601,3.979,10.601,5.077z"/>
														</g>
													</g>
												</g>
											</g>
										</g>
										<g id="XMLID_11134_">
											<g id="XMLID_11137_">
												<g id="XMLID_11140_">
													<g id="XMLID_11143_">
														<g id="XMLID_11146_">
															<path id="XMLID_13022_" fill="#FCBC29" d="M17.549,5.077c0,1.094-0.887,1.981-1.978,1.981
																c-1.096,0-1.981-0.887-1.981-1.981c0-1.098,0.885-1.98,1.981-1.98C16.662,3.097,17.549,3.979,17.549,5.077z"/>
														</g>
													</g>
												</g>
											</g>
										</g>
										<g id="XMLID_11120_">
											<g id="XMLID_11121_">
												<g id="XMLID_11122_">
													<g id="XMLID_11123_">
														<g id="XMLID_11126_">
															<path id="XMLID_13021_" fill="#4BB748" d="M24.417,5.077c0,1.094-0.888,1.981-1.981,1.981
																c-1.093,0-1.984-0.887-1.984-1.981c0-1.098,0.892-1.98,1.984-1.98C23.529,3.097,24.417,3.979,24.417,5.077z"/>
														</g>
													</g>
												</g>
											</g>
										</g>
									</g>
								</g>
							</g>
							<g id="XMLID_10990_" opacity="0.5">
								<g id="XMLID_11073_">
									<g id="XMLID_11112_">
										<g id="XMLID_11116_">
											<rect id="XMLID_13020_" x="10.397" y="76.354" fill="#FFFFFF" width="23.137" height="2.56"/>
										</g>
									</g>
									<g id="XMLID_11108_">
										<g id="XMLID_11109_">
											<rect id="XMLID_13019_" x="18.286" y="84.035" fill="#FFFFFF" width="17.901" height="2.56"/>
										</g>
									</g>
									<g id="XMLID_11106_">
										<g id="XMLID_11107_">
											<rect id="XMLID_13018_" x="42.066" y="84.035" fill="#FFFFFF" width="17.396" height="2.56"/>
										</g>
									</g>
									<g id="XMLID_11099_">
										<g id="XMLID_11102_">
											<rect id="XMLID_13017_" x="64.544" y="84.035" fill="#FFFFFF" width="17.396" height="2.56"/>
										</g>
									</g>
									<g id="XMLID_11097_">
										<g id="XMLID_11098_">
											<rect id="XMLID_13016_" x="18.286" y="97.15" fill="#FFFFFF" width="18.916" height="2.561"/>
										</g>
									</g>
									<g id="XMLID_11095_">
										<g id="XMLID_11096_">
											<rect id="XMLID_13015_" x="42.796" y="97.15" fill="#FFFFFF" width="13.952" height="2.561"/>
										</g>
									</g>
									<g id="XMLID_11093_">
										<g id="XMLID_11094_">
											<rect id="XMLID_13014_" x="61.654" y="97.15" fill="#FFFFFF" width="13.952" height="2.561"/>
										</g>
									</g>
									<g id="XMLID_11088_">
										<g id="XMLID_11092_">
											<rect id="XMLID_13013_" x="18.286" y="90.648" fill="#FFFFFF" width="12.589" height="2.561"/>
										</g>
									</g>
									<g id="XMLID_11084_">
										<g id="XMLID_11085_">
											<rect id="XMLID_13012_" x="36.187" y="90.648" fill="#FFFFFF" width="13.218" height="2.561"/>
										</g>
									</g>
									<g id="XMLID_11082_">
										<g id="XMLID_11083_">
											<rect id="XMLID_13011_" x="53.87" y="90.648" fill="#FFFFFF" width="21.763" height="2.561"/>
										</g>
									</g>
								</g>
								<g id="XMLID_11004_">
									<g id="XMLID_11057_">
										<g id="XMLID_11065_">
											<rect id="XMLID_13010_" x="10.397" y="44.948" fill="#FFFFFF" width="23.137" height="2.56"/>
										</g>
									</g>
									<g id="XMLID_11048_">
										<g id="XMLID_11051_">
											<rect id="XMLID_13009_" x="18.286" y="52.628" fill="#FFFFFF" width="34.169" height="2.56"/>
										</g>
									</g>
									<g id="XMLID_11040_">
										<g id="XMLID_11044_">
											<rect id="XMLID_13008_" x="56.748" y="52.628" fill="#FFFFFF" width="17.482" height="2.56"/>
										</g>
									</g>
									<g id="XMLID_11034_">
										<g id="XMLID_11037_">
											<rect id="XMLID_13007_" x="18.286" y="65.744" fill="#FFFFFF" width="25.177" height="2.56"/>
										</g>
									</g>
									<g id="XMLID_11028_">
										<g id="XMLID_11031_">
											<rect id="XMLID_13006_" x="50.2" y="65.744" fill="#FFFFFF" width="18.522" height="2.56"/>
										</g>
									</g>
									<g id="XMLID_11018_">
										<g id="XMLID_11025_">
											<rect id="XMLID_13005_" x="18.286" y="59.241" fill="#FFFFFF" width="17.901" height="2.56"/>
										</g>
									</g>
									<g id="XMLID_11016_">
										<g id="XMLID_11017_">
											<rect id="XMLID_13004_" x="42.703" y="59.241" fill="#FFFFFF" width="13.819" height="2.56"/>
										</g>
									</g>
									<g id="XMLID_11014_">
										<g id="XMLID_11015_">
											<rect id="XMLID_13003_" x="61.813" y="59.241" fill="#FFFFFF" width="13.819" height="2.56"/>
										</g>
									</g>
									<g id="XMLID_11005_">
										<g id="XMLID_11012_">
											<g id="XMLID_11013_">
												<rect id="XMLID_13002_" x="11.455" y="26.066" fill="#FFFFFF" width="27.449" height="2.56"/>
											</g>
										</g>
										<g id="XMLID_11010_">
											<g id="XMLID_11011_">
												<rect id="XMLID_13001_" x="45.623" y="26.066" fill="#FFFFFF" width="21.775" height="2.56"/>
											</g>
										</g>
										<g id="XMLID_11008_">
											<g id="XMLID_11009_">
												<rect id="XMLID_13000_" x="11.455" y="32.68" fill="#FFFFFF" width="22.985" height="2.56"/>
											</g>
										</g>
										<g id="XMLID_11006_">
											<g id="XMLID_11007_">
												<rect id="XMLID_12999_" x="39.301" y="32.68" fill="#FFFFFF" width="20.336" height="2.56"/>
											</g>
										</g>
									</g>
								</g>
								<g id="XMLID_10991_">
									<g id="XMLID_11002_">
										<g id="XMLID_11003_">
											<rect id="XMLID_12998_" x="10.397" y="112.339" fill="#FFFFFF" width="23.137" height="2.561"/>
										</g>
									</g>
									<g id="XMLID_11000_">
										<g id="XMLID_11001_">
											<rect id="XMLID_12997_" x="18.286" y="120.019" fill="#FFFFFF" width="34.169" height="2.561"/>
										</g>
									</g>
									<g id="XMLID_10998_">
										<g id="XMLID_10999_">
											<rect id="XMLID_12996_" x="56.748" y="120.019" fill="#FFFFFF" width="17.482" height="2.561"/>
										</g>
									</g>
									<g id="XMLID_10996_">
										<g id="XMLID_10997_">
											<rect id="XMLID_12995_" x="18.286" y="126.632" fill="#FFFFFF" width="17.901" height="2.561"/>
										</g>
									</g>
									<g id="XMLID_10994_">
										<g id="XMLID_10995_">
											<rect id="XMLID_12994_" x="42.703" y="126.632" fill="#FFFFFF" width="13.819" height="2.561"/>
										</g>
									</g>
									<g id="XMLID_10992_">
										<g id="XMLID_10993_">
											<rect id="XMLID_12993_" x="61.813" y="126.632" fill="#FFFFFF" width="13.819" height="2.561"/>
										</g>
									</g>
								</g>
							</g>
						</g>
						<g id="XMLID_10947_">
							<g id="XMLID_10948_">
								<g id="XMLID_10954_">
									<g id="XMLID_10955_">
										<g id="XMLID_10956_">
											<g id="XMLID_10986_">
												<g id="XMLID_10987_">
													<g id="XMLID_10988_">
														<polygon id="XMLID_12992_" fill="#FFFFFF" points="144.797,35.092 157.849,39.439 157.849,172.359 53.209,172.361 
															53.209,35.092 														"/>
													</g>
												</g>
											</g>
											<g id="XMLID_10973_">
												<g id="XMLID_10974_">
													<g id="XMLID_10975_">
														<g id="XMLID_10981_">
															<g id="XMLID_10982_">
																<g id="XMLID_10983_">
																	<g id="XMLID_10984_">
																		<g id="XMLID_10985_">
																			<polygon id="XMLID_12991_" fill="#E0E2E2" points="143.504,25.049 53.21,25.049 53.21,35.204 146.228,35.204 
																																							"/>
																		</g>
																	</g>
																</g>
															</g>
														</g>
														<g id="XMLID_10976_">
															<g id="XMLID_10977_">
																<g id="XMLID_10978_">
																	<g id="XMLID_10979_">
																		<g id="XMLID_10980_">
																			<polygon id="XMLID_12990_" fill="#FFFFFF" points="145.375,32.462 80.54,32.462 80.54,27.678 143.988,27.678 
																																							"/>
																		</g>
																	</g>
																</g>
															</g>
														</g>
													</g>
												</g>
											</g>
											<g id="XMLID_10957_">
												<g id="XMLID_10968_">
													<g id="XMLID_10969_">
														<g id="XMLID_10970_">
															<g id="XMLID_10971_">
																<g id="XMLID_10972_">
																	<path id="XMLID_12989_" fill="#F15E59" d="M61.786,30.126c0,1.094-0.89,1.981-1.984,1.981
																		s-1.978-0.887-1.978-1.981c0-1.098,0.883-1.98,1.978-1.98S61.786,29.028,61.786,30.126z"/>
																</g>
															</g>
														</g>
													</g>
												</g>
												<g id="XMLID_10963_">
													<g id="XMLID_10964_">
														<g id="XMLID_10965_">
															<g id="XMLID_10966_">
																<g id="XMLID_10967_">
																	<path id="XMLID_12988_" fill="#FCBC29" d="M68.733,30.126c0,1.094-0.887,1.981-1.978,1.981
																		c-1.096,0-1.981-0.887-1.981-1.981c0-1.098,0.885-1.98,1.981-1.98C67.847,28.146,68.733,29.028,68.733,30.126z"/>
																</g>
															</g>
														</g>
													</g>
												</g>
												<g id="XMLID_10958_">
													<g id="XMLID_10959_">
														<g id="XMLID_10960_">
															<g id="XMLID_10961_">
																<g id="XMLID_10962_">
																	<path id="XMLID_12987_" fill="#4BB748" d="M75.602,30.126c0,1.094-0.888,1.981-1.981,1.981
																		c-1.093,0-1.984-0.887-1.984-1.981c0-1.098,0.891-1.98,1.984-1.98C74.714,28.146,75.602,29.028,75.602,30.126z"/>
																</g>
															</g>
														</g>
													</g>
												</g>
											</g>
										</g>
									</g>
								</g>
								<g id="XMLID_10949_">
									<g id="XMLID_10952_">
										<g id="XMLID_10953_">
											<polygon id="XMLID_12986_" fill="#46535B" points="157.916,39.439 143.526,39.439 143.504,25.049 											"/>
										</g>
									</g>
									<g id="XMLID_10950_" opacity="0.3">
										<g id="XMLID_10951_">
											<polygon id="XMLID_12985_" fill="#586773" points="157.916,53.829 157.916,39.439 143.526,39.439 											"/>
										</g>
									</g>
								</g>
							</g>
						</g>
						<g id="XMLID_10788_">
							<g id="XMLID_10789_">
								<g id="XMLID_10940_">
									<g id="XMLID_10941_">
										<g id="XMLID_10942_">
											<g id="XMLID_10943_">
												<g id="XMLID_10944_">
													<path id="XMLID_14448_" fill="#FFD55C" d="M163.574,69.322l-0.008,58.8h0.011l-0.006,32.951l-0.005,11.757h19.011
														l0.004-14.646l0.007-53.407h-0.008l0.002-32.565l0.006-47.162h-19.009L163.574,69.322z M175.538,30.387
														c0,1.358-1.102,2.46-2.46,2.46c-1.359,0-2.461-1.102-2.461-2.46c0-1.359,1.102-2.461,2.461-2.461
														C174.436,27.926,175.538,29.028,175.538,30.387z"/>
												</g>
											</g>
										</g>
									</g>
								</g>
								<g id="XMLID_10935_" opacity="0.4">
									<g id="XMLID_10936_">
										<g id="XMLID_10937_">
											<g id="XMLID_10938_">
												<g id="XMLID_10939_">
													<path id="XMLID_12984_" fill="#FBBA52" d="M163.566,171.419h1.546c2.152,0,3.896-1.747,3.896-3.898V34.943
														c0-2.151-1.744-3.9-3.896-3.9h-1.546V171.419z"/>
												</g>
											</g>
										</g>
									</g>
								</g>
								<g id="XMLID_10790_" opacity="0.6">
									<g id="XMLID_10931_">
										<g id="XMLID_10932_">
											<g id="XMLID_10933_">
												<g id="XMLID_10934_">
													<rect id="XMLID_12983_" x="163.557" y="142.876" fill="#46535B" width="2.715" height="0.738"/>
												</g>
											</g>
										</g>
									</g>
									<g id="XMLID_10927_">
										<g id="XMLID_10928_">
											<g id="XMLID_10929_">
												<g id="XMLID_10930_">
													<rect id="XMLID_12982_" x="163.555" y="157.979" fill="#46535B" width="2.717" height="0.737"/>
												</g>
											</g>
										</g>
									</g>
									<g id="XMLID_10923_">
										<g id="XMLID_10924_">
											<g id="XMLID_10925_">
												<g id="XMLID_10926_">
													<rect id="XMLID_12981_" x="163.557" y="150.428" fill="#46535B" width="2.715" height="0.742"/>
												</g>
											</g>
										</g>
									</g>
									<g id="XMLID_10919_">
										<g id="XMLID_10920_">
											<g id="XMLID_10921_">
												<g id="XMLID_10922_">
													<rect id="XMLID_12980_" x="163.557" y="146.654" fill="#46535B" width="2.715" height="0.738"/>
												</g>
											</g>
										</g>
									</g>
									<g id="XMLID_10915_">
										<g id="XMLID_10916_">
											<g id="XMLID_10917_">
												<g id="XMLID_10918_">
													<rect id="XMLID_12979_" x="163.557" y="154.201" fill="#46535B" width="2.715" height="0.742"/>
												</g>
											</g>
										</g>
									</g>
									<g id="XMLID_10911_">
										<g id="XMLID_10912_">
											<g id="XMLID_10913_">
												<g id="XMLID_10914_">
													<rect id="XMLID_12978_" x="163.555" y="165.527" fill="#46535B" width="2.718" height="0.739"/>
												</g>
											</g>
										</g>
									</g>
									<g id="XMLID_10907_">
										<g id="XMLID_10908_">
											<g id="XMLID_10909_">
												<g id="XMLID_10910_">
													<rect id="XMLID_12977_" x="163.555" y="161.754" fill="#46535B" width="2.717" height="0.737"/>
												</g>
											</g>
										</g>
									</g>
									<g id="XMLID_10903_">
										<g id="XMLID_10904_">
											<g id="XMLID_10905_">
												<g id="XMLID_10906_">
													<rect id="XMLID_12976_" x="163.557" y="33.408" fill="#46535B" width="2.711" height="0.738"/>
												</g>
											</g>
										</g>
									</g>
									<g id="XMLID_10899_">
										<g id="XMLID_10900_">
											<g id="XMLID_10901_">
												<g id="XMLID_10902_">
													<rect id="XMLID_12975_" x="163.555" y="48.509" fill="#46535B" width="2.713" height="0.736"/>
												</g>
											</g>
										</g>
									</g>
									<g id="XMLID_10895_">
										<g id="XMLID_10896_">
											<g id="XMLID_10897_">
												<g id="XMLID_10898_">
													<rect id="XMLID_12974_" x="163.557" y="40.957" fill="#46535B" width="2.711" height="0.742"/>
												</g>
											</g>
										</g>
									</g>
									<g id="XMLID_10891_">
										<g id="XMLID_10892_">
											<g id="XMLID_10893_">
												<g id="XMLID_10894_">
													<rect id="XMLID_12973_" x="163.557" y="37.185" fill="#46535B" width="2.711" height="0.735"/>
												</g>
											</g>
										</g>
									</g>
									<g id="XMLID_10887_">
										<g id="XMLID_10888_">
											<g id="XMLID_10889_">
												<g id="XMLID_10890_">
													<rect id="XMLID_12972_" x="163.557" y="44.732" fill="#46535B" width="2.711" height="0.741"/>
												</g>
											</g>
										</g>
									</g>
									<g id="XMLID_10883_">
										<g id="XMLID_10884_">
											<g id="XMLID_10885_">
												<g id="XMLID_10886_">
													<rect id="XMLID_12971_" x="163.555" y="63.607" fill="#46535B" width="2.715" height="0.738"/>
												</g>
											</g>
										</g>
									</g>
									<g id="XMLID_10879_">
										<g id="XMLID_10880_">
											<g id="XMLID_10881_">
												<g id="XMLID_10882_">
													<rect id="XMLID_12970_" x="163.555" y="56.057" fill="#46535B" width="2.713" height="0.738"/>
												</g>
											</g>
										</g>
									</g>
									<g id="XMLID_10875_">
										<g id="XMLID_10876_">
											<g id="XMLID_10877_">
												<g id="XMLID_10878_">
													<rect id="XMLID_12969_" x="163.555" y="52.283" fill="#46535B" width="2.713" height="0.737"/>
												</g>
											</g>
										</g>
									</g>
									<g id="XMLID_10871_">
										<g id="XMLID_10872_">
											<g id="XMLID_10873_">
												<g id="XMLID_10874_">
													<rect id="XMLID_12968_" x="163.556" y="59.832" fill="#46535B" width="2.713" height="0.738"/>
												</g>
											</g>
										</g>
									</g>
									<g id="XMLID_10867_">
										<g id="XMLID_10868_">
											<g id="XMLID_10869_">
												<g id="XMLID_10870_">
													<rect id="XMLID_12967_" x="163.555" y="78.707" fill="#46535B" width="2.715" height="0.738"/>
												</g>
											</g>
										</g>
									</g>
									<g id="XMLID_10863_">
										<g id="XMLID_10864_">
											<g id="XMLID_10865_">
												<g id="XMLID_10866_">
													<rect id="XMLID_12966_" x="163.555" y="71.156" fill="#46535B" width="2.715" height="0.738"/>
												</g>
											</g>
										</g>
									</g>
									<g id="XMLID_10859_">
										<g id="XMLID_10860_">
											<g id="XMLID_10861_">
												<g id="XMLID_10862_">
													<rect id="XMLID_12965_" x="163.555" y="67.38" fill="#46535B" width="2.715" height="0.74"/>
												</g>
											</g>
										</g>
									</g>
									<g id="XMLID_10855_">
										<g id="XMLID_10856_">
											<g id="XMLID_10857_">
												<g id="XMLID_10858_">
													<rect id="XMLID_12964_" x="163.555" y="74.933" fill="#46535B" width="2.715" height="0.738"/>
												</g>
											</g>
										</g>
									</g>
									<g id="XMLID_10851_">
										<g id="XMLID_10852_">
											<g id="XMLID_10853_">
												<g id="XMLID_10854_">
													<rect id="XMLID_12963_" x="163.552" y="93.804" fill="#46535B" width="2.718" height="0.74"/>
												</g>
											</g>
										</g>
									</g>
									<g id="XMLID_10847_">
										<g id="XMLID_10848_">
											<g id="XMLID_10849_">
												<g id="XMLID_10850_">
													<rect id="XMLID_12962_" x="163.552" y="86.256" fill="#46535B" width="2.718" height="0.738"/>
												</g>
											</g>
										</g>
									</g>
									<g id="XMLID_10843_">
										<g id="XMLID_10844_">
											<g id="XMLID_10845_">
												<g id="XMLID_10846_">
													<rect id="XMLID_12961_" x="163.555" y="82.479" fill="#46535B" width="2.715" height="0.742"/>
												</g>
											</g>
										</g>
									</g>
									<g id="XMLID_10839_">
										<g id="XMLID_10840_">
											<g id="XMLID_10841_">
												<g id="XMLID_10842_">
													<rect id="XMLID_12960_" x="163.552" y="90.03" fill="#46535B" width="2.718" height="0.738"/>
												</g>
											</g>
										</g>
									</g>
									<g id="XMLID_10835_">
										<g id="XMLID_10836_">
											<g id="XMLID_10837_">
												<g id="XMLID_10838_">
													<rect id="XMLID_12959_" x="163.549" y="108.906" fill="#46535B" width="2.723" height="0.738"/>
												</g>
											</g>
										</g>
									</g>
									<g id="XMLID_10831_">
										<g id="XMLID_10832_">
											<g id="XMLID_10833_">
												<g id="XMLID_10834_">
													<rect id="XMLID_12958_" x="163.55" y="101.355" fill="#46535B" width="2.72" height="0.737"/>
												</g>
											</g>
										</g>
									</g>
									<g id="XMLID_10827_">
										<g id="XMLID_10828_">
											<g id="XMLID_10829_">
												<g id="XMLID_10830_">
													<rect id="XMLID_12957_" x="163.55" y="97.582" fill="#46535B" width="2.72" height="0.736"/>
												</g>
											</g>
										</g>
									</g>
									<g id="XMLID_10823_">
										<g id="XMLID_10824_">
											<g id="XMLID_10825_">
												<g id="XMLID_10826_">
													<rect id="XMLID_12956_" x="163.549" y="105.131" fill="#46535B" width="2.723" height="0.736"/>
												</g>
											</g>
										</g>
									</g>
									<g id="XMLID_10819_">
										<g id="XMLID_10820_">
											<g id="XMLID_10821_">
												<g id="XMLID_10822_">
													<rect id="XMLID_12955_" x="163.547" y="124.003" fill="#46535B" width="2.725" height="0.738"/>
												</g>
											</g>
										</g>
									</g>
									<g id="XMLID_10815_">
										<g id="XMLID_10816_">
											<g id="XMLID_10817_">
												<g id="XMLID_10818_">
													<rect id="XMLID_12954_" x="163.549" y="116.454" fill="#46535B" width="2.723" height="0.738"/>
												</g>
											</g>
										</g>
									</g>
									<g id="XMLID_10811_">
										<g id="XMLID_10812_">
											<g id="XMLID_10813_">
												<g id="XMLID_10814_">
													<rect id="XMLID_12953_" x="163.549" y="112.68" fill="#46535B" width="2.723" height="0.737"/>
												</g>
											</g>
										</g>
									</g>
									<g id="XMLID_10807_">
										<g id="XMLID_10808_">
											<g id="XMLID_10809_">
												<g id="XMLID_10810_">
													<rect id="XMLID_12952_" x="163.549" y="120.228" fill="#46535B" width="2.723" height="0.74"/>
												</g>
											</g>
										</g>
									</g>
									<g id="XMLID_10803_">
										<g id="XMLID_10804_">
											<g id="XMLID_10805_">
												<g id="XMLID_10806_">
													<rect id="XMLID_12951_" x="163.547" y="127.781" fill="#46535B" width="2.725" height="0.737"/>
												</g>
											</g>
										</g>
									</g>
									<g id="XMLID_10799_">
										<g id="XMLID_10800_">
											<g id="XMLID_10801_">
												<g id="XMLID_10802_">
													<rect id="XMLID_12950_" x="163.547" y="135.329" fill="#46535B" width="2.725" height="0.74"/>
												</g>
											</g>
										</g>
									</g>
									<g id="XMLID_10795_">
										<g id="XMLID_10796_">
											<g id="XMLID_10797_">
												<g id="XMLID_10798_">
													<rect id="XMLID_12949_" x="163.547" y="131.554" fill="#46535B" width="2.725" height="0.739"/>
												</g>
											</g>
										</g>
									</g>
									<g id="XMLID_10791_">
										<g id="XMLID_10792_">
											<g id="XMLID_10793_">
												<g id="XMLID_10794_">
													<rect id="XMLID_12948_" x="163.547" y="139.104" fill="#46535B" width="2.725" height="0.739"/>
												</g>
											</g>
										</g>
									</g>
								</g>
							</g>
						</g>
					</g>
				</g>
				<g id="XMLID_10715_">
					<g id="XMLID_10734_">
						<g id="XMLID_10735_">
							<g id="XMLID_10780_">
								<g id="XMLID_10781_">
									<g id="XMLID_10782_">
										<g id="XMLID_10783_">
											<g id="XMLID_10784_">
												<g id="XMLID_10785_">
													<path id="XMLID_12947_" fill="#46535B" d="M4.654,154.052c-2.572,0-4.654,2.102-4.654,4.672l0,0
														c0,2.568,2.082,4.655,4.653,4.654l9.09,0.001v-9.327H4.654z"/>
												</g>
											</g>
										</g>
									</g>
								</g>
							</g>
							<g id="XMLID_10736_">
								<g id="XMLID_10774_">
									<g id="XMLID_10775_">
										<g id="XMLID_10776_">
											<g id="XMLID_10777_">
												<g id="XMLID_10778_">
													<g id="XMLID_10779_">
														<polygon id="XMLID_12946_" fill="#FEF5DD" points="119.176,163.251 130.883,158.718 119.239,154.234 15.484,158.792 
																													"/>
													</g>
												</g>
											</g>
										</g>
									</g>
								</g>
								<g id="XMLID_10768_">
									<g id="XMLID_10769_">
										<g id="XMLID_10770_">
											<g id="XMLID_10771_">
												<g id="XMLID_10772_">
													<g id="XMLID_10773_">
														<polygon id="XMLID_12945_" fill="#E5DAC1" points="119.176,163.251 130.883,158.718 119.331,160.73 116.223,161.966 
																													"/>
													</g>
												</g>
											</g>
										</g>
									</g>
								</g>
								<g id="XMLID_10743_">
									<g id="XMLID_10762_">
										<g id="XMLID_10763_">
											<g id="XMLID_10764_">
												<g id="XMLID_10765_">
													<g id="XMLID_10766_">
														<g id="XMLID_10767_">
															<polygon id="XMLID_12944_" fill="#FFD55C" points="119.61,163.379 115.585,158.539 119.612,154.052 12.316,154.052 
																12.316,163.379 															"/>
														</g>
													</g>
												</g>
											</g>
										</g>
									</g>
									<g id="XMLID_10756_">
										<g id="XMLID_10757_">
											<g id="XMLID_10758_">
												<g id="XMLID_10759_">
													<g id="XMLID_10760_">
														<g id="XMLID_10761_">
															<path id="XMLID_12943_" fill="#FFD55C" d="M11.762,156.808l4.981-0.002h97.91h4.076c0.748,0,1.357,0.611,1.357,1.359
																v1.092c-0.002,0.749-0.609,1.357-1.357,1.357H22.801h-6.057l-4.981,0.002c-0.75,0-3.195-0.61-3.195-1.359v-1.089
																C8.566,157.417,11.013,156.808,11.762,156.808z"/>
														</g>
													</g>
												</g>
											</g>
										</g>
									</g>
									<g id="XMLID_10750_">
										<g id="XMLID_10751_">
											<g id="XMLID_10752_">
												<g id="XMLID_10753_">
													<g id="XMLID_10754_">
														<g id="XMLID_10755_">
															<path id="XMLID_12942_" fill="#FBBA52" d="M11.762,160.617l4.981-0.002h6.057h95.928
																c0.748,0,1.357,0.609,1.357,1.355v0.042c0,0.749-0.609,1.366-1.357,1.367H22.801l-6.057-0.001l-4.982,0.001
																c-0.749,0-3.195-0.617-3.195-1.369v-0.04C8.567,161.223,11.013,160.617,11.762,160.617z"/>
														</g>
													</g>
												</g>
											</g>
										</g>
									</g>
									<g id="XMLID_10744_">
										<g id="XMLID_10745_">
											<g id="XMLID_10746_">
												<g id="XMLID_10747_">
													<g id="XMLID_10748_">
														<g id="XMLID_10749_">
															<path id="XMLID_12941_" fill="#FFD55C" d="M12.616,154.052h106.967c-0.105,0,0.502,0.605,0.504,1.357l0.001,0.039
																c-0.001,0.752-0.61,1.357-0.505,1.357l-106.967,0.002c-1.603,0-4.049-0.605-4.048-1.357v-0.039
																C8.567,154.657,11.013,154.052,12.616,154.052z"/>
														</g>
													</g>
												</g>
											</g>
										</g>
									</g>
								</g>
								<g id="XMLID_10737_">
									<g id="XMLID_10738_">
										<g id="XMLID_10739_">
											<g id="XMLID_10740_">
												<g id="XMLID_10741_">
													<g id="XMLID_10742_">
														<polygon id="XMLID_12940_" fill="#3D454A" points="131.762,158.727 125.411,160.843 125.413,156.603 														
															"/>
													</g>
												</g>
											</g>
										</g>
									</g>
								</g>
							</g>
						</g>
					</g>
					<g id="XMLID_10728_" opacity="0.5">
						<g id="XMLID_10729_">
							<g id="XMLID_10730_">
								<g id="XMLID_10731_">
									<g id="XMLID_10732_">
										<g id="XMLID_10733_">
											<path id="XMLID_12939_" fill="#FBBA52" d="M11.762,156.808l4.981-0.002h97.91h4.076c0.748,0,1.357,0.611,1.357,1.359
												v1.092c-0.002,0.749-0.609,1.357-1.357,1.357H22.801h-6.057l-4.981,0.002c-0.75,0-3.195-0.61-3.195-1.359v-1.089
												C8.566,157.417,11.013,156.808,11.762,156.808z"/>
										</g>
									</g>
								</g>
							</g>
						</g>
					</g>
					<g id="XMLID_10722_">
						<g id="XMLID_10723_">
							<g id="XMLID_10724_">
								<g id="XMLID_10725_">
									<g id="XMLID_10726_">
										<g id="XMLID_10727_">
											<polygon id="XMLID_12938_" fill="#E7ECF1" points="13.592,158 13.592,163.378 8.252,163.378 8.253,154.052 
												13.593,154.052 13.592,158 											"/>
										</g>
									</g>
								</g>
							</g>
						</g>
					</g>
					<g id="XMLID_10716_">
						<g id="XMLID_10717_">
							<g id="XMLID_10718_">
								<g id="XMLID_10719_">
									<g id="XMLID_10720_">
										<g id="XMLID_10721_">
											<polygon id="XMLID_12937_" fill="#CFDBE5" points="8.252,163.378 8.255,160.625 13.593,160.625 13.583,163.379 
																							"/>
										</g>
									</g>
								</g>
							</g>
						</g>
					</g>
				</g>
			</g>
			<g id="XMLID_10709_">
				<g id="XMLID_10712_">
					<g id="XMLID_10713_">
						<rect id="XMLID_12936_" x="107.551" y="115.05" fill="#46535B" width="42.069" height="23.754"/>
					</g>
				</g>
				<g id="XMLID_10710_">
					<g id="XMLID_10711_">
						<path id="XMLID_12935_" fill="#FFFFFF" d="M128.881,119.333h-0.591h-6.931v4.646h1.324l0.01-0.652
							c0.021-1.476,1.223-2.662,2.698-2.664l0.847-0.002h1.225v12.377h-2.697v1.481h3.524h0.591h3.525v-1.481h-2.697v-12.377h1.225
							l0.846,0.002c1.477,0.002,2.678,1.188,2.699,2.664l0.01,0.652h1.324v-4.646H128.881z"/>
					</g>
				</g>
			</g>
			<g id="XMLID_10704_">
				<g id="XMLID_10707_">
					<g id="XMLID_10708_">
						<rect id="XMLID_12934_" x="61.242" y="115.05" fill="#FFD55C" width="41.396" height="23.754"/>
					</g>
				</g>
				<g id="XMLID_10705_">
					<g id="XMLID_10706_">
						<polygon id="XMLID_12933_" fill="#FFFFFF" points="79.049,132.974 79.049,120.07 87.926,126.521 						"/>
					</g>
				</g>
			</g>
		</g>
		<g id="XMLID_10702_">
			<rect id="XMLID_12932_" x="61.654" y="44.817" fill="#FFD55C" width="88.27" height="7.383"/>
		</g>
	</g>
	<g id="XMLID_10700_">
		<path id="XMLID_12674_" fill="#46535B" d="M147.948,98.443H62.735V66.459h85.212V98.443z M64.442,96.737h81.8V68.166h-81.8V96.737
			z"/>
	</g>
	<g id="XMLID_10699_">
		<rect id="XMLID_12669_" x="60.068" y="63.944" fill="#FFFFFF" width="7.04" height="7.04"/>
		<path id="XMLID_12670_" fill="#46535B" d="M67.962,71.836h-8.747V63.09h8.747V71.836z M60.922,70.13h5.333v-5.333h-5.333V70.13z"
			/>
	</g>
	<g id="XMLID_10698_">
		<rect id="XMLID_12665_" x="60.068" y="94.07" fill="#FFFFFF" width="7.04" height="7.041"/>
		<path id="XMLID_12666_" fill="#46535B" d="M67.962,101.963h-8.747v-8.747h8.747V101.963z M60.922,100.257h5.333v-5.334h-5.333
			V100.257z"/>
	</g>
	<g id="XMLID_10697_">
		<rect id="XMLID_12661_" x="143.575" y="63.944" fill="#FFFFFF" width="7.041" height="7.04"/>
		<path id="XMLID_12662_" fill="#46535B" d="M151.468,71.836h-8.747V63.09h8.747V71.836z M144.428,70.13h5.334v-5.333h-5.334V70.13z
			"/>
	</g>
	<g id="XMLID_10696_">
		<rect id="XMLID_12657_" x="143.575" y="94.07" fill="#FFFFFF" width="7.041" height="7.041"/>
		<path id="XMLID_12658_" fill="#46535B" d="M151.468,101.963h-8.747v-8.747h8.747V101.963z M144.428,100.257h5.334v-5.334h-5.334
			V100.257z"/>
	</g>
	<g id="XMLID_10695_">
		<polygon id="XMLID_12931_" fill="#586773" points="176.926,108.947 147.095,97.355 158.688,127.185 165.727,118.041 
			172.479,124.792 174.534,122.738 167.782,115.985 		"/>
	</g>
</g>
</svg>
