<?xml version="1.0" encoding="UTF-8"?>
<!-- Generator: Adobe Illustrator 19.1.0, SVG Export Plug-In . SVG Version: 6.00 Build 0)  -->
<svg version="1.1" id="Layer_1" xmlns="http://www.w3.org/2000/svg" xmlns:xlink="http://www.w3.org/1999/xlink" x="0px" y="0px" viewBox="216 306 180 180" style="enable-background:new 216 306 180 180;" xml:space="preserve">
<style type="text/css">
	.st0{fill:url(#SVGID_1_);}
	.st1{fill:url(#SVGID_2_);}
	.st2{fill:url(#SVGID_3_);}
</style>
<g>
	<g>
		
			<linearGradient id="SVGID_1_" gradientUnits="userSpaceOnUse" x1="363.9064" y1="458.0423" x2="205.18" y2="287.9791" gradientTransform="matrix(1 0 0 -1 0 792)">
			<stop offset="0" style="stop-color:#FFFFFF"/>
			<stop offset="1" style="stop-color:#D9E2E9"/>
		</linearGradient>
		<path class="st0" d="M396,396c0,49.7-40.3,90-90,90s-90-40.3-90-90s40.3-90,90-90C355.8,306,396,346.3,396,396z"/>
		
			<linearGradient id="SVGID_2_" gradientUnits="userSpaceOnUse" x1="531.7432" y1="1032.2626" x2="376.7667" y2="866.217" gradientTransform="matrix(-1 0 0 1 781.2207 -575.7031)">
			<stop offset="0" style="stop-color:#FFFFFF"/>
			<stop offset="1" style="stop-color:#D9E2E9"/>
		</linearGradient>
		<circle class="st1" cx="306" cy="396" r="87.9"/>
	</g>
	
		<radialGradient id="SVGID_3_" cx="307.0027" cy="435.8494" r="122.0709" gradientTransform="matrix(1 0 0 -1 0 792)" gradientUnits="userSpaceOnUse">
		<stop offset="0" style="stop-color:#EA158E"/>
		<stop offset="1" style="stop-color:#9F2068"/>
	</radialGradient>
	<path class="st2" d="M280,450.1c0,0-24-11.7-24-32.9s8.9-27.6,13-37.9c2-5,3.8-6.6,5-3.4c1.5,4,1.8,8.7,1.8,8.7s0.6,4.3,3.5,0.5   c2.8-3.8,19.3-22.7,19.2-44.8c-0.1-2,0.5-4.5,3.8-2.5c3.2,2,19.2,11,27,35.8c1,3.2,3.5,4.6,4.4,1.5c1-3.1,2.4-7,1.4-11.8   c-0.1-2.6,1.8-2.2,2.8-0.9c1.2,1.3,20.7,18.9,20.1,47.3c-0.6,28.3-28.4,41.4-28.4,41.4s-3.1,1.5-1.6-3.5s6.4-21.6-1.4-39.3   S310.5,386,310.5,386s-1.9-0.9-2,2c-0.1,2.9-0.1,14.6-6.5,24.2c-2,2.8-2.8,2.5-2.9-0.1c-0.1-2.5-0.5-5.6-1.4-8.4   c-1.5-4.6-3.6,0.9-3.6,0.9s-2.3,8.2-8.3,16.1c-5.9,8-6.4,17.8-3,27.8C284.2,451.7,280,450.1,280,450.1z"/>
</g>
</svg>