<?xml version="1.0" encoding="UTF-8"?>
<!-- Generator: Adobe Illustrator 19.1.0, SVG Export Plug-In . SVG Version: 6.00 Build 0)  -->
<svg version="1.1" id="Layer_1" xmlns="http://www.w3.org/2000/svg" xmlns:xlink="http://www.w3.org/1999/xlink" x="0px" y="0px" viewBox="216 306 180 180" style="enable-background:new 216 306 180 180;" xml:space="preserve">
<style type="text/css">
	.st0{fill:url(#SVGID_1_);}
	.st1{fill:url(#SVGID_2_);}
	.st2{fill:#E90B8D;}
	.st3{opacity:0.31;fill:url(#SVGID_3_);enable-background:new    ;}
</style>
<g>
	<g>
		<g>
			
				<linearGradient id="SVGID_1_" gradientUnits="userSpaceOnUse" x1="363.876" y1="458.0097" x2="205.1494" y2="287.9464" gradientTransform="matrix(1 0 0 -1 0 792)">
				<stop offset="0" style="stop-color:#FFFFFF"/>
				<stop offset="1" style="stop-color:#D9E2E9"/>
			</linearGradient>
			<path class="st0" d="M396,396c0,49.7-40.3,90-90,90s-90-40.3-90-90s40.3-90,90-90S396,346.3,396,396z"/>
			
				<linearGradient id="SVGID_2_" gradientUnits="userSpaceOnUse" x1="531.7736" y1="1032.2953" x2="376.797" y2="866.2496" gradientTransform="matrix(-1 0 0 1 781.2207 -575.7031)">
				<stop offset="0" style="stop-color:#FFFFFF"/>
				<stop offset="1" style="stop-color:#D9E2E9"/>
			</linearGradient>
			<circle class="st1" cx="306" cy="396" r="87.9"/>
		</g>
	</g>
	<path class="st2" d="M330.1,343.8h-28c0,0-3.3-1-5.2,5.9c-1.9,6.9-16.3,50.2-16.3,50.2s-1.7,4.4,3.3,4.4s10,0,10,0s6.1-1.1,3.8,5.2   c-2.3,6.3-12.3,44-12.3,44s0.8,7.5,5.7,0s38.1-58.2,38.1-58.2s3.1-5.2-3.8-5s-6.9,0.2-6.9,0.2s-7.3,1.5-4-5.7   c3.3-7.1,18.6-36.6,18.6-36.6S335.8,343.8,330.1,343.8z"/>
	<g>
		
			<linearGradient id="SVGID_3_" gradientUnits="userSpaceOnUse" x1="333.4308" y1="390.9842" x2="287.5316" y2="392.2711" gradientTransform="matrix(1 0 0 -1 0 792)">
			<stop offset="0" style="stop-color:#000000"/>
			<stop offset="1" style="stop-color:#FFFFFF"/>
		</linearGradient>
		<path class="st3" d="M330.1,343.8h-28c0,0-3.3-1-5.2,5.9c-1.9,6.9-16.3,50.2-16.3,50.2s-1.7,4.4,3.3,4.4s10,0,10,0    s6.1-1.1,3.8,5.2c-2.3,6.3-12.3,44-12.3,44s0.8,7.5,5.7,0s38.1-58.2,38.1-58.2s3.1-5.2-3.8-5s-6.9,0.2-6.9,0.2s-7.3,1.5-4-5.7    c3.3-7.1,18.6-36.6,18.6-36.6S335.8,343.8,330.1,343.8z"/>
	</g>
</g>
</svg>