<?xml version="1.0" encoding="UTF-8"?>
<!-- Generator: Adobe Illustrator 19.1.0, SVG Export Plug-In . SVG Version: 6.00 Build 0)  -->
<svg version="1.1" id="Layer_1" xmlns="http://www.w3.org/2000/svg" xmlns:xlink="http://www.w3.org/1999/xlink" x="0px" y="0px" viewBox="216 306 180 180" style="enable-background:new 216 306 180 180;" xml:space="preserve">
<style type="text/css">
	.st0{fill:url(#SVGID_1_);}
	.st1{fill:url(#SVGID_2_);}
	.st2{fill:url(#SVGID_3_);}
	.st3{fill:url(#SVGID_4_);}
</style>
<g>
	<g>
		<g>
			
				<linearGradient id="SVGID_1_" gradientUnits="userSpaceOnUse" x1="363.876" y1="458.0097" x2="205.1494" y2="287.9464" gradientTransform="matrix(1 0 0 -1 0 792)">
				<stop offset="0" style="stop-color:#FFFFFF"/>
				<stop offset="1" style="stop-color:#D9E2E9"/>
			</linearGradient>
			<path class="st0" d="M396,396c0,49.7-40.3,90-90,90s-90-40.3-90-90s40.3-90,90-90S396,346.3,396,396z"/>
			
				<linearGradient id="SVGID_2_" gradientUnits="userSpaceOnUse" x1="531.7736" y1="1032.2953" x2="376.797" y2="866.2496" gradientTransform="matrix(-1 0 0 1 781.2207 -575.7031)">
				<stop offset="0" style="stop-color:#FFFFFF"/>
				<stop offset="1" style="stop-color:#D9E2E9"/>
			</linearGradient>
			<circle class="st1" cx="306" cy="396" r="87.9"/>
		</g>
	</g>
	<g>
		
			<radialGradient id="SVGID_3_" cx="321.0503" cy="430.0481" r="132.5775" gradientTransform="matrix(1 0 0 -1 0 792)" gradientUnits="userSpaceOnUse">
			<stop offset="0" style="stop-color:#EA158E"/>
			<stop offset="1" style="stop-color:#9F2068"/>
		</radialGradient>
		<path class="st2" d="M304.4,397.3c0,0-17.3-10-16.2-22.8c0.9-13,8.7-17.4,11.5-22.8c2.8-5.4,1.8-14.4,1.8-14.4s16.2,5.9,16.3,20.8    c2.6-2.7,2-8.2,2-8.2s6,6.6,5.1,22c-0.8,15.4-13,24.6-13,24.6s6.1-12.8,4.4-19.3c-1.8,3.5-4.6,5.1-4.6,5.1s5.4-11-4.4-18.9    c-2.6,8.4-5.2,5.9-8.4,14C295.8,385.6,304.4,397.3,304.4,397.3z"/>
		
			<radialGradient id="SVGID_4_" cx="321.0503" cy="417.1099" r="89.2777" gradientTransform="matrix(1 0 0 -1 0 792)" gradientUnits="userSpaceOnUse">
			<stop offset="0" style="stop-color:#EA158E"/>
			<stop offset="1" style="stop-color:#9F2068"/>
		</radialGradient>
		<path class="st3" d="M329.4,412c0-1.3-0.4-2.3-1.2-3.2h-2.1c1.7-0.6,2.4-2.5,2.4-4.7c0-1-0.1-2-0.4-2.7h-39.8    c-0.2,0.7-0.3,1.7-0.3,2.7c0,2.2,0.6,4.1,2.4,4.7h-2.1c-0.7,0.8-1.2,2-1.2,3.2c0,2.8,2.3,5.1,5.1,5.1h0.6    c-0.5,0.6-0.8,1.5-0.8,2.3c0,1.9,1.5,3.5,3.4,3.7l1.6,8.1h-2.9c-0.5,0.7-0.9,1.6-0.9,2.5c0,2.3,1.9,4.1,4.1,4.1l0,0l5.1,17.4l0,0    c0,3.1,2.5,5.8,5.8,5.8c2.9,0,5.3-2.2,5.7-5l0,0l5.2-18.1l0,0c2.3,0,4.1-1.9,4.1-4.1c0-0.9-0.3-1.9-0.9-2.5h-2.9l1.6-8.1    c1.9-0.2,3.4-1.8,3.4-3.7c0-0.8-0.3-1.7-0.8-2.3h0.6C327.1,417.2,329.4,414.9,329.4,412z"/>
	</g>
</g>
</svg>